SSP-Black.ufo
<glyph name="exclam" format="1">
  <advance width="302"/>
  <unicode hex="0021"/>
  <outline>
    <contour>
      <point x="83" y="437" type="line"/>
      <point x="79" y="562" type="line"/>
      <point x="222" y="562" type="line"/>
      <point x="218" y="437" type="line"/>
      <point x="197" y="205" type="line"/>
      <point x="104" y="205" type="line"/>
    </contour>
    <contour>
      <point x="67" y="77" type="curve" smooth="yes"/>
      <point x="67" y="126"/>
      <point x="102" y="164"/>
      <point x="151" y="164" type="curve" smooth="yes"/>
      <point x="200" y="164"/>
      <point x="234" y="126"/>
      <point x="234" y="77" type="curve" smooth="yes"/>
      <point x="234" y="27"/>
      <point x="200" y="-10"/>
      <point x="151" y="-10" type="curve" smooth="yes"/>
      <point x="102" y="-10"/>
      <point x="67" y="27"/>
    </contour>
  </outline>
</glyph>
<glyph name="numbersign" format="1">
  <advance width="453"/>
  <unicode hex="0023"/>
  <outline>
    <contour>
      <point x="88" y="151" type="line"/>
      <point x="28" y="151" type="line"/>
      <point x="28" y="241" type="line"/>
      <point x="99" y="241" type="line"/>
      <point x="109" y="322" type="line"/>
      <point x="46" y="322" type="line"/>
      <point x="46" y="413" type="line"/>
      <point x="121" y="413" type="line"/>
      <point x="138" y="545" type="line"/>
      <point x="218" y="545" type="line"/>
      <point x="203" y="413" type="line"/>
      <point x="280" y="413" type="line"/>
      <point x="297" y="545" type="line"/>
      <point x="377" y="545" type="line"/>
      <point x="363" y="413" type="line"/>
      <point x="427" y="413" type="line"/>
      <point x="427" y="322" type="line"/>
      <point x="350" y="322" type="line"/>
      <point x="340" y="241" type="line"/>
      <point x="411" y="241" type="line"/>
      <point x="411" y="151" type="line"/>
      <point x="330" y="151" type="line"/>
      <point x="312" y="0" type="line"/>
      <point x="230" y="0" type="line"/>
      <point x="248" y="151" type="line"/>
      <point x="171" y="151" type="line"/>
      <point x="153" y="0" type="line"/>
      <point x="71" y="0" type="line"/>
    </contour>
    <contour>
      <point x="258" y="241" type="line"/>
      <point x="269" y="322" type="line"/>
      <point x="191" y="322" type="line"/>
      <point x="180" y="241" type="line"/>
    </contour>
  </outline>
</glyph>
<glyph name="dollar" format="1">
  <advance width="453"/>
  <unicode hex="0024"/>
  <outline>
    <contour>
      <point x="326" y="385" type="line"/>
      <point x="297" y="413"/>
      <point x="270" y="425"/>
      <point x="239" y="425" type="curve" smooth="yes"/>
      <point x="204" y="425"/>
      <point x="186" y="416"/>
      <point x="186" y="381" type="curve" smooth="yes"/>
      <point x="186" y="319"/>
      <point x="402" y="314"/>
      <point x="402" y="163" type="curve" smooth="yes"/>
      <point x="402" y="81"/>
      <point x="360" y="18"/>
      <point x="271" y="-4" type="curve"/>
      <point x="271" y="-92" type="line"/>
      <point x="177" y="-92" type="line"/>
      <point x="177" y="-9" type="line"/>
      <point x="129" y="-3"/>
      <point x="71" y="18"/>
      <point x="28" y="55" type="curve"/>
      <point x="90" y="153" type="line"/>
      <point x="137" y="120"/>
      <point x="171" y="105"/>
      <point x="206" y="105" type="curve" smooth="yes"/>
      <point x="249" y="105"/>
      <point x="265" y="121"/>
      <point x="265" y="153" type="curve" smooth="yes"/>
      <point x="265" y="220"/>
      <point x="48" y="229"/>
      <point x="48" y="375" type="curve" smooth="yes"/>
      <point x="48" y="460"/>
      <point x="96" y="518"/>
      <point x="177" y="536" type="curve"/>
      <point x="177" y="623" type="line"/>
      <point x="271" y="623" type="line"/>
      <point x="271" y="538" type="line"/>
      <point x="325" y="529"/>
      <point x="364" y="504"/>
      <point x="398" y="467" type="curve"/>
    </contour>
  </outline>
</glyph>
<glyph name="ampersand" format="1">
  <advance width="578"/>
  <unicode hex="0026"/>
  <outline>
    <contour>
      <point x="155" y="156" type="curve" smooth="yes"/>
      <point x="155" y="122"/>
      <point x="180" y="99"/>
      <point x="224" y="99" type="curve" smooth="yes"/>
      <point x="240" y="99"/>
      <point x="259" y="103"/>
      <point x="278" y="113" type="curve"/>
      <point x="240" y="142"/>
      <point x="207" y="174"/>
      <point x="179" y="207" type="curve"/>
      <point x="163" y="191"/>
      <point x="155" y="175"/>
    </contour>
    <contour>
      <point x="200" y="407" type="curve" smooth="yes"/>
      <point x="200" y="389"/>
      <point x="205" y="372"/>
      <point x="215" y="353" type="curve"/>
      <point x="250" y="372"/>
      <point x="274" y="393"/>
      <point x="274" y="425" type="curve" smooth="yes"/>
      <point x="274" y="449"/>
      <point x="264" y="461"/>
      <point x="243" y="461" type="curve" smooth="yes"/>
      <point x="220" y="461"/>
      <point x="200" y="443"/>
    </contour>
    <contour>
      <point x="528" y="-10" type="line"/>
      <point x="480" y="-1"/>
      <point x="431" y="17"/>
      <point x="381" y="43" type="curve"/>
      <point x="334" y="10"/>
      <point x="276" y="-10"/>
      <point x="206" y="-10" type="curve" smooth="yes"/>
      <point x="79" y="-10"/>
      <point x="19" y="65"/>
      <point x="19" y="147" type="curve" smooth="yes"/>
      <point x="19" y="223"/>
      <point x="63" y="268"/>
      <point x="115" y="299" type="curve"/>
      <point x="94" y="337"/>
      <point x="82" y="374"/>
      <point x="82" y="407" type="curve" smooth="yes"/>
      <point x="82" y="485"/>
      <point x="142" y="555"/>
      <point x="239" y="555" type="curve" smooth="yes"/>
      <point x="326" y="555"/>
      <point x="383" y="506"/>
      <point x="383" y="425" type="curve" smooth="yes"/>
      <point x="383" y="356"/>
      <point x="330" y="310"/>
      <point x="274" y="273" type="curve"/>
      <point x="303" y="245"/>
      <point x="336" y="217"/>
      <point x="370" y="193" type="curve"/>
      <point x="397" y="226"/>
      <point x="416" y="267"/>
      <point x="429" y="314" type="curve"/>
      <point x="560" y="314" type="line"/>
      <point x="540" y="250"/>
      <point x="512" y="191"/>
      <point x="471" y="135" type="curve"/>
      <point x="504" y="120"/>
      <point x="533" y="109"/>
      <point x="562" y="105" type="curve"/>
    </contour>
  </outline>
</glyph>
<glyph name="quotesingle" format="1">
  <advance width="269"/>
  <unicode hex="0027"/>
  <outline>
    <contour>
      <point x="67" y="449" type="line"/>
      <point x="63" y="573" type="line"/>
      <point x="206" y="573" type="line"/>
      <point x="201" y="449" type="line"/>
      <point x="172" y="271" type="line"/>
      <point x="96" y="271" type="line"/>
    </contour>
  </outline>
</glyph>
<glyph name="parenleft" format="1">
  <advance width="302"/>
  <unicode hex="0028"/>
  <outline>
    <contour>
      <point x="168" y="-151" type="line"/>
      <point x="97" y="-36"/>
      <point x="57" y="85"/>
      <point x="57" y="232" type="curve" smooth="yes"/>
      <point x="57" y="381"/>
      <point x="97" y="500"/>
      <point x="168" y="616" type="curve"/>
      <point x="258" y="580" type="line"/>
      <point x="197" y="470"/>
      <point x="172" y="349"/>
      <point x="172" y="232" type="curve" smooth="yes"/>
      <point x="172" y="117"/>
      <point x="197" y="-5"/>
      <point x="258" y="-114" type="curve"/>
    </contour>
  </outline>
</glyph>
<glyph name="parenright" format="1">
  <advance width="302"/>
  <unicode hex="0029"/>
  <outline>
    <contour>
      <point x="44" y="-114" type="line"/>
      <point x="104" y="-5"/>
      <point x="129" y="117"/>
      <point x="129" y="232" type="curve" smooth="yes"/>
      <point x="129" y="349"/>
      <point x="104" y="470"/>
      <point x="44" y="580" type="curve"/>
      <point x="134" y="616" type="line"/>
      <point x="205" y="500"/>
      <point x="245" y="381"/>
      <point x="245" y="232" type="curve" smooth="yes"/>
      <point x="245" y="85"/>
      <point x="205" y="-36"/>
      <point x="134" y="-151" type="curve"/>
    </contour>
  </outline>
</glyph>
<glyph name="asterisk" format="1">
  <advance width="396"/>
  <unicode hex="002A"/>
  <outline>
    <contour>
      <point x="69" y="312" type="line"/>
      <point x="120" y="401" type="line"/>
      <point x="25" y="445" type="line"/>
      <point x="47" y="514" type="line"/>
      <point x="149" y="494" type="line"/>
      <point x="161" y="597" type="line"/>
      <point x="234" y="597" type="line"/>
      <point x="247" y="493" type="line"/>
      <point x="347" y="514" type="line"/>
      <point x="370" y="445" type="line"/>
      <point x="275" y="401" type="line"/>
      <point x="326" y="312" type="line"/>
      <point x="269" y="269" type="line"/>
      <point x="197" y="345" type="line"/>
      <point x="127" y="269" type="line"/>
    </contour>
  </outline>
</glyph>
<glyph name="plus" format="1">
  <advance width="453"/>
  <unicode hex="002B"/>
  <outline>
    <contour>
      <point x="174" y="226" type="line"/>
      <point x="28" y="226" type="line"/>
      <point x="28" y="326" type="line"/>
      <point x="174" y="326" type="line"/>
      <point x="174" y="477" type="line"/>
      <point x="278" y="477" type="line"/>
      <point x="278" y="326" type="line"/>
      <point x="423" y="326" type="line"/>
      <point x="423" y="226" type="line"/>
      <point x="278" y="226" type="line"/>
      <point x="278" y="75" type="line"/>
      <point x="174" y="75" type="line"/>
    </contour>
  </outline>
</glyph>
<glyph name="comma" format="1">
  <advance width="269"/>
  <unicode hex="002C"/>
  <outline>
    <contour>
      <point x="38" y="-96" type="line"/>
      <point x="105" y="-73"/>
      <point x="139" y="-34"/>
      <point x="139" y="7" type="curve"/>
      <point x="134" y="7" type="line" smooth="yes"/>
      <point x="90" y="7"/>
      <point x="50" y="35"/>
      <point x="50" y="85" type="curve" smooth="yes"/>
      <point x="50" y="132"/>
      <point x="87" y="164"/>
      <point x="138" y="164" type="curve" smooth="yes"/>
      <point x="200" y="164"/>
      <point x="232" y="117"/>
      <point x="232" y="33" type="curve" smooth="yes"/>
      <point x="232" y="-66"/>
      <point x="176" y="-140"/>
      <point x="67" y="-172" type="curve"/>
    </contour>
  </outline>
</glyph>
<glyph name="hyphen" format="1">
  <advance width="285"/>
  <unicode hex="002D"/>
  <outline>
    <contour>
      <point x="37" y="264" type="line"/>
      <point x="248" y="264" type="line"/>
      <point x="248" y="163" type="line"/>
      <point x="37" y="163" type="line"/>
    </contour>
  </outline>
</glyph>
<glyph name="period" format="1">
  <advance width="269"/>
  <unicode hex="002E"/>
  <outline>
    <contour>
      <point x="50" y="77" type="curve" smooth="yes"/>
      <point x="50" y="126"/>
      <point x="84" y="164"/>
      <point x="134" y="164" type="curve" smooth="yes"/>
      <point x="183" y="164"/>
      <point x="218" y="126"/>
      <point x="218" y="77" type="curve" smooth="yes"/>
      <point x="218" y="27"/>
      <point x="183" y="-10"/>
      <point x="134" y="-10" type="curve" smooth="yes"/>
      <point x="84" y="-10"/>
      <point x="50" y="27"/>
    </contour>
  </outline>
</glyph>
<glyph name="slash" format="1">
  <advance width="280"/>
  <unicode hex="002F"/>
  <outline>
    <contour>
      <point x="159" y="595" type="line"/>
      <point x="251" y="595" type="line"/>
      <point x="104" y="-134" type="line"/>
      <point x="12" y="-134" type="line"/>
    </contour>
  </outline>
</glyph>
<glyph name="zero" format="1">
  <advance width="453"/>
  <unicode hex="0030"/>
  <outline>
    <contour>
      <point x="226" y="-10" type="curve" smooth="yes"/>
      <point x="109" y="-10"/>
      <point x="28" y="87"/>
      <point x="28" y="269" type="curve" smooth="yes"/>
      <point x="28" y="450"/>
      <point x="109" y="541"/>
      <point x="226" y="541" type="curve" smooth="yes"/>
      <point x="344" y="541"/>
      <point x="423" y="449"/>
      <point x="423" y="269" type="curve" smooth="yes"/>
      <point x="423" y="87"/>
      <point x="344" y="-10"/>
    </contour>
    <contour>
      <point x="226" y="101" type="curve" smooth="yes"/>
      <point x="260" y="101"/>
      <point x="288" y="127"/>
      <point x="288" y="269" type="curve" smooth="yes"/>
      <point x="288" y="409"/>
      <point x="260" y="431"/>
      <point x="226" y="431" type="curve" smooth="yes"/>
      <point x="193" y="431"/>
      <point x="164" y="409"/>
      <point x="164" y="269" type="curve" smooth="yes"/>
      <point x="164" y="127"/>
      <point x="193" y="101"/>
    </contour>
  </outline>
</glyph>
<glyph name="one" format="1">
  <advance width="453"/>
  <unicode hex="0031"/>
  <outline>
    <contour>
      <point x="55" y="116" type="line"/>
      <point x="170" y="116" type="line"/>
      <point x="170" y="390" type="line"/>
      <point x="69" y="390" type="line"/>
      <point x="69" y="479" type="line"/>
      <point x="129" y="492"/>
      <point x="168" y="506"/>
      <point x="208" y="531" type="curve"/>
      <point x="314" y="531" type="line"/>
      <point x="314" y="116" type="line"/>
      <point x="409" y="116" type="line"/>
      <point x="409" y="0" type="line"/>
      <point x="55" y="0" type="line"/>
    </contour>
  </outline>
</glyph>
<glyph name="two" format="1">
  <advance width="453"/>
  <unicode hex="0032"/>
  <outline>
    <contour>
      <point x="29" y="82" type="line"/>
      <point x="155" y="198"/>
      <point x="253" y="287"/>
      <point x="253" y="359" type="curve" smooth="yes"/>
      <point x="253" y="406"/>
      <point x="227" y="429"/>
      <point x="188" y="429" type="curve" smooth="yes"/>
      <point x="152" y="429"/>
      <point x="126" y="405"/>
      <point x="101" y="379" type="curve"/>
      <point x="24" y="456" type="line"/>
      <point x="79" y="514"/>
      <point x="128" y="541"/>
      <point x="208" y="541" type="curve" smooth="yes"/>
      <point x="315" y="541"/>
      <point x="390" y="472"/>
      <point x="390" y="367" type="curve" smooth="yes"/>
      <point x="390" y="282"/>
      <point x="309" y="188"/>
      <point x="238" y="114" type="curve"/>
      <point x="265" y="118"/>
      <point x="304" y="121"/>
      <point x="326" y="121" type="curve" smooth="yes"/>
      <point x="416" y="121" type="line"/>
      <point x="416" y="0" type="line"/>
      <point x="29" y="0" type="line"/>
    </contour>
  </outline>
</glyph>
<glyph name="three" format="1">
  <advance width="453"/>
  <unicode hex="0033"/>
  <outline>
    <contour>
      <point x="82" y="156" type="line"/>
      <point x="115" y="125"/>
      <point x="154" y="105"/>
      <point x="191" y="105" type="curve" smooth="yes"/>
      <point x="238" y="105"/>
      <point x="269" y="122"/>
      <point x="269" y="156" type="curve" smooth="yes"/>
      <point x="269" y="196"/>
      <point x="247" y="220"/>
      <point x="136" y="220" type="curve"/>
      <point x="136" y="320" type="line"/>
      <point x="225" y="320"/>
      <point x="251" y="344"/>
      <point x="251" y="381" type="curve" smooth="yes"/>
      <point x="251" y="414"/>
      <point x="232" y="429"/>
      <point x="196" y="429" type="curve" smooth="yes"/>
      <point x="160" y="429"/>
      <point x="136" y="415"/>
      <point x="102" y="385" type="curve"/>
      <point x="29" y="473" type="line"/>
      <point x="83" y="515"/>
      <point x="137" y="541"/>
      <point x="203" y="541" type="curve" smooth="yes"/>
      <point x="320" y="541"/>
      <point x="396" y="488"/>
      <point x="396" y="391" type="curve" smooth="yes"/>
      <point x="396" y="340"/>
      <point x="367" y="302"/>
      <point x="310" y="276" type="curve"/>
      <point x="310" y="272" type="line"/>
      <point x="370" y="254"/>
      <point x="413" y="214"/>
      <point x="413" y="146" type="curve" smooth="yes"/>
      <point x="413" y="46"/>
      <point x="317" y="-10"/>
      <point x="206" y="-10" type="curve" smooth="yes"/>
      <point x="120" y="-10"/>
      <point x="57" y="19"/>
      <point x="17" y="65" type="curve"/>
    </contour>
  </outline>
</glyph>
<glyph name="four" format="1">
  <advance width="453"/>
  <unicode hex="0034"/>
  <outline>
    <contour>
      <point x="243" y="228" type="line"/>
      <point x="243" y="288" type="line" smooth="yes"/>
      <point x="243" y="324"/>
      <point x="246" y="378"/>
      <point x="248" y="415" type="curve"/>
      <point x="245" y="415" type="line"/>
      <point x="231" y="381"/>
      <point x="217" y="351"/>
      <point x="201" y="318" type="curve"/>
      <point x="153" y="228" type="line"/>
    </contour>
    <contour>
      <point x="434" y="120" type="line"/>
      <point x="377" y="120" type="line"/>
      <point x="377" y="0" type="line"/>
      <point x="243" y="0" type="line"/>
      <point x="243" y="120" type="line"/>
      <point x="17" y="120" type="line"/>
      <point x="17" y="220" type="line"/>
      <point x="197" y="531" type="line"/>
      <point x="377" y="531" type="line"/>
      <point x="377" y="228" type="line"/>
      <point x="434" y="228" type="line"/>
    </contour>
  </outline>
</glyph>
<glyph name="five" format="1">
  <advance width="453"/>
  <unicode hex="0035"/>
  <outline>
    <contour>
      <point x="82" y="156" type="line"/>
      <point x="115" y="126"/>
      <point x="150" y="105"/>
      <point x="189" y="105" type="curve" smooth="yes"/>
      <point x="239" y="105"/>
      <point x="269" y="127"/>
      <point x="269" y="174" type="curve" smooth="yes"/>
      <point x="269" y="220"/>
      <point x="238" y="243"/>
      <point x="196" y="243" type="curve" smooth="yes"/>
      <point x="168" y="243"/>
      <point x="155" y="238"/>
      <point x="122" y="218" type="curve"/>
      <point x="61" y="258" type="line"/>
      <point x="73" y="531" type="line"/>
      <point x="389" y="531" type="line"/>
      <point x="389" y="411" type="line"/>
      <point x="197" y="411" type="line"/>
      <point x="191" y="333" type="line"/>
      <point x="211" y="340"/>
      <point x="223" y="342"/>
      <point x="241" y="342" type="curve" smooth="yes"/>
      <point x="332" y="342"/>
      <point x="413" y="288"/>
      <point x="413" y="177" type="curve" smooth="yes"/>
      <point x="413" y="59"/>
      <point x="318" y="-10"/>
      <point x="212" y="-10" type="curve" smooth="yes"/>
      <point x="123" y="-10"/>
      <point x="63" y="22"/>
      <point x="19" y="65" type="curve"/>
    </contour>
  </outline>
</glyph>
<glyph name="six" format="1">
  <advance width="453"/>
  <unicode hex="0036"/>
  <outline>
    <contour>
      <point x="236" y="97" type="curve" smooth="yes"/>
      <point x="267" y="97"/>
      <point x="293" y="115"/>
      <point x="293" y="171" type="curve" smooth="yes"/>
      <point x="293" y="221"/>
      <point x="265" y="234"/>
      <point x="234" y="234" type="curve" smooth="yes"/>
      <point x="211" y="234"/>
      <point x="186" y="221"/>
      <point x="167" y="189" type="curve"/>
      <point x="177" y="115"/>
      <point x="211" y="97"/>
    </contour>
    <contour>
      <point x="342" y="389" type="line"/>
      <point x="325" y="408"/>
      <point x="291" y="425"/>
      <point x="262" y="425" type="curve" smooth="yes"/>
      <point x="211" y="425"/>
      <point x="168" y="389"/>
      <point x="163" y="282" type="curve"/>
      <point x="190" y="317"/>
      <point x="233" y="335"/>
      <point x="264" y="335" type="curve" smooth="yes"/>
      <point x="354" y="335"/>
      <point x="423" y="285"/>
      <point x="423" y="171" type="curve" smooth="yes"/>
      <point x="423" y="57"/>
      <point x="340" y="-10"/>
      <point x="239" y="-10" type="curve" smooth="yes"/>
      <point x="137" y="-10"/>
      <point x="31" y="65"/>
      <point x="31" y="256" type="curve" smooth="yes"/>
      <point x="31" y="448"/>
      <point x="138" y="541"/>
      <point x="251" y="541" type="curve" smooth="yes"/>
      <point x="327" y="541"/>
      <point x="381" y="511"/>
      <point x="417" y="474" type="curve"/>
    </contour>
  </outline>
</glyph>
<glyph name="seven" format="1">
  <advance width="453"/>
  <unicode hex="0037"/>
  <outline>
    <contour>
      <point x="127" y="0" type="line"/>
      <point x="137" y="167"/>
      <point x="167" y="274"/>
      <point x="265" y="411" type="curve"/>
      <point x="37" y="411" type="line"/>
      <point x="37" y="531" type="line"/>
      <point x="417" y="531" type="line"/>
      <point x="417" y="442" type="line"/>
      <point x="295" y="300"/>
      <point x="280" y="206"/>
      <point x="271" y="0" type="curve"/>
    </contour>
  </outline>
</glyph>
<glyph name="eight" format="1">
  <advance width="453"/>
  <unicode hex="0038"/>
  <outline>
    <contour>
      <point x="158" y="153" type="curve" smooth="yes"/>
      <point x="158" y="110"/>
      <point x="191" y="88"/>
      <point x="228" y="88" type="curve" smooth="yes"/>
      <point x="261" y="88"/>
      <point x="286" y="104"/>
      <point x="286" y="144" type="curve" smooth="yes"/>
      <point x="286" y="182"/>
      <point x="249" y="197"/>
      <point x="186" y="224" type="curve"/>
      <point x="171" y="205"/>
      <point x="158" y="179"/>
    </contour>
    <contour>
      <point x="256" y="317" type="curve"/>
      <point x="271" y="339"/>
      <point x="280" y="362"/>
      <point x="280" y="383" type="curve" smooth="yes"/>
      <point x="280" y="420"/>
      <point x="260" y="442"/>
      <point x="226" y="442" type="curve" smooth="yes"/>
      <point x="200" y="442"/>
      <point x="177" y="427"/>
      <point x="177" y="390" type="curve" smooth="yes"/>
      <point x="177" y="355"/>
      <point x="206" y="337"/>
    </contour>
    <contour>
      <point x="35" y="136" type="curve" smooth="yes"/>
      <point x="35" y="198"/>
      <point x="72" y="234"/>
      <point x="122" y="262" type="curve"/>
      <point x="122" y="265" type="line"/>
      <point x="79" y="297"/>
      <point x="52" y="334"/>
      <point x="52" y="390" type="curve" smooth="yes"/>
      <point x="52" y="484"/>
      <point x="125" y="541"/>
      <point x="230" y="541" type="curve" smooth="yes"/>
      <point x="327" y="541"/>
      <point x="396" y="484"/>
      <point x="396" y="394" type="curve" smooth="yes"/>
      <point x="396" y="344"/>
      <point x="365" y="307"/>
      <point x="327" y="282" type="curve"/>
      <point x="327" y="279" type="line"/>
      <point x="381" y="251"/>
      <point x="418" y="210"/>
      <point x="418" y="139" type="curve" smooth="yes"/>
      <point x="418" y="54"/>
      <point x="342" y="-10"/>
      <point x="224" y="-10" type="curve" smooth="yes"/>
      <point x="117" y="-10"/>
      <point x="35" y="48"/>
    </contour>
  </outline>
</glyph>
<glyph name="nine" format="1">
  <advance width="453"/>
  <unicode hex="0039"/>
  <outline>
    <contour>
      <point x="216" y="297" type="curve" smooth="yes"/>
      <point x="240" y="297"/>
      <point x="265" y="309"/>
      <point x="284" y="342" type="curve"/>
      <point x="272" y="416"/>
      <point x="240" y="434"/>
      <point x="214" y="434" type="curve" smooth="yes"/>
      <point x="184" y="434"/>
      <point x="158" y="416"/>
      <point x="158" y="361" type="curve" smooth="yes"/>
      <point x="158" y="310"/>
      <point x="186" y="297"/>
    </contour>
    <contour>
      <point x="109" y="142" type="line"/>
      <point x="125" y="122"/>
      <point x="159" y="105"/>
      <point x="189" y="105" type="curve" smooth="yes"/>
      <point x="241" y="105"/>
      <point x="283" y="141"/>
      <point x="288" y="249" type="curve"/>
      <point x="261" y="214"/>
      <point x="217" y="196"/>
      <point x="188" y="196" type="curve" smooth="yes"/>
      <point x="97" y="196"/>
      <point x="27" y="247"/>
      <point x="27" y="361" type="curve" smooth="yes"/>
      <point x="27" y="474"/>
      <point x="111" y="541"/>
      <point x="212" y="541" type="curve" smooth="yes"/>
      <point x="314" y="541"/>
      <point x="418" y="466"/>
      <point x="418" y="274" type="curve" smooth="yes"/>
      <point x="418" y="83"/>
      <point x="314" y="-10"/>
      <point x="199" y="-10" type="curve" smooth="yes"/>
      <point x="122" y="-10"/>
      <point x="70" y="21"/>
      <point x="33" y="57" type="curve"/>
    </contour>
  </outline>
</glyph>
<glyph name="greater" format="1">
  <advance width="453"/>
  <unicode hex="003E"/>
  <outline>
    <contour>
      <point x="423" y="230" type="line"/>
      <point x="28" y="79" type="line"/>
      <point x="28" y="196" type="line"/>
      <point x="164" y="238" type="line"/>
      <point x="278" y="276" type="line"/>
      <point x="278" y="280" type="line"/>
      <point x="164" y="318" type="line"/>
      <point x="28" y="361" type="line"/>
      <point x="28" y="477" type="line"/>
      <point x="423" y="326" type="line"/>
    </contour>
  </outline>
</glyph>
<glyph name="question" format="1">
  <advance width="400"/>
  <unicode hex="003F"/>
  <outline>
    <contour>
      <point x="127" y="205" type="line"/>
      <point x="111" y="314"/>
      <point x="230" y="362"/>
      <point x="230" y="415" type="curve" smooth="yes"/>
      <point x="230" y="444"/>
      <point x="209" y="456"/>
      <point x="182" y="456" type="curve" smooth="yes"/>
      <point x="154" y="456"/>
      <point x="137" y="440"/>
      <point x="114" y="420" type="curve"/>
      <point x="35" y="493" type="line"/>
      <point x="74" y="540"/>
      <point x="129" y="571"/>
      <point x="193" y="571" type="curve" smooth="yes"/>
      <point x="289" y="571"/>
      <point x="367" y="529"/>
      <point x="367" y="423" type="curve" smooth="yes"/>
      <point x="367" y="323"/>
      <point x="243" y="296"/>
      <point x="253" y="205" type="curve"/>
    </contour>
    <contour>
      <point x="105" y="77" type="curve" smooth="yes"/>
      <point x="105" y="126"/>
      <point x="139" y="164"/>
      <point x="189" y="164" type="curve" smooth="yes"/>
      <point x="238" y="164"/>
      <point x="272" y="126"/>
      <point x="272" y="77" type="curve" smooth="yes"/>
      <point x="272" y="27"/>
      <point x="238" y="-10"/>
      <point x="189" y="-10" type="curve" smooth="yes"/>
      <point x="139" y="-10"/>
      <point x="105" y="27"/>
    </contour>
  </outline>
</glyph>
<glyph name="at" format="1">
  <advance width="774"/>
  <unicode hex="0040"/>
  <outline>
    <contour>
      <point x="40" y="172" type="curve" smooth="yes"/>
      <point x="40" y="411"/>
      <point x="217" y="567"/>
      <point x="429" y="567" type="curve" smooth="yes"/>
      <point x="615" y="567"/>
      <point x="734" y="440"/>
      <point x="734" y="262" type="curve" smooth="yes"/>
      <point x="734" y="105"/>
      <point x="626" y="28"/>
      <point x="534" y="28" type="curve" smooth="yes"/>
      <point x="484" y="28"/>
      <point x="444" y="52"/>
      <point x="434" y="92" type="curve"/>
      <point x="432" y="92" type="line"/>
      <point x="411" y="59"/>
      <point x="366" y="37"/>
      <point x="331" y="37" type="curve" smooth="yes"/>
      <point x="263" y="37"/>
      <point x="218" y="88"/>
      <point x="218" y="166" type="curve" smooth="yes"/>
      <point x="218" y="272"/>
      <point x="294" y="375"/>
      <point x="390" y="375" type="curve" smooth="yes"/>
      <point x="417" y="375"/>
      <point x="439" y="364"/>
      <point x="453" y="333" type="curve"/>
      <point x="455" y="333" type="line"/>
      <point x="467" y="368" type="line"/>
      <point x="555" y="368" type="line"/>
      <point x="514" y="177" type="line"/>
      <point x="505" y="137"/>
      <point x="515" y="116"/>
      <point x="549" y="116" type="curve" smooth="yes"/>
      <point x="600" y="116"/>
      <point x="645" y="172"/>
      <point x="645" y="258" type="curve" smooth="yes"/>
      <point x="645" y="371"/>
      <point x="587" y="482"/>
      <point x="417" y="482" type="curve" smooth="yes"/>
      <point x="276" y="482"/>
      <point x="136" y="362"/>
      <point x="136" y="176" type="curve" smooth="yes"/>
      <point x="136" y="11"/>
      <point x="253" y="-64"/>
      <point x="379" y="-64" type="curve" smooth="yes"/>
      <point x="418" y="-64"/>
      <point x="469" y="-50"/>
      <point x="503" y="-33" type="curve"/>
      <point x="532" y="-111" type="line"/>
      <point x="480" y="-138"/>
      <point x="427" y="-149"/>
      <point x="367" y="-149" type="curve" smooth="yes"/>
      <point x="196" y="-149"/>
      <point x="40" y="-48"/>
    </contour>
    <contour>
      <point x="325" y="174" type="curve" smooth="yes"/>
      <point x="325" y="141"/>
      <point x="338" y="125"/>
      <point x="364" y="125" type="curve" smooth="yes"/>
      <point x="380" y="125"/>
      <point x="391" y="133"/>
      <point x="411" y="159" type="curve"/>
      <point x="429" y="265" type="line"/>
      <point x="422" y="277"/>
      <point x="412" y="285"/>
      <point x="396" y="285" type="curve" smooth="yes"/>
      <point x="352" y="285"/>
      <point x="325" y="220"/>
    </contour>
  </outline>
</glyph>
<glyph name="A" format="1">
  <advance width="490"/>
  <unicode hex="0041"/>
  <outline>
    <contour>
      <point x="292" y="227" type="line"/>
      <point x="283" y="265" type="line" smooth="yes"/>
      <point x="269" y="318"/>
      <point x="256" y="382"/>
      <point x="243" y="437" type="curve"/>
      <point x="239" y="437" type="line"/>
      <point x="227" y="381"/>
      <point x="214" y="318"/>
      <point x="201" y="265" type="curve" smooth="yes"/>
      <point x="192" y="227" type="line"/>
    </contour>
    <contour>
      <point x="318" y="116" type="line"/>
      <point x="166" y="116" type="line"/>
      <point x="139" y="0" type="line"/>
      <point x="-9" y="0" type="line"/>
      <point x="158" y="545" type="line"/>
      <point x="331" y="545" type="line"/>
      <point x="498" y="0" type="line"/>
      <point x="345" y="0" type="line"/>
    </contour>
    <contour>
      <point x="241" y="563" type="move" name="mark0"/>
    </contour>
    <contour>
      <point x="241" y="-19" type="move" name="mark0"/>
    </contour>
    <contour>
      <point x="406" y="0" type="move" name="mark0"/>
    </contour>
  </outline>
</glyph>
<glyph name="B" format="1">
  <advance width="513"/>
  <unicode hex="0042"/>
  <outline>
    <contour>
      <point x="61" y="545" type="line"/>
      <point x="256" y="545" type="line" smooth="yes"/>
      <point x="370" y="545"/>
      <point x="463" y="515"/>
      <point x="463" y="409" type="curve" smooth="yes"/>
      <point x="463" y="363"/>
      <point x="436" y="307"/>
      <point x="372" y="291" type="curve"/>
      <point x="372" y="288" type="line"/>
      <point x="449" y="271"/>
      <point x="488" y="233"/>
      <point x="488" y="161" type="curve" smooth="yes"/>
      <point x="488" y="48"/>
      <point x="390" y="0"/>
      <point x="272" y="0" type="curve" smooth="yes"/>
      <point x="61" y="0" type="line"/>
    </contour>
    <contour>
      <point x="253" y="330" type="line" smooth="yes"/>
      <point x="300" y="330"/>
      <point x="322" y="354"/>
      <point x="322" y="387" type="curve" smooth="yes"/>
      <point x="322" y="420"/>
      <point x="300" y="434"/>
      <point x="253" y="434" type="curve" smooth="yes"/>
      <point x="205" y="434" type="line"/>
      <point x="205" y="330" type="line"/>
    </contour>
    <contour>
      <point x="264" y="111" type="line" smooth="yes"/>
      <point x="319" y="111"/>
      <point x="347" y="131"/>
      <point x="347" y="172" type="curve" smooth="yes"/>
      <point x="347" y="214"/>
      <point x="320" y="230"/>
      <point x="264" y="230" type="curve" smooth="yes"/>
      <point x="205" y="230" type="line"/>
      <point x="205" y="111" type="line"/>
    </contour>
    <contour>
      <point x="255" y="563" type="move" name="mark0"/>
    </contour>
    <contour>
      <point x="269" y="-19" type="move" name="mark0"/>
    </contour>
  </outline>
</glyph>
<glyph name="C" format="1">
  <advance width="491"/>
  <unicode hex="0043"/>
  <outline>
    <contour>
      <point x="37" y="269" type="curve" smooth="yes"/>
      <point x="37" y="451"/>
      <point x="163" y="555"/>
      <point x="304" y="555" type="curve" smooth="yes"/>
      <point x="372" y="555"/>
      <point x="430" y="522"/>
      <point x="469" y="482" type="curve"/>
      <point x="390" y="394" type="line"/>
      <point x="364" y="417"/>
      <point x="341" y="431"/>
      <point x="306" y="431" type="curve" smooth="yes"/>
      <point x="239" y="431"/>
      <point x="184" y="371"/>
      <point x="184" y="272" type="curve" smooth="yes"/>
      <point x="184" y="171"/>
      <point x="231" y="114"/>
      <point x="302" y="114" type="curve" smooth="yes"/>
      <point x="344" y="114"/>
      <point x="373" y="131"/>
      <point x="398" y="158" type="curve"/>
      <point x="475" y="71" type="line"/>
      <point x="429" y="17"/>
      <point x="367" y="-10"/>
      <point x="300" y="-10" type="curve" smooth="yes"/>
      <point x="157" y="-10"/>
      <point x="37" y="82"/>
    </contour>
    <contour>
      <point x="291" y="563" type="move" name="mark0"/>
    </contour>
    <contour>
      <point x="295" y="0" type="move" name="mark0"/>
    </contour>
    <contour>
      <point x="295" y="-19" type="move" name="mark0"/>
    </contour>
  </outline>
</glyph>
<glyph name="D" format="1">
  <advance width="538"/>
  <unicode hex="0044"/>
  <outline>
    <contour>
      <point x="61" y="545" type="line"/>
      <point x="221" y="545" type="line" smooth="yes"/>
      <point x="386" y="545"/>
      <point x="501" y="466"/>
      <point x="501" y="274" type="curve" smooth="yes"/>
      <point x="501" y="83"/>
      <point x="387" y="0"/>
      <point x="230" y="0" type="curve" smooth="yes"/>
      <point x="61" y="0" type="line"/>
    </contour>
    <contour>
      <point x="214" y="116" type="line" smooth="yes"/>
      <point x="291" y="116"/>
      <point x="354" y="147"/>
      <point x="354" y="274" type="curve" smooth="yes"/>
      <point x="354" y="402"/>
      <point x="291" y="429"/>
      <point x="214" y="429" type="curve" smooth="yes"/>
      <point x="205" y="429" type="line"/>
      <point x="205" y="116" type="line"/>
    </contour>
    <contour>
      <point x="269" y="563" type="move" name="mark0"/>
    </contour>
    <contour>
      <point x="265" y="-19" type="move" name="mark0"/>
    </contour>
  </outline>
</glyph>
<glyph name="E" format="1">
  <advance width="465"/>
  <unicode hex="0045"/>
  <outline>
    <contour>
      <point x="61" y="545" type="line"/>
      <point x="413" y="545" type="line"/>
      <point x="413" y="423" type="line"/>
      <point x="205" y="423" type="line"/>
      <point x="205" y="339" type="line"/>
      <point x="381" y="339" type="line"/>
      <point x="381" y="218" type="line"/>
      <point x="205" y="218" type="line"/>
      <point x="205" y="121" type="line"/>
      <point x="420" y="121" type="line"/>
      <point x="420" y="0" type="line"/>
      <point x="61" y="0" type="line"/>
    </contour>
    <contour>
      <point x="243" y="563" type="move" name="mark0"/>
    </contour>
    <contour>
      <point x="247" y="-19" type="move" name="mark0"/>
    </contour>
    <contour>
      <point x="331" y="0" type="move" name="mark0"/>
    </contour>
  </outline>
</glyph>
<glyph name="F" format="1">
  <advance width="449"/>
  <unicode hex="0046"/>
  <outline>
    <contour>
      <point x="61" y="545" type="line"/>
      <point x="416" y="545" type="line"/>
      <point x="416" y="423" type="line"/>
      <point x="205" y="423" type="line"/>
      <point x="205" y="320" type="line"/>
      <point x="385" y="320" type="line"/>
      <point x="385" y="199" type="line"/>
      <point x="205" y="199" type="line"/>
      <point x="205" y="0" type="line"/>
      <point x="61" y="0" type="line"/>
    </contour>
    <contour>
      <point x="243" y="563" type="move" name="mark0"/>
    </contour>
    <contour>
      <point x="140" y="-19" type="move" name="mark0"/>
    </contour>
  </outline>
</glyph>
<glyph name="G" format="1">
  <advance width="541"/>
  <unicode hex="0047"/>
  <outline>
    <contour>
      <point x="37" y="269" type="curve" smooth="yes"/>
      <point x="37" y="451"/>
      <point x="162" y="555"/>
      <point x="312" y="555" type="curve" smooth="yes"/>
      <point x="389" y="555"/>
      <point x="447" y="522"/>
      <point x="486" y="482" type="curve"/>
      <point x="407" y="394" type="line"/>
      <point x="381" y="417"/>
      <point x="357" y="431"/>
      <point x="314" y="431" type="curve" smooth="yes"/>
      <point x="239" y="431"/>
      <point x="184" y="371"/>
      <point x="184" y="272" type="curve" smooth="yes"/>
      <point x="184" y="171"/>
      <point x="229" y="114"/>
      <point x="326" y="114" type="curve" smooth="yes"/>
      <point x="343" y="114"/>
      <point x="359" y="118"/>
      <point x="368" y="123" type="curve"/>
      <point x="368" y="199" type="line"/>
      <point x="288" y="199" type="line"/>
      <point x="288" y="317" type="line"/>
      <point x="496" y="317" type="line"/>
      <point x="496" y="57" type="line"/>
      <point x="456" y="21"/>
      <point x="385" y="-10"/>
      <point x="308" y="-10" type="curve" smooth="yes"/>
      <point x="158" y="-10"/>
      <point x="37" y="82"/>
    </contour>
    <contour>
      <point x="312" y="563" type="move" name="mark0"/>
    </contour>
    <contour>
      <point x="308" y="-19" type="move" name="mark0"/>
    </contour>
  </outline>
</glyph>
<glyph name="H" format="1">
  <advance width="571"/>
  <unicode hex="0048"/>
  <outline>
    <contour>
      <point x="61" y="545" type="line"/>
      <point x="205" y="545" type="line"/>
      <point x="205" y="342" type="line"/>
      <point x="367" y="342" type="line"/>
      <point x="367" y="545" type="line"/>
      <point x="512" y="545" type="line"/>
      <point x="512" y="0" type="line"/>
      <point x="367" y="0" type="line"/>
      <point x="367" y="216" type="line"/>
      <point x="205" y="216" type="line"/>
      <point x="205" y="0" type="line"/>
      <point x="61" y="0" type="line"/>
    </contour>
    <contour>
      <point x="285" y="563" type="move" name="mark0"/>
    </contour>
    <contour>
      <point x="285" y="-19" type="move" name="mark0"/>
    </contour>
  </outline>
</glyph>
<glyph name="J" format="1">
  <advance width="436"/>
  <unicode hex="004A"/>
  <outline>
    <contour>
      <point x="105" y="166" type="line"/>
      <point x="124" y="129"/>
      <point x="151" y="114"/>
      <point x="174" y="114" type="curve" smooth="yes"/>
      <point x="213" y="114"/>
      <point x="234" y="131"/>
      <point x="234" y="201" type="curve" smooth="yes"/>
      <point x="234" y="545" type="line"/>
      <point x="379" y="545" type="line"/>
      <point x="379" y="189" type="line" smooth="yes"/>
      <point x="379" y="80"/>
      <point x="319" y="-10"/>
      <point x="195" y="-10" type="curve" smooth="yes"/>
      <point x="104" y="-10"/>
      <point x="48" y="23"/>
      <point x="9" y="93" type="curve"/>
    </contour>
    <contour>
      <point x="306" y="563" type="move" name="mark0"/>
    </contour>
    <contour>
      <point x="231" y="-19" type="move" name="mark0"/>
    </contour>
  </outline>
</glyph>
<glyph name="K" format="1">
  <advance width="526"/>
  <unicode hex="004B"/>
  <outline>
    <contour>
      <point x="61" y="545" type="line"/>
      <point x="205" y="545" type="line"/>
      <point x="205" y="342" type="line"/>
      <point x="208" y="342" type="line"/>
      <point x="345" y="545" type="line"/>
      <point x="503" y="545" type="line"/>
      <point x="340" y="323" type="line"/>
      <point x="534" y="0" type="line"/>
      <point x="377" y="0" type="line"/>
      <point x="256" y="210" type="line"/>
      <point x="205" y="136" type="line"/>
      <point x="205" y="0" type="line"/>
      <point x="61" y="0" type="line"/>
    </contour>
    <contour>
      <point x="269" y="563" type="move" name="mark0"/>
    </contour>
    <contour>
      <point x="280" y="-19" type="move" name="mark0"/>
    </contour>
  </outline>
</glyph>
<glyph name="L" format="1">
  <advance width="444"/>
  <unicode hex="004C"/>
  <outline>
    <contour>
      <point x="61" y="545" type="line"/>
      <point x="205" y="545" type="line"/>
      <point x="205" y="121" type="line"/>
      <point x="411" y="121" type="line"/>
      <point x="411" y="0" type="line"/>
      <point x="61" y="0" type="line"/>
    </contour>
    <contour>
      <point x="136" y="563" type="move" name="mark0"/>
    </contour>
    <contour>
      <point x="244" y="-19" type="move" name="mark0"/>
    </contour>
  </outline>
</glyph>
<glyph name="M" format="1">
  <advance width="650"/>
  <unicode hex="004D"/>
  <outline>
    <contour>
      <point x="61" y="545" type="line"/>
      <point x="210" y="545" type="line"/>
      <point x="295" y="318" type="line"/>
      <point x="325" y="230" type="line"/>
      <point x="328" y="230" type="line"/>
      <point x="359" y="318" type="line"/>
      <point x="440" y="545" type="line"/>
      <point x="590" y="545" type="line"/>
      <point x="590" y="0" type="line"/>
      <point x="456" y="0" type="line"/>
      <point x="456" y="161" type="line" smooth="yes"/>
      <point x="456" y="216"/>
      <point x="467" y="302"/>
      <point x="474" y="356" type="curve"/>
      <point x="471" y="356" type="line"/>
      <point x="425" y="228" type="line"/>
      <point x="350" y="45" type="line"/>
      <point x="297" y="45" type="line"/>
      <point x="221" y="228" type="line"/>
      <point x="177" y="356" type="line"/>
      <point x="174" y="356" type="line"/>
      <point x="180" y="302"/>
      <point x="193" y="216"/>
      <point x="193" y="161" type="curve" smooth="yes"/>
      <point x="193" y="0" type="line"/>
      <point x="61" y="0" type="line"/>
    </contour>
    <contour>
      <point x="325" y="563" type="move" name="mark0"/>
    </contour>
    <contour>
      <point x="326" y="-19" type="move" name="mark0"/>
    </contour>
  </outline>
</glyph>
<glyph name="N" format="1">
  <advance width="563"/>
  <unicode hex="004E"/>
  <outline>
    <contour>
      <point x="61" y="545" type="line"/>
      <point x="208" y="545" type="line"/>
      <point x="328" y="302" type="line"/>
      <point x="381" y="179" type="line"/>
      <point x="383" y="179" type="line"/>
      <point x="377" y="238"/>
      <point x="365" y="321"/>
      <point x="365" y="387" type="curve" smooth="yes"/>
      <point x="365" y="545" type="line"/>
      <point x="503" y="545" type="line"/>
      <point x="503" y="0" type="line"/>
      <point x="356" y="0" type="line"/>
      <point x="234" y="244" type="line"/>
      <point x="182" y="365" type="line"/>
      <point x="179" y="365" type="line"/>
      <point x="186" y="303"/>
      <point x="197" y="224"/>
      <point x="197" y="158" type="curve" smooth="yes"/>
      <point x="197" y="0" type="line"/>
      <point x="61" y="0" type="line"/>
    </contour>
    <contour>
      <point x="281" y="563" type="move" name="mark0"/>
    </contour>
    <contour>
      <point x="293" y="-19" type="move" name="mark0"/>
    </contour>
  </outline>
</glyph>
<glyph name="O" format="1">
  <advance width="580"/>
  <unicode hex="004F"/>
  <outline>
    <contour>
      <point x="289" y="-10" type="curve" smooth="yes"/>
      <point x="139" y="-10"/>
      <point x="37" y="96"/>
      <point x="37" y="274" type="curve" smooth="yes"/>
      <point x="37" y="455"/>
      <point x="139" y="555"/>
      <point x="289" y="555" type="curve" smooth="yes"/>
      <point x="440" y="555"/>
      <point x="543" y="454"/>
      <point x="543" y="274" type="curve" smooth="yes"/>
      <point x="543" y="96"/>
      <point x="440" y="-10"/>
    </contour>
    <contour>
      <point x="289" y="114" type="curve" smooth="yes"/>
      <point x="356" y="114"/>
      <point x="396" y="175"/>
      <point x="396" y="274" type="curve" smooth="yes"/>
      <point x="396" y="374"/>
      <point x="356" y="431"/>
      <point x="289" y="431" type="curve" smooth="yes"/>
      <point x="223" y="431"/>
      <point x="184" y="374"/>
      <point x="184" y="274" type="curve" smooth="yes"/>
      <point x="184" y="175"/>
      <point x="223" y="114"/>
    </contour>
    <contour>
      <point x="289" y="563" type="move" name="mark0"/>
    </contour>
    <contour>
      <point x="289" y="-19" type="move" name="mark0"/>
    </contour>
    <contour>
      <point x="411" y="536" type="move" name="mark0"/>
    </contour>
    <contour>
      <point x="289" y="0" type="move" name="mark0"/>
    </contour>
  </outline>
</glyph>
<glyph name="P" format="1">
  <advance width="517"/>
  <unicode hex="0050"/>
  <outline>
    <contour>
      <point x="61" y="545" type="line"/>
      <point x="271" y="545" type="line" smooth="yes"/>
      <point x="389" y="545"/>
      <point x="490" y="501"/>
      <point x="490" y="364" type="curve" smooth="yes"/>
      <point x="490" y="230"/>
      <point x="385" y="172"/>
      <point x="271" y="172" type="curve" smooth="yes"/>
      <point x="205" y="172" type="line"/>
      <point x="205" y="0" type="line"/>
      <point x="61" y="0" type="line"/>
    </contour>
    <contour>
      <point x="265" y="287" type="line" smooth="yes"/>
      <point x="322" y="287"/>
      <point x="348" y="314"/>
      <point x="348" y="364" type="curve" smooth="yes"/>
      <point x="348" y="414"/>
      <point x="318" y="431"/>
      <point x="265" y="431" type="curve" smooth="yes"/>
      <point x="205" y="431" type="line"/>
      <point x="205" y="287" type="line"/>
    </contour>
    <contour>
      <point x="269" y="563" type="move" name="mark0"/>
    </contour>
    <contour>
      <point x="142" y="-19" type="move" name="mark0"/>
    </contour>
  </outline>
</glyph>
<glyph name="Q" format="1">
  <advance width="580"/>
  <unicode hex="0051"/>
  <outline>
    <contour>
      <point x="289" y="431" type="curve" smooth="yes"/>
      <point x="223" y="431"/>
      <point x="184" y="374"/>
      <point x="184" y="274" type="curve" smooth="yes"/>
      <point x="184" y="167"/>
      <point x="223" y="107"/>
      <point x="289" y="107" type="curve" smooth="yes"/>
      <point x="356" y="107"/>
      <point x="396" y="167"/>
      <point x="396" y="274" type="curve" smooth="yes"/>
      <point x="396" y="374"/>
      <point x="356" y="431"/>
    </contour>
    <contour>
      <point x="578" y="-134" type="line"/>
      <point x="556" y="-147"/>
      <point x="521" y="-155"/>
      <point x="474" y="-155" type="curve" smooth="yes"/>
      <point x="350" y="-155"/>
      <point x="268" y="-92"/>
      <point x="224" y="-3" type="curve"/>
      <point x="111" y="24"/>
      <point x="37" y="122"/>
      <point x="37" y="274" type="curve" smooth="yes"/>
      <point x="37" y="455"/>
      <point x="139" y="555"/>
      <point x="289" y="555" type="curve" smooth="yes"/>
      <point x="440" y="555"/>
      <point x="543" y="454"/>
      <point x="543" y="274" type="curve" smooth="yes"/>
      <point x="543" y="131"/>
      <point x="479" y="37"/>
      <point x="376" y="4" type="curve"/>
      <point x="402" y="-30"/>
      <point x="450" y="-40"/>
      <point x="491" y="-40" type="curve" smooth="yes"/>
      <point x="514" y="-40"/>
      <point x="536" y="-36"/>
      <point x="553" y="-29" type="curve"/>
    </contour>
    <contour>
      <point x="289" y="563" type="move" name="mark0"/>
    </contour>
  </outline>
</glyph>
<glyph name="R" format="1">
  <advance width="528"/>
  <unicode hex="0052"/>
  <outline>
    <contour>
      <point x="205" y="297" type="line"/>
      <point x="256" y="297" type="line" smooth="yes"/>
      <point x="314" y="297"/>
      <point x="344" y="321"/>
      <point x="344" y="368" type="curve" smooth="yes"/>
      <point x="344" y="416"/>
      <point x="314" y="431"/>
      <point x="256" y="431" type="curve" smooth="yes"/>
      <point x="205" y="431" type="line"/>
    </contour>
    <contour>
      <point x="354" y="0" type="line"/>
      <point x="260" y="182" type="line"/>
      <point x="205" y="182" type="line"/>
      <point x="205" y="0" type="line"/>
      <point x="61" y="0" type="line"/>
      <point x="61" y="545" type="line"/>
      <point x="267" y="545" type="line" smooth="yes"/>
      <point x="383" y="545"/>
      <point x="484" y="506"/>
      <point x="484" y="368" type="curve" smooth="yes"/>
      <point x="484" y="290"/>
      <point x="450" y="240"/>
      <point x="397" y="212" type="curve"/>
      <point x="514" y="0" type="line"/>
    </contour>
    <contour>
      <point x="265" y="563" type="move" name="mark0"/>
    </contour>
    <contour>
      <point x="280" y="-19" type="move" name="mark0"/>
    </contour>
  </outline>
</glyph>
<glyph name="S" format="1">
  <advance width="473"/>
  <unicode hex="0053"/>
  <outline>
    <contour>
      <point x="109" y="167" type="line"/>
      <point x="148" y="136"/>
      <point x="196" y="114"/>
      <point x="236" y="114" type="curve" smooth="yes"/>
      <point x="280" y="114"/>
      <point x="298" y="128"/>
      <point x="298" y="153" type="curve" smooth="yes"/>
      <point x="298" y="178"/>
      <point x="270" y="188"/>
      <point x="224" y="205" type="curve"/>
      <point x="157" y="233" type="line"/>
      <point x="98" y="256"/>
      <point x="46" y="307"/>
      <point x="46" y="385" type="curve" smooth="yes"/>
      <point x="46" y="478"/>
      <point x="131" y="555"/>
      <point x="250" y="555" type="curve" smooth="yes"/>
      <point x="313" y="555"/>
      <point x="381" y="531"/>
      <point x="431" y="481" type="curve"/>
      <point x="359" y="391" type="line"/>
      <point x="322" y="417"/>
      <point x="289" y="431"/>
      <point x="250" y="431" type="curve" smooth="yes"/>
      <point x="214" y="431"/>
      <point x="193" y="418"/>
      <point x="193" y="394" type="curve" smooth="yes"/>
      <point x="193" y="367"/>
      <point x="222" y="359"/>
      <point x="272" y="339" type="curve" smooth="yes"/>
      <point x="339" y="314" type="line" smooth="yes"/>
      <point x="407" y="287"/>
      <point x="446" y="240"/>
      <point x="446" y="164" type="curve" smooth="yes"/>
      <point x="446" y="72"/>
      <point x="368" y="-10"/>
      <point x="232" y="-10" type="curve" smooth="yes"/>
      <point x="163" y="-10"/>
      <point x="86" y="14"/>
      <point x="27" y="68" type="curve"/>
    </contour>
    <contour>
      <point x="248" y="563" type="move" name="mark0"/>
    </contour>
    <contour>
      <point x="236" y="0" type="move" name="mark0"/>
    </contour>
    <contour>
      <point x="236" y="-19" type="move" name="mark0"/>
    </contour>
  </outline>
</glyph>
<glyph name="T" format="1">
  <advance width="473"/>
  <unicode hex="0054"/>
  <outline>
    <contour>
      <point x="164" y="423" type="line"/>
      <point x="21" y="423" type="line"/>
      <point x="21" y="545" type="line"/>
      <point x="453" y="545" type="line"/>
      <point x="453" y="423" type="line"/>
      <point x="308" y="423" type="line"/>
      <point x="308" y="0" type="line"/>
      <point x="164" y="0" type="line"/>
    </contour>
    <contour>
      <point x="236" y="563" type="move" name="mark0"/>
    </contour>
    <contour>
      <point x="236" y="0" type="move" name="mark0"/>
    </contour>
    <contour>
      <point x="236" y="-19" type="move" name="mark0"/>
    </contour>
  </outline>
</glyph>
<glyph name="U" format="1">
  <advance width="563"/>
  <unicode hex="0055"/>
  <outline>
    <contour>
      <point x="57" y="545" type="line"/>
      <point x="201" y="545" type="line"/>
      <point x="201" y="247" type="line" smooth="yes"/>
      <point x="201" y="149"/>
      <point x="226" y="114"/>
      <point x="283" y="114" type="curve" smooth="yes"/>
      <point x="340" y="114"/>
      <point x="367" y="149"/>
      <point x="367" y="247" type="curve" smooth="yes"/>
      <point x="367" y="545" type="line"/>
      <point x="507" y="545" type="line"/>
      <point x="507" y="264" type="line" smooth="yes"/>
      <point x="507" y="76"/>
      <point x="435" y="-10"/>
      <point x="283" y="-10" type="curve" smooth="yes"/>
      <point x="129" y="-10"/>
      <point x="57" y="76"/>
      <point x="57" y="264" type="curve" smooth="yes"/>
    </contour>
    <contour>
      <point x="281" y="563" type="move" name="mark0"/>
    </contour>
    <contour>
      <point x="281" y="-19" type="move" name="mark0"/>
    </contour>
    <contour>
      <point x="463" y="553" type="move" name="mark0"/>
    </contour>
    <contour>
      <point x="281" y="0" type="move" name="mark0"/>
    </contour>
  </outline>
</glyph>
<glyph name="V" format="1">
  <advance width="479"/>
  <unicode hex="0056"/>
  <outline>
    <contour>
      <point x="-9" y="545" type="line"/>
      <point x="144" y="545" type="line"/>
      <point x="201" y="307" type="line"/>
      <point x="217" y="249"/>
      <point x="225" y="194"/>
      <point x="241" y="134" type="curve"/>
      <point x="245" y="134" type="line"/>
      <point x="261" y="194"/>
      <point x="270" y="249"/>
      <point x="285" y="307" type="curve"/>
      <point x="340" y="545" type="line"/>
      <point x="488" y="545" type="line"/>
      <point x="326" y="0" type="line"/>
      <point x="153" y="0" type="line"/>
    </contour>
    <contour>
      <point x="239" y="563" type="move" name="mark0"/>
    </contour>
    <contour>
      <point x="236" y="-19" type="move" name="mark0"/>
    </contour>
  </outline>
</glyph>
<glyph name="W" format="1">
  <advance width="691"/>
  <unicode hex="0057"/>
  <outline>
    <contour>
      <point x="9" y="545" type="line"/>
      <point x="156" y="545" type="line"/>
      <point x="186" y="307" type="line"/>
      <point x="205" y="136" type="line"/>
      <point x="208" y="136" type="line"/>
      <point x="238" y="307" type="line"/>
      <point x="289" y="545" type="line"/>
      <point x="411" y="545" type="line"/>
      <point x="463" y="307" type="line"/>
      <point x="473" y="252"/>
      <point x="482" y="194"/>
      <point x="493" y="136" type="curve"/>
      <point x="496" y="136" type="line"/>
      <point x="514" y="307" type="line"/>
      <point x="545" y="545" type="line"/>
      <point x="682" y="545" type="line"/>
      <point x="591" y="0" type="line"/>
      <point x="409" y="0" type="line"/>
      <point x="367" y="216" type="line"/>
      <point x="358" y="259"/>
      <point x="353" y="304"/>
      <point x="347" y="344" type="curve"/>
      <point x="344" y="344" type="line"/>
      <point x="338" y="304"/>
      <point x="332" y="259"/>
      <point x="323" y="216" type="curve"/>
      <point x="283" y="0" type="line"/>
      <point x="104" y="0" type="line"/>
    </contour>
    <contour>
      <point x="345" y="563" type="move" name="mark0"/>
    </contour>
    <contour>
      <point x="347" y="-19" type="move" name="mark0"/>
    </contour>
  </outline>
</glyph>
<glyph name="X" format="1">
  <advance width="493"/>
  <unicode hex="0058"/>
  <outline>
    <contour>
      <point x="156" y="280" type="line"/>
      <point x="17" y="545" type="line"/>
      <point x="177" y="545" type="line"/>
      <point x="214" y="456" type="line"/>
      <point x="227" y="430"/>
      <point x="237" y="401"/>
      <point x="253" y="365" type="curve"/>
      <point x="256" y="365" type="line"/>
      <point x="269" y="401"/>
      <point x="280" y="430"/>
      <point x="289" y="456" type="curve"/>
      <point x="322" y="545" type="line"/>
      <point x="475" y="545" type="line"/>
      <point x="337" y="272" type="line"/>
      <point x="484" y="0" type="line"/>
      <point x="323" y="0" type="line"/>
      <point x="280" y="97" type="line" smooth="yes"/>
      <point x="267" y="126"/>
      <point x="255" y="155"/>
      <point x="241" y="188" type="curve"/>
      <point x="238" y="188" type="line"/>
      <point x="225" y="155"/>
      <point x="215" y="126"/>
      <point x="203" y="97" type="curve" smooth="yes"/>
      <point x="163" y="0" type="line"/>
      <point x="9" y="0" type="line"/>
    </contour>
    <contour>
      <point x="247" y="563" type="move" name="mark0"/>
    </contour>
    <contour>
      <point x="236" y="-19" type="move" name="mark0"/>
    </contour>
  </outline>
</glyph>
<glyph name="Y" format="1">
  <advance width="456"/>
  <unicode hex="0059"/>
  <outline>
    <contour>
      <point x="156" y="188" type="line"/>
      <point x="-9" y="545" type="line"/>
      <point x="146" y="545" type="line"/>
      <point x="186" y="431" type="line"/>
      <point x="199" y="389"/>
      <point x="214" y="352"/>
      <point x="227" y="309" type="curve"/>
      <point x="230" y="309" type="line"/>
      <point x="245" y="352"/>
      <point x="259" y="389"/>
      <point x="272" y="431" type="curve" smooth="yes"/>
      <point x="314" y="545" type="line"/>
      <point x="465" y="545" type="line"/>
      <point x="300" y="188" type="line"/>
      <point x="300" y="0" type="line"/>
      <point x="156" y="0" type="line"/>
    </contour>
    <contour>
      <point x="228" y="563" type="move" name="mark0"/>
    </contour>
    <contour>
      <point x="230" y="-19" type="move" name="mark0"/>
    </contour>
  </outline>
</glyph>
<glyph name="Z" format="1">
  <advance width="455"/>
  <unicode hex="005A"/>
  <outline>
    <contour>
      <point x="27" y="87" type="line"/>
      <point x="250" y="423" type="line"/>
      <point x="48" y="423" type="line"/>
      <point x="48" y="545" type="line"/>
      <point x="427" y="545" type="line"/>
      <point x="427" y="457" type="line"/>
      <point x="205" y="121" type="line"/>
      <point x="429" y="121" type="line"/>
      <point x="429" y="0" type="line"/>
      <point x="27" y="0" type="line"/>
    </contour>
    <contour>
      <point x="238" y="563" type="move" name="mark0"/>
    </contour>
    <contour>
      <point x="236" y="-19" type="move" name="mark0"/>
    </contour>
  </outline>
</glyph>
<glyph name="bracketleft" format="1">
  <advance width="302"/>
  <unicode hex="005B"/>
  <outline>
    <contour>
      <point x="71" y="593" type="line"/>
      <point x="258" y="593" type="line"/>
      <point x="258" y="517" type="line"/>
      <point x="177" y="517" type="line"/>
      <point x="177" y="-52" type="line"/>
      <point x="258" y="-52" type="line"/>
      <point x="258" y="-127" type="line"/>
      <point x="71" y="-127" type="line"/>
    </contour>
  </outline>
</glyph>
<glyph name="backslash" format="1">
  <advance width="280"/>
  <unicode hex="005C"/>
  <outline>
    <contour>
      <point x="28" y="595" type="line"/>
      <point x="121" y="595" type="line"/>
      <point x="269" y="-134" type="line"/>
      <point x="176" y="-134" type="line"/>
    </contour>
  </outline>
</glyph>
<glyph name="bracketright" format="1">
  <advance width="302"/>
  <unicode hex="005D"/>
  <outline>
    <contour>
      <point x="123" y="-52" type="line"/>
      <point x="123" y="517" type="line"/>
      <point x="44" y="517" type="line"/>
      <point x="44" y="593" type="line"/>
      <point x="231" y="593" type="line"/>
      <point x="231" y="-127" type="line"/>
      <point x="44" y="-127" type="line"/>
      <point x="44" y="-52" type="line"/>
    </contour>
  </outline>
</glyph>
<glyph name="asciicircum" format="1">
  <advance width="453"/>
  <unicode hex="005E"/>
  <outline>
    <contour>
      <point x="170" y="562" type="line"/>
      <point x="283" y="562" type="line"/>
      <point x="415" y="226" type="line"/>
      <point x="297" y="226" type="line"/>
      <point x="265" y="318" type="line"/>
      <point x="228" y="432" type="line"/>
      <point x="224" y="432" type="line"/>
      <point x="188" y="318" type="line"/>
      <point x="156" y="226" type="line"/>
      <point x="38" y="226" type="line"/>
    </contour>
  </outline>
</glyph>
<glyph name="underscore" format="1">
  <advance width="418"/>
  <unicode hex="005F"/>
  <outline>
    <contour>
      <point x="409" y="-44" type="line"/>
      <point x="409" y="-122" type="line"/>
      <point x="10" y="-122" type="line"/>
      <point x="10" y="-44" type="line"/>
    </contour>
  </outline>
</glyph>
<glyph name="a" format="1">
  <advance width="455"/>
  <unicode hex="0061"/>
  <outline>
    <contour>
      <point x="35" y="120" type="curve" smooth="yes"/>
      <point x="35" y="206"/>
      <point x="102" y="255"/>
      <point x="264" y="271" type="curve"/>
      <point x="260" y="301"/>
      <point x="240" y="315"/>
      <point x="205" y="315" type="curve" smooth="yes"/>
      <point x="174" y="315"/>
      <point x="142" y="304"/>
      <point x="99" y="280" type="curve"/>
      <point x="48" y="373" type="line"/>
      <point x="108" y="410"/>
      <point x="167" y="429"/>
      <point x="232" y="429" type="curve" smooth="yes"/>
      <point x="341" y="429"/>
      <point x="407" y="370"/>
      <point x="407" y="232" type="curve" smooth="yes"/>
      <point x="407" y="0" type="line"/>
      <point x="289" y="0" type="line"/>
      <point x="280" y="40" type="line"/>
      <point x="276" y="40" type="line"/>
      <point x="243" y="10"/>
      <point x="207" y="-10"/>
      <point x="161" y="-10" type="curve" smooth="yes"/>
      <point x="82" y="-10"/>
      <point x="35" y="49"/>
    </contour>
    <contour>
      <point x="172" y="130" type="curve" smooth="yes"/>
      <point x="172" y="111"/>
      <point x="185" y="101"/>
      <point x="212" y="101" type="curve" smooth="yes"/>
      <point x="234" y="101"/>
      <point x="247" y="113"/>
      <point x="264" y="129" type="curve"/>
      <point x="264" y="186" type="line"/>
      <point x="194" y="176"/>
      <point x="172" y="155"/>
    </contour>
    <contour>
      <point x="238" y="437" type="move" name="mark0"/>
    </contour>
    <contour>
      <point x="224" y="-19" type="move" name="mark0"/>
    </contour>
    <contour>
      <point x="361" y="0" type="move" name="mark0"/>
    </contour>
  </outline>
</glyph>
<glyph name="b" format="1">
  <advance width="486"/>
  <unicode hex="0062"/>
  <outline>
    <contour>
      <point x="48" y="583" type="line"/>
      <point x="193" y="583" type="line"/>
      <point x="193" y="448" type="line"/>
      <point x="189" y="387" type="line"/>
      <point x="219" y="415"/>
      <point x="255" y="429"/>
      <point x="292" y="429" type="curve" smooth="yes"/>
      <point x="390" y="429"/>
      <point x="456" y="345"/>
      <point x="456" y="217" type="curve" smooth="yes"/>
      <point x="456" y="72"/>
      <point x="371" y="-10"/>
      <point x="281" y="-10" type="curve" smooth="yes"/>
      <point x="245" y="-10"/>
      <point x="209" y="9"/>
      <point x="176" y="46" type="curve"/>
      <point x="172" y="46" type="line"/>
      <point x="161" y="0" type="line"/>
      <point x="48" y="0" type="line"/>
    </contour>
    <contour>
      <point x="193" y="127" type="line"/>
      <point x="210" y="112"/>
      <point x="227" y="107"/>
      <point x="247" y="107" type="curve" smooth="yes"/>
      <point x="280" y="107"/>
      <point x="308" y="134"/>
      <point x="308" y="214" type="curve" smooth="yes"/>
      <point x="308" y="284"/>
      <point x="288" y="312"/>
      <point x="250" y="312" type="curve" smooth="yes"/>
      <point x="227" y="312"/>
      <point x="213" y="305"/>
      <point x="193" y="281" type="curve"/>
    </contour>
    <contour>
      <point x="122" y="612" type="move" name="mark0"/>
    </contour>
    <contour>
      <point x="249" y="-19" type="move" name="mark0"/>
    </contour>
  </outline>
</glyph>
<glyph name="c" format="1">
  <advance width="396"/>
  <unicode hex="0063"/>
  <outline>
    <contour>
      <point x="27" y="210" type="curve" smooth="yes"/>
      <point x="27" y="348"/>
      <point x="133" y="429"/>
      <point x="251" y="429" type="curve" smooth="yes"/>
      <point x="302" y="429"/>
      <point x="344" y="412"/>
      <point x="373" y="381" type="curve"/>
      <point x="308" y="293" type="line"/>
      <point x="288" y="309"/>
      <point x="275" y="314"/>
      <point x="260" y="314" type="curve" smooth="yes"/>
      <point x="206" y="314"/>
      <point x="174" y="272"/>
      <point x="174" y="210" type="curve" smooth="yes"/>
      <point x="174" y="146"/>
      <point x="209" y="105"/>
      <point x="255" y="105" type="curve" smooth="yes"/>
      <point x="281" y="105"/>
      <point x="303" y="120"/>
      <point x="322" y="132" type="curve"/>
      <point x="379" y="42" type="line"/>
      <point x="336" y="5"/>
      <point x="281" y="-10"/>
      <point x="238" y="-10" type="curve" smooth="yes"/>
      <point x="121" y="-10"/>
      <point x="27" y="71"/>
    </contour>
    <contour>
      <point x="243" y="437" type="move" name="mark0"/>
    </contour>
    <contour>
      <point x="231" y="0" type="move" name="mark0"/>
    </contour>
    <contour>
      <point x="231" y="-19" type="move" name="mark0"/>
    </contour>
  </outline>
</glyph>
<glyph name="d" format="1">
  <advance width="486"/>
  <unicode hex="0064"/>
  <outline>
    <contour>
      <point x="29" y="210" type="curve" smooth="yes"/>
      <point x="29" y="347"/>
      <point x="116" y="429"/>
      <point x="201" y="429" type="curve" smooth="yes"/>
      <point x="247" y="429"/>
      <point x="271" y="414"/>
      <point x="298" y="387" type="curve"/>
      <point x="293" y="448" type="line"/>
      <point x="293" y="583" type="line"/>
      <point x="437" y="583" type="line"/>
      <point x="437" y="0" type="line"/>
      <point x="320" y="0" type="line"/>
      <point x="310" y="38" type="line"/>
      <point x="307" y="38" type="line"/>
      <point x="277" y="9"/>
      <point x="238" y="-10"/>
      <point x="201" y="-10" type="curve" smooth="yes"/>
      <point x="97" y="-10"/>
      <point x="29" y="73"/>
    </contour>
    <contour>
      <point x="177" y="212" type="curve" smooth="yes"/>
      <point x="177" y="135"/>
      <point x="200" y="107"/>
      <point x="239" y="107" type="curve" smooth="yes"/>
      <point x="263" y="107"/>
      <point x="277" y="114"/>
      <point x="293" y="138" type="curve"/>
      <point x="293" y="291" type="line"/>
      <point x="276" y="307"/>
      <point x="255" y="312"/>
      <point x="236" y="312" type="curve" smooth="yes"/>
      <point x="206" y="312"/>
      <point x="177" y="285"/>
    </contour>
    <contour>
      <point x="347" y="612" type="move" name="mark0"/>
    </contour>
    <contour>
      <point x="265" y="-19" type="move" name="mark0"/>
    </contour>
  </outline>
</glyph>
<glyph name="e" format="1">
  <advance width="440"/>
  <unicode hex="0065"/>
  <outline>
    <contour>
      <point x="27" y="210" type="curve" smooth="yes"/>
      <point x="27" y="346"/>
      <point x="125" y="429"/>
      <point x="228" y="429" type="curve" smooth="yes"/>
      <point x="351" y="429"/>
      <point x="411" y="338"/>
      <point x="411" y="226" type="curve" smooth="yes"/>
      <point x="411" y="200"/>
      <point x="407" y="179"/>
      <point x="405" y="170" type="curve"/>
      <point x="166" y="170" type="line"/>
      <point x="179" y="116"/>
      <point x="216" y="99"/>
      <point x="264" y="99" type="curve" smooth="yes"/>
      <point x="292" y="99"/>
      <point x="318" y="107"/>
      <point x="348" y="123" type="curve"/>
      <point x="396" y="38" type="line"/>
      <point x="349" y="6"/>
      <point x="289" y="-10"/>
      <point x="243" y="-10" type="curve" smooth="yes"/>
      <point x="121" y="-10"/>
      <point x="27" y="71"/>
    </contour>
    <contour>
      <point x="288" y="256" type="line"/>
      <point x="288" y="292"/>
      <point x="274" y="320"/>
      <point x="231" y="320" type="curve" smooth="yes"/>
      <point x="198" y="320"/>
      <point x="173" y="304"/>
      <point x="164" y="256" type="curve"/>
    </contour>
    <contour>
      <point x="228" y="437" type="move" name="mark0"/>
    </contour>
    <contour>
      <point x="228" y="-19" type="move" name="mark0"/>
    </contour>
    <contour>
      <point x="335" y="0" type="move" name="mark0"/>
    </contour>
  </outline>
</glyph>
<glyph name="f" format="1">
  <advance width="302"/>
  <unicode hex="0066"/>
  <outline>
    <contour>
      <point x="304" y="473" type="line"/>
      <point x="289" y="478"/>
      <point x="274" y="481"/>
      <point x="262" y="481" type="curve" smooth="yes"/>
      <point x="234" y="481"/>
      <point x="218" y="468"/>
      <point x="218" y="429" type="curve" smooth="yes"/>
      <point x="218" y="418" type="line"/>
      <point x="288" y="418" type="line"/>
      <point x="288" y="307" type="line"/>
      <point x="218" y="307" type="line"/>
      <point x="218" y="0" type="line"/>
      <point x="73" y="0" type="line"/>
      <point x="73" y="307" type="line"/>
      <point x="19" y="307" type="line"/>
      <point x="19" y="415" type="line"/>
      <point x="73" y="418" type="line"/>
      <point x="73" y="423" type="line" smooth="yes"/>
      <point x="73" y="514"/>
      <point x="116" y="593"/>
      <point x="239" y="593" type="curve" smooth="yes"/>
      <point x="279" y="593"/>
      <point x="309" y="585"/>
      <point x="328" y="578" type="curve"/>
    </contour>
    <contour>
      <point x="193" y="621" type="move" name="mark0"/>
    </contour>
    <contour>
      <point x="146" y="-19" type="move" name="mark0"/>
    </contour>
  </outline>
</glyph>
<glyph name="g" format="1">
  <advance width="457"/>
  <unicode hex="0067"/>
  <outline>
    <contour>
      <point x="142" y="-46" type="curve" smooth="yes"/>
      <point x="142" y="-72"/>
      <point x="175" y="-84"/>
      <point x="224" y="-84" type="curve" smooth="yes"/>
      <point x="271" y="-84"/>
      <point x="307" y="-69"/>
      <point x="307" y="-46" type="curve" smooth="yes"/>
      <point x="307" y="-23"/>
      <point x="287" y="-21"/>
      <point x="251" y="-21" type="curve" smooth="yes"/>
      <point x="218" y="-21" type="line" smooth="yes"/>
      <point x="184" y="-21"/>
      <point x="171" y="-19"/>
      <point x="158" y="-15" type="curve"/>
      <point x="147" y="-25"/>
      <point x="142" y="-32"/>
    </contour>
    <contour>
      <point x="25" y="-69" type="curve" smooth="yes"/>
      <point x="25" y="-36"/>
      <point x="45" y="-10"/>
      <point x="83" y="12" type="curve"/>
      <point x="83" y="15" type="line"/>
      <point x="62" y="30"/>
      <point x="46" y="51"/>
      <point x="46" y="87" type="curve" smooth="yes"/>
      <point x="46" y="117"/>
      <point x="63" y="146"/>
      <point x="92" y="166" type="curve"/>
      <point x="92" y="170" type="line"/>
      <point x="63" y="189"/>
      <point x="35" y="227"/>
      <point x="35" y="276" type="curve" smooth="yes"/>
      <point x="35" y="381"/>
      <point x="122" y="429"/>
      <point x="214" y="429" type="curve" smooth="yes"/>
      <point x="238" y="429"/>
      <point x="262" y="425"/>
      <point x="281" y="418" type="curve"/>
      <point x="437" y="418" type="line"/>
      <point x="437" y="315" type="line"/>
      <point x="377" y="315" type="line"/>
      <point x="381" y="306"/>
      <point x="383" y="288"/>
      <point x="383" y="271" type="curve" smooth="yes"/>
      <point x="383" y="173"/>
      <point x="308" y="132"/>
      <point x="214" y="132" type="curve" smooth="yes"/>
      <point x="200" y="132"/>
      <point x="185" y="134"/>
      <point x="168" y="138" type="curve"/>
      <point x="158" y="130"/>
      <point x="158" y="126"/>
      <point x="158" y="114" type="curve" smooth="yes"/>
      <point x="158" y="95"/>
      <point x="173" y="88"/>
      <point x="216" y="88" type="curve" smooth="yes"/>
      <point x="279" y="88" type="line" smooth="yes"/>
      <point x="383" y="88"/>
      <point x="444" y="57"/>
      <point x="444" y="-21" type="curve" smooth="yes"/>
      <point x="444" y="-112"/>
      <point x="350" y="-172"/>
      <point x="201" y="-172" type="curve" smooth="yes"/>
      <point x="105" y="-172"/>
      <point x="25" y="-145"/>
    </contour>
    <contour>
      <point x="214" y="218" type="curve" smooth="yes"/>
      <point x="241" y="218"/>
      <point x="260" y="236"/>
      <point x="260" y="276" type="curve" smooth="yes"/>
      <point x="260" y="316"/>
      <point x="241" y="333"/>
      <point x="214" y="333" type="curve" smooth="yes"/>
      <point x="188" y="333"/>
      <point x="170" y="316"/>
      <point x="170" y="276" type="curve" smooth="yes"/>
      <point x="170" y="236"/>
      <point x="188" y="218"/>
    </contour>
    <contour>
      <point x="231" y="437" type="move" name="mark0"/>
    </contour>
    <contour>
      <point x="209" y="-192" type="move" name="mark0"/>
    </contour>
  </outline>
</glyph>
<glyph name="h" format="1">
  <advance width="488"/>
  <unicode hex="0068"/>
  <outline>
    <contour>
      <point x="48" y="583" type="line"/>
      <point x="193" y="583" type="line"/>
      <point x="193" y="448" type="line"/>
      <point x="186" y="375" type="line"/>
      <point x="215" y="401"/>
      <point x="255" y="429"/>
      <point x="312" y="429" type="curve" smooth="yes"/>
      <point x="403" y="429"/>
      <point x="442" y="363"/>
      <point x="442" y="258" type="curve" smooth="yes"/>
      <point x="442" y="0" type="line"/>
      <point x="298" y="0" type="line"/>
      <point x="298" y="239" type="line" smooth="yes"/>
      <point x="298" y="293"/>
      <point x="286" y="307"/>
      <point x="256" y="307" type="curve" smooth="yes"/>
      <point x="230" y="307"/>
      <point x="215" y="295"/>
      <point x="193" y="274" type="curve"/>
      <point x="193" y="0" type="line"/>
      <point x="48" y="0" type="line"/>
    </contour>
    <contour>
      <point x="120" y="612" type="move" name="mark0"/>
    </contour>
    <contour>
      <point x="248" y="-19" type="move" name="mark0"/>
    </contour>
  </outline>
</glyph>
<glyph name="i" format="1">
  <advance width="241"/>
  <unicode hex="0069"/>
  <outline>
    <contour>
      <point x="121" y="471" type="curve" smooth="yes"/>
      <point x="73" y="471"/>
      <point x="40" y="500"/>
      <point x="40" y="543" type="curve" smooth="yes"/>
      <point x="40" y="586"/>
      <point x="73" y="615"/>
      <point x="121" y="615" type="curve" smooth="yes"/>
      <point x="168" y="615"/>
      <point x="201" y="586"/>
      <point x="201" y="543" type="curve" smooth="yes"/>
      <point x="201" y="500"/>
      <point x="168" y="471"/>
    </contour>
    <contour>
      <point x="48" y="418" type="line"/>
      <point x="193" y="418" type="line"/>
      <point x="193" y="0" type="line"/>
      <point x="48" y="0" type="line"/>
    </contour>
    <contour>
      <point x="121" y="614" type="move" name="mark0"/>
    </contour>
    <contour>
      <point x="121" y="-19" type="move" name="mark0"/>
    </contour>
    <contour>
      <point x="159" y="0" type="move" name="mark0"/>
    </contour>
  </outline>
</glyph>
<glyph name="k" format="1">
  <advance width="475"/>
  <unicode hex="006B"/>
  <outline>
    <contour>
      <point x="48" y="583" type="line"/>
      <point x="189" y="583" type="line"/>
      <point x="189" y="272" type="line"/>
      <point x="193" y="272" type="line"/>
      <point x="308" y="418" type="line"/>
      <point x="465" y="418" type="line"/>
      <point x="315" y="245" type="line"/>
      <point x="473" y="0" type="line"/>
      <point x="317" y="0" type="line"/>
      <point x="232" y="149" type="line"/>
      <point x="189" y="101" type="line"/>
      <point x="189" y="0" type="line"/>
      <point x="48" y="0" type="line"/>
    </contour>
    <contour>
      <point x="122" y="612" type="move" name="mark0"/>
    </contour>
    <contour>
      <point x="255" y="-19" type="move" name="mark0"/>
    </contour>
  </outline>
</glyph>
<glyph name="l" format="1">
  <advance width="250"/>
  <unicode hex="006C"/>
  <outline>
    <contour>
      <point x="48" y="583" type="line"/>
      <point x="193" y="583" type="line"/>
      <point x="193" y="142" type="line" smooth="yes"/>
      <point x="193" y="113"/>
      <point x="206" y="105"/>
      <point x="216" y="105" type="curve" smooth="yes"/>
      <point x="221" y="105"/>
      <point x="224" y="104"/>
      <point x="231" y="107" type="curve"/>
      <point x="248" y="2" type="line"/>
      <point x="232" y="-5"/>
      <point x="211" y="-10"/>
      <point x="177" y="-10" type="curve" smooth="yes"/>
      <point x="79" y="-10"/>
      <point x="48" y="54"/>
      <point x="48" y="147" type="curve" smooth="yes"/>
    </contour>
    <contour>
      <point x="121" y="612" type="move" name="mark0"/>
    </contour>
    <contour>
      <point x="121" y="-19" type="move" name="mark0"/>
    </contour>
  </outline>
</glyph>
<glyph name="m" format="1">
  <advance width="727"/>
  <unicode hex="006D"/>
  <outline>
    <contour>
      <point x="48" y="418" type="line"/>
      <point x="166" y="418" type="line"/>
      <point x="176" y="367" type="line"/>
      <point x="179" y="367" type="line"/>
      <point x="214" y="400"/>
      <point x="248" y="429"/>
      <point x="306" y="429" type="curve" smooth="yes"/>
      <point x="363" y="429"/>
      <point x="398" y="406"/>
      <point x="420" y="363" type="curve"/>
      <point x="456" y="398"/>
      <point x="493" y="429"/>
      <point x="549" y="429" type="curve" smooth="yes"/>
      <point x="641" y="429"/>
      <point x="682" y="363"/>
      <point x="682" y="258" type="curve" smooth="yes"/>
      <point x="682" y="0" type="line"/>
      <point x="538" y="0" type="line"/>
      <point x="538" y="239" type="line" smooth="yes"/>
      <point x="538" y="293"/>
      <point x="525" y="307"/>
      <point x="496" y="307" type="curve" smooth="yes"/>
      <point x="478" y="307"/>
      <point x="458" y="296"/>
      <point x="437" y="274" type="curve"/>
      <point x="437" y="0" type="line"/>
      <point x="293" y="0" type="line"/>
      <point x="293" y="239" type="line" smooth="yes"/>
      <point x="293" y="293"/>
      <point x="280" y="307"/>
      <point x="251" y="307" type="curve" smooth="yes"/>
      <point x="233" y="307"/>
      <point x="214" y="296"/>
      <point x="193" y="274" type="curve"/>
      <point x="193" y="0" type="line"/>
      <point x="48" y="0" type="line"/>
    </contour>
    <contour>
      <point x="373" y="437" type="move" name="mark0"/>
    </contour>
    <contour>
      <point x="372" y="-19" type="move" name="mark0"/>
    </contour>
  </outline>
</glyph>
<glyph name="o" format="1">
  <advance width="469"/>
  <unicode hex="006F"/>
  <outline>
    <contour>
      <point x="27" y="210" type="curve" smooth="yes"/>
      <point x="27" y="348"/>
      <point x="126" y="429"/>
      <point x="234" y="429" type="curve" smooth="yes"/>
      <point x="341" y="429"/>
      <point x="442" y="348"/>
      <point x="442" y="210" type="curve" smooth="yes"/>
      <point x="442" y="71"/>
      <point x="341" y="-10"/>
      <point x="234" y="-10" type="curve" smooth="yes"/>
      <point x="126" y="-10"/>
      <point x="27" y="71"/>
    </contour>
    <contour>
      <point x="174" y="210" type="curve" smooth="yes"/>
      <point x="174" y="146"/>
      <point x="191" y="105"/>
      <point x="234" y="105" type="curve" smooth="yes"/>
      <point x="278" y="105"/>
      <point x="295" y="146"/>
      <point x="295" y="210" type="curve" smooth="yes"/>
      <point x="295" y="272"/>
      <point x="278" y="314"/>
      <point x="234" y="314" type="curve" smooth="yes"/>
      <point x="191" y="314"/>
      <point x="174" y="272"/>
    </contour>
    <contour>
      <point x="234" y="437" type="move" name="mark0"/>
    </contour>
    <contour>
      <point x="234" y="-19" type="move" name="mark0"/>
    </contour>
    <contour>
      <point x="314" y="418" type="move" name="mark0"/>
    </contour>
    <contour>
      <point x="280" y="0" type="move" name="mark0"/>
    </contour>
  </outline>
</glyph>
<glyph name="p" format="1">
  <advance width="486"/>
  <unicode hex="0070"/>
  <outline>
    <contour>
      <point x="193" y="-31" type="line"/>
      <point x="193" y="-147" type="line"/>
      <point x="48" y="-147" type="line"/>
      <point x="48" y="418" type="line"/>
      <point x="166" y="418" type="line"/>
      <point x="176" y="381" type="line"/>
      <point x="179" y="381" type="line"/>
      <point x="211" y="410"/>
      <point x="251" y="429"/>
      <point x="293" y="429" type="curve" smooth="yes"/>
      <point x="392" y="429"/>
      <point x="456" y="346"/>
      <point x="456" y="216" type="curve" smooth="yes"/>
      <point x="456" y="72"/>
      <point x="371" y="-10"/>
      <point x="281" y="-10" type="curve" smooth="yes"/>
      <point x="247" y="-10"/>
      <point x="215" y="4"/>
      <point x="188" y="31" type="curve"/>
    </contour>
    <contour>
      <point x="193" y="127" type="line"/>
      <point x="210" y="112"/>
      <point x="227" y="107"/>
      <point x="247" y="107" type="curve" smooth="yes"/>
      <point x="280" y="107"/>
      <point x="308" y="134"/>
      <point x="308" y="214" type="curve" smooth="yes"/>
      <point x="308" y="284"/>
      <point x="288" y="312"/>
      <point x="250" y="312" type="curve" smooth="yes"/>
      <point x="227" y="312"/>
      <point x="213" y="305"/>
      <point x="193" y="281" type="curve"/>
    </contour>
    <contour>
      <point x="264" y="437" type="move" name="mark0"/>
    </contour>
    <contour>
      <point x="113" y="-182" type="move" name="mark0"/>
    </contour>
  </outline>
</glyph>
<glyph name="r" format="1">
  <advance width="350"/>
  <unicode hex="0072"/>
  <outline>
    <contour>
      <point x="48" y="418" type="line"/>
      <point x="166" y="418" type="line"/>
      <point x="176" y="347" type="line"/>
      <point x="179" y="347" type="line"/>
      <point x="211" y="404"/>
      <point x="257" y="429"/>
      <point x="298" y="429" type="curve" smooth="yes"/>
      <point x="324" y="429"/>
      <point x="338" y="426"/>
      <point x="350" y="420" type="curve"/>
      <point x="326" y="297" type="line"/>
      <point x="311" y="300"/>
      <point x="299" y="304"/>
      <point x="280" y="304" type="curve" smooth="yes"/>
      <point x="250" y="304"/>
      <point x="214" y="286"/>
      <point x="193" y="232" type="curve"/>
      <point x="193" y="0" type="line"/>
      <point x="48" y="0" type="line"/>
    </contour>
    <contour>
      <point x="216" y="437" type="move" name="mark0"/>
    </contour>
    <contour>
      <point x="121" y="-19" type="move" name="mark0"/>
    </contour>
  </outline>
</glyph>
<glyph name="s" format="1">
  <advance width="379"/>
  <unicode hex="0073"/>
  <outline>
    <contour>
      <point x="79" y="138" type="line"/>
      <point x="117" y="110"/>
      <point x="151" y="96"/>
      <point x="180" y="96" type="curve" smooth="yes"/>
      <point x="212" y="96"/>
      <point x="222" y="104"/>
      <point x="222" y="121" type="curve" smooth="yes"/>
      <point x="222" y="143"/>
      <point x="184" y="152"/>
      <point x="142" y="170" type="curve" smooth="yes"/>
      <point x="93" y="189"/>
      <point x="37" y="223"/>
      <point x="37" y="293" type="curve" smooth="yes"/>
      <point x="37" y="376"/>
      <point x="104" y="429"/>
      <point x="203" y="429" type="curve" smooth="yes"/>
      <point x="271" y="429"/>
      <point x="320" y="401"/>
      <point x="357" y="373" type="curve"/>
      <point x="293" y="288" type="line"/>
      <point x="264" y="311"/>
      <point x="233" y="323"/>
      <point x="208" y="323" type="curve" smooth="yes"/>
      <point x="183" y="323"/>
      <point x="171" y="316"/>
      <point x="171" y="300" type="curve" smooth="yes"/>
      <point x="171" y="277"/>
      <point x="207" y="270"/>
      <point x="250" y="255" type="curve" smooth="yes"/>
      <point x="300" y="236"/>
      <point x="357" y="205"/>
      <point x="357" y="129" type="curve" smooth="yes"/>
      <point x="357" y="50"/>
      <point x="294" y="-10"/>
      <point x="177" y="-10" type="curve" smooth="yes"/>
      <point x="123" y="-10"/>
      <point x="59" y="12"/>
      <point x="15" y="48" type="curve"/>
    </contour>
    <contour>
      <point x="203" y="437" type="move" name="mark0"/>
    </contour>
    <contour>
      <point x="197" y="0" type="move" name="mark0"/>
    </contour>
    <contour>
      <point x="197" y="-19" type="move" name="mark0"/>
    </contour>
  </outline>
</glyph>
<glyph name="t" format="1">
  <advance width="335"/>
  <unicode hex="0074"/>
  <outline>
    <contour>
      <point x="67" y="307" type="line"/>
      <point x="12" y="307" type="line"/>
      <point x="12" y="415" type="line"/>
      <point x="75" y="418" type="line"/>
      <point x="92" y="528" type="line"/>
      <point x="212" y="528" type="line"/>
      <point x="212" y="418" type="line"/>
      <point x="307" y="418" type="line"/>
      <point x="307" y="307" type="line"/>
      <point x="212" y="307" type="line"/>
      <point x="212" y="163" type="line" smooth="yes"/>
      <point x="212" y="117"/>
      <point x="234" y="102"/>
      <point x="262" y="102" type="curve" smooth="yes"/>
      <point x="274" y="102"/>
      <point x="288" y="105"/>
      <point x="298" y="109" type="curve"/>
      <point x="320" y="5" type="line"/>
      <point x="297" y="-2"/>
      <point x="269" y="-10"/>
      <point x="221" y="-10" type="curve" smooth="yes"/>
      <point x="113" y="-10"/>
      <point x="67" y="58"/>
      <point x="67" y="161" type="curve" smooth="yes"/>
    </contour>
    <contour>
      <point x="147" y="557" type="move" name="mark0"/>
    </contour>
    <contour>
      <point x="205" y="0" type="move" name="mark0"/>
    </contour>
    <contour>
      <point x="205" y="-19" type="move" name="mark0"/>
    </contour>
  </outline>
</glyph>
<glyph name="u" format="1">
  <advance width="484"/>
  <unicode hex="0075"/>
  <outline>
    <contour>
      <point x="46" y="418" type="line"/>
      <point x="189" y="418" type="line"/>
      <point x="189" y="179" type="line" smooth="yes"/>
      <point x="189" y="125"/>
      <point x="202" y="113"/>
      <point x="231" y="113" type="curve" smooth="yes"/>
      <point x="258" y="113"/>
      <point x="271" y="122"/>
      <point x="291" y="149" type="curve"/>
      <point x="291" y="418" type="line"/>
      <point x="436" y="418" type="line"/>
      <point x="436" y="0" type="line"/>
      <point x="318" y="0" type="line"/>
      <point x="308" y="55" type="line"/>
      <point x="306" y="55" type="line"/>
      <point x="271" y="15"/>
      <point x="232" y="-10"/>
      <point x="176" y="-10" type="curve" smooth="yes"/>
      <point x="84" y="-10"/>
      <point x="46" y="57"/>
      <point x="46" y="161" type="curve" smooth="yes"/>
    </contour>
    <contour>
      <point x="243" y="437" type="move" name="mark0"/>
    </contour>
    <contour>
      <point x="258" y="-19" type="move" name="mark0"/>
    </contour>
    <contour>
      <point x="367" y="427" type="move" name="mark0"/>
    </contour>
    <contour>
      <point x="390" y="0" type="move" name="mark0"/>
    </contour>
  </outline>
</glyph>
<glyph name="v" format="1">
  <advance width="456"/>
  <unicode hex="0076"/>
  <outline>
    <contour>
      <point x="10" y="418" type="line"/>
      <point x="155" y="418" type="line"/>
      <point x="199" y="236" type="line"/>
      <point x="230" y="105" type="line"/>
      <point x="232" y="105" type="line"/>
      <point x="264" y="236" type="line"/>
      <point x="308" y="418" type="line"/>
      <point x="446" y="418" type="line"/>
      <point x="314" y="0" type="line"/>
      <point x="147" y="0" type="line"/>
    </contour>
    <contour>
      <point x="230" y="437" type="move" name="mark0"/>
    </contour>
    <contour>
      <point x="230" y="-19" type="move" name="mark0"/>
    </contour>
  </outline>
</glyph>
<glyph name="w" format="1">
  <advance width="668"/>
  <unicode hex="0077"/>
  <outline>
    <contour>
      <point x="21" y="418" type="line"/>
      <point x="163" y="418" type="line"/>
      <point x="195" y="243" type="line"/>
      <point x="201" y="200"/>
      <point x="205" y="159"/>
      <point x="212" y="116" type="curve"/>
      <point x="214" y="116" type="line"/>
      <point x="221" y="159"/>
      <point x="228" y="203"/>
      <point x="238" y="243" type="curve"/>
      <point x="276" y="418" type="line"/>
      <point x="399" y="418" type="line"/>
      <point x="439" y="243" type="line" smooth="yes"/>
      <point x="449" y="200"/>
      <point x="456" y="159"/>
      <point x="465" y="116" type="curve"/>
      <point x="467" y="116" type="line"/>
      <point x="474" y="159"/>
      <point x="477" y="200"/>
      <point x="484" y="243" type="curve"/>
      <point x="515" y="418" type="line"/>
      <point x="649" y="418" type="line"/>
      <point x="553" y="0" type="line"/>
      <point x="385" y="0" type="line"/>
      <point x="356" y="146" type="line"/>
      <point x="348" y="185"/>
      <point x="342" y="221"/>
      <point x="335" y="269" type="curve"/>
      <point x="331" y="269" type="line"/>
      <point x="325" y="221"/>
      <point x="320" y="185"/>
      <point x="314" y="146" type="curve"/>
      <point x="285" y="0" type="line"/>
      <point x="121" y="0" type="line"/>
    </contour>
    <contour>
      <point x="335" y="437" type="move" name="mark0"/>
    </contour>
    <contour>
      <point x="335" y="-19" type="move" name="mark0"/>
    </contour>
  </outline>
</glyph>
<glyph name="x" format="1">
  <advance width="453"/>
  <unicode hex="0078"/>
  <outline>
    <contour>
      <point x="138" y="218" type="line"/>
      <point x="19" y="418" type="line"/>
      <point x="172" y="418" type="line"/>
      <point x="203" y="361" type="line"/>
      <point x="236" y="288" type="line"/>
      <point x="239" y="288" type="line"/>
      <point x="247" y="312"/>
      <point x="257" y="337"/>
      <point x="265" y="361" type="curve" smooth="yes"/>
      <point x="285" y="418" type="line"/>
      <point x="434" y="418" type="line"/>
      <point x="315" y="201" type="line"/>
      <point x="440" y="0" type="line"/>
      <point x="287" y="0" type="line"/>
      <point x="253" y="59" type="line" smooth="yes"/>
      <point x="240" y="82"/>
      <point x="229" y="107"/>
      <point x="216" y="130" type="curve"/>
      <point x="214" y="130" type="line"/>
      <point x="184" y="59" type="line"/>
      <point x="161" y="0" type="line"/>
      <point x="12" y="0" type="line"/>
    </contour>
    <contour>
      <point x="226" y="437" type="move" name="mark0"/>
    </contour>
    <contour>
      <point x="226" y="-19" type="move" name="mark0"/>
    </contour>
  </outline>
</glyph>
<glyph name="y" format="1">
  <advance width="455"/>
  <unicode hex="0079"/>
  <outline>
    <contour>
      <point x="72" y="-40" type="line"/>
      <point x="79" y="-43"/>
      <point x="89" y="-46"/>
      <point x="99" y="-46" type="curve" smooth="yes"/>
      <point x="138" y="-46"/>
      <point x="155" y="-29"/>
      <point x="164" y="-4" type="curve"/>
      <point x="170" y="15" type="line"/>
      <point x="10" y="418" type="line"/>
      <point x="155" y="418" type="line"/>
      <point x="205" y="258" type="line" smooth="yes"/>
      <point x="217" y="219"/>
      <point x="224" y="181"/>
      <point x="234" y="139" type="curve"/>
      <point x="238" y="139" type="line"/>
      <point x="247" y="179"/>
      <point x="255" y="218"/>
      <point x="265" y="258" type="curve" smooth="yes"/>
      <point x="307" y="418" type="line"/>
      <point x="444" y="418" type="line"/>
      <point x="304" y="7" type="line"/>
      <point x="259" y="-107"/>
      <point x="214" y="-158"/>
      <point x="111" y="-158" type="curve" smooth="yes"/>
      <point x="81" y="-158"/>
      <point x="66" y="-156"/>
      <point x="46" y="-149" type="curve"/>
    </contour>
    <contour>
      <point x="231" y="437" type="move" name="mark0"/>
    </contour>
    <contour>
      <point x="199" y="-202" type="move" name="mark0"/>
    </contour>
  </outline>
</glyph>
<glyph name="z" format="1">
  <advance width="398"/>
  <unicode hex="007A"/>
  <outline>
    <contour>
      <point x="33" y="77" type="line"/>
      <point x="193" y="307" type="line"/>
      <point x="52" y="307" type="line"/>
      <point x="52" y="418" type="line"/>
      <point x="372" y="418" type="line"/>
      <point x="372" y="342" type="line"/>
      <point x="214" y="113" type="line"/>
      <point x="377" y="113" type="line"/>
      <point x="377" y="0" type="line"/>
      <point x="33" y="0" type="line"/>
    </contour>
    <contour>
      <point x="212" y="437" type="move" name="mark0"/>
    </contour>
    <contour>
      <point x="212" y="-19" type="move" name="mark0"/>
    </contour>
  </outline>
</glyph>
<glyph name="braceleft" format="1">
  <advance width="302"/>
  <unicode hex="007B"/>
  <outline>
    <contour>
      <point x="258" y="-52" type="line"/>
      <point x="258" y="-127" type="line"/>
      <point x="199" y="-127" type="line" smooth="yes"/>
      <point x="122" y="-127"/>
      <point x="88" y="-97"/>
      <point x="88" y="-5" type="curve" smooth="yes"/>
      <point x="88" y="54"/>
      <point x="97" y="79"/>
      <point x="97" y="130" type="curve" smooth="yes"/>
      <point x="97" y="160"/>
      <point x="79" y="188"/>
      <point x="25" y="191" type="curve"/>
      <point x="25" y="274" type="line"/>
      <point x="79" y="277"/>
      <point x="97" y="306"/>
      <point x="97" y="335" type="curve" smooth="yes"/>
      <point x="97" y="387"/>
      <point x="88" y="413"/>
      <point x="88" y="471" type="curve" smooth="yes"/>
      <point x="88" y="563"/>
      <point x="122" y="593"/>
      <point x="199" y="593" type="curve" smooth="yes"/>
      <point x="258" y="593" type="line"/>
      <point x="258" y="517" type="line"/>
      <point x="245" y="517" type="line" smooth="yes"/>
      <point x="214" y="517"/>
      <point x="205" y="510"/>
      <point x="205" y="465" type="curve" smooth="yes"/>
      <point x="205" y="422"/>
      <point x="208" y="384"/>
      <point x="208" y="335" type="curve" smooth="yes"/>
      <point x="208" y="269"/>
      <point x="185" y="245"/>
      <point x="140" y="234" type="curve"/>
      <point x="140" y="231" type="line"/>
      <point x="185" y="221"/>
      <point x="208" y="197"/>
      <point x="208" y="130" type="curve" smooth="yes"/>
      <point x="208" y="81"/>
      <point x="205" y="43"/>
      <point x="205" y="0" type="curve" smooth="yes"/>
      <point x="205" y="-44"/>
      <point x="214" y="-52"/>
      <point x="245" y="-52" type="curve" smooth="yes"/>
    </contour>
  </outline>
</glyph>
<glyph name="braceright" format="1">
  <advance width="302"/>
  <unicode hex="007D"/>
  <outline>
    <contour>
      <point x="57" y="-52" type="line" smooth="yes"/>
      <point x="87" y="-52"/>
      <point x="97" y="-44"/>
      <point x="97" y="0" type="curve" smooth="yes"/>
      <point x="97" y="43"/>
      <point x="94" y="81"/>
      <point x="94" y="130" type="curve" smooth="yes"/>
      <point x="94" y="197"/>
      <point x="117" y="221"/>
      <point x="161" y="231" type="curve"/>
      <point x="161" y="234" type="line"/>
      <point x="117" y="245"/>
      <point x="94" y="269"/>
      <point x="94" y="335" type="curve" smooth="yes"/>
      <point x="94" y="384"/>
      <point x="97" y="422"/>
      <point x="97" y="465" type="curve" smooth="yes"/>
      <point x="97" y="510"/>
      <point x="87" y="517"/>
      <point x="57" y="517" type="curve" smooth="yes"/>
      <point x="44" y="517" type="line"/>
      <point x="44" y="593" type="line"/>
      <point x="102" y="593" type="line" smooth="yes"/>
      <point x="179" y="593"/>
      <point x="214" y="563"/>
      <point x="214" y="471" type="curve" smooth="yes"/>
      <point x="214" y="413"/>
      <point x="205" y="387"/>
      <point x="205" y="335" type="curve" smooth="yes"/>
      <point x="205" y="306"/>
      <point x="222" y="277"/>
      <point x="276" y="274" type="curve"/>
      <point x="276" y="191" type="line"/>
      <point x="222" y="188"/>
      <point x="205" y="160"/>
      <point x="205" y="130" type="curve" smooth="yes"/>
      <point x="205" y="79"/>
      <point x="214" y="54"/>
      <point x="214" y="-5" type="curve" smooth="yes"/>
      <point x="214" y="-97"/>
      <point x="179" y="-127"/>
      <point x="102" y="-127" type="curve" smooth="yes"/>
      <point x="44" y="-127" type="line"/>
      <point x="44" y="-52" type="line"/>
    </contour>
  </outline>
</glyph>
<glyph name="asciitilde" format="1">
  <advance width="453"/>
  <unicode hex="007E"/>
  <outline>
    <contour>
      <point x="22" y="267" type="line"/>
      <point x="68" y="333"/>
      <point x="113" y="357"/>
      <point x="156" y="357" type="curve" smooth="yes"/>
      <point x="225" y="357"/>
      <point x="253" y="297"/>
      <point x="298" y="297" type="curve" smooth="yes"/>
      <point x="321" y="297"/>
      <point x="340" y="314"/>
      <point x="357" y="344" type="curve"/>
      <point x="431" y="287" type="line"/>
      <point x="384" y="220"/>
      <point x="340" y="196"/>
      <point x="297" y="196" type="curve" smooth="yes"/>
      <point x="226" y="196"/>
      <point x="199" y="256"/>
      <point x="155" y="256" type="curve" smooth="yes"/>
      <point x="131" y="256"/>
      <point x="113" y="238"/>
      <point x="96" y="210" type="curve"/>
    </contour>
  </outline>
</glyph>
<glyph name="exclamdown" format="1">
  <advance width="302"/>
  <unicode hex="00A1"/>
  <outline>
    <contour>
      <point x="218" y="-19" type="line"/>
      <point x="222" y="-142" type="line"/>
      <point x="79" y="-142" type="line"/>
      <point x="83" y="-19" type="line"/>
      <point x="104" y="214" type="line"/>
      <point x="197" y="214" type="line"/>
    </contour>
    <contour>
      <point x="234" y="342" type="curve" smooth="yes"/>
      <point x="234" y="292"/>
      <point x="200" y="255"/>
      <point x="151" y="255" type="curve" smooth="yes"/>
      <point x="102" y="255"/>
      <point x="67" y="292"/>
      <point x="67" y="342" type="curve" smooth="yes"/>
      <point x="67" y="391"/>
      <point x="102" y="429"/>
      <point x="151" y="429" type="curve" smooth="yes"/>
      <point x="200" y="429"/>
      <point x="234" y="391"/>
    </contour>
  </outline>
</glyph>
<glyph name="cent" format="1">
  <advance width="453"/>
  <unicode hex="00A2"/>
  <outline>
    <contour>
      <point x="234" y="346" type="line"/>
      <point x="204" y="329"/>
      <point x="189" y="297"/>
      <point x="189" y="256" type="curve" smooth="yes"/>
      <point x="189" y="214"/>
      <point x="205" y="184"/>
      <point x="234" y="167" type="curve"/>
    </contour>
    <contour>
      <point x="418" y="88" type="line"/>
      <point x="386" y="62"/>
      <point x="347" y="46"/>
      <point x="312" y="39" type="curve"/>
      <point x="312" y="-37" type="line"/>
      <point x="234" y="-37" type="line"/>
      <point x="234" y="39" type="line"/>
      <point x="121" y="55"/>
      <point x="50" y="131"/>
      <point x="50" y="256" type="curve" smooth="yes"/>
      <point x="50" y="375"/>
      <point x="127" y="451"/>
      <point x="234" y="471" type="curve"/>
      <point x="234" y="549" type="line"/>
      <point x="312" y="549" type="line"/>
      <point x="312" y="474" type="line"/>
      <point x="355" y="471"/>
      <point x="389" y="454"/>
      <point x="415" y="429" type="curve"/>
      <point x="348" y="340" type="line"/>
      <point x="336" y="350"/>
      <point x="323" y="357"/>
      <point x="312" y="360" type="curve"/>
      <point x="312" y="155" type="line"/>
      <point x="330" y="158"/>
      <point x="347" y="169"/>
      <point x="363" y="179" type="curve"/>
    </contour>
  </outline>
</glyph>
<glyph name="sterling" format="1">
  <advance width="453"/>
  <unicode hex="00A3"/>
  <outline>
    <contour>
      <point x="221" y="121" type="line"/>
      <point x="431" y="121" type="line"/>
      <point x="431" y="0" type="line"/>
      <point x="38" y="0" type="line"/>
      <point x="38" y="88" type="line"/>
      <point x="85" y="109"/>
      <point x="127" y="150"/>
      <point x="127" y="210" type="curve" smooth="yes"/>
      <point x="127" y="214"/>
      <point x="127" y="219"/>
      <point x="126" y="222" type="curve"/>
      <point x="44" y="222" type="line"/>
      <point x="44" y="306" type="line"/>
      <point x="101" y="310" type="line"/>
      <point x="102" y="310" type="line"/>
      <point x="96" y="329"/>
      <point x="92" y="346"/>
      <point x="92" y="363" type="curve" smooth="yes"/>
      <point x="92" y="473"/>
      <point x="172" y="541"/>
      <point x="280" y="541" type="curve" smooth="yes"/>
      <point x="344" y="541"/>
      <point x="390" y="517"/>
      <point x="431" y="471" type="curve"/>
      <point x="354" y="394" type="line"/>
      <point x="336" y="415"/>
      <point x="316" y="425"/>
      <point x="295" y="425" type="curve" smooth="yes"/>
      <point x="255" y="425"/>
      <point x="230" y="406"/>
      <point x="230" y="354" type="curve" smooth="yes"/>
      <point x="230" y="339"/>
      <point x="232" y="325"/>
      <point x="234" y="310" type="curve"/>
      <point x="356" y="310" type="line"/>
      <point x="356" y="222" type="line"/>
      <point x="252" y="222" type="line"/>
      <point x="253" y="217"/>
      <point x="253" y="214"/>
      <point x="253" y="208" type="curve" smooth="yes"/>
      <point x="253" y="175"/>
      <point x="245" y="154"/>
      <point x="221" y="123" type="curve"/>
    </contour>
  </outline>
</glyph>
<glyph name="currency" format="1">
  <advance width="453"/>
  <unicode hex="00A4"/>
  <outline>
    <contour>
      <point x="14" y="135" type="line"/>
      <point x="65" y="185" type="line"/>
      <point x="46" y="212"/>
      <point x="37" y="242"/>
      <point x="37" y="276" type="curve" smooth="yes"/>
      <point x="37" y="313"/>
      <point x="46" y="342"/>
      <point x="64" y="366" type="curve"/>
      <point x="14" y="416" type="line"/>
      <point x="85" y="488" type="line"/>
      <point x="144" y="429" type="line"/>
      <point x="171" y="439"/>
      <point x="198" y="446"/>
      <point x="226" y="446" type="curve" smooth="yes"/>
      <point x="254" y="446"/>
      <point x="281" y="439"/>
      <point x="308" y="429" type="curve"/>
      <point x="367" y="488" type="line"/>
      <point x="438" y="416" type="line"/>
      <point x="388" y="366" type="line"/>
      <point x="406" y="342"/>
      <point x="416" y="313"/>
      <point x="416" y="276" type="curve" smooth="yes"/>
      <point x="416" y="240"/>
      <point x="405" y="212"/>
      <point x="387" y="185" type="curve"/>
      <point x="438" y="135" type="line"/>
      <point x="367" y="64" type="line"/>
      <point x="307" y="122" type="line"/>
      <point x="281" y="113"/>
      <point x="253" y="107"/>
      <point x="226" y="107" type="curve" smooth="yes"/>
      <point x="196" y="107"/>
      <point x="171" y="113"/>
      <point x="145" y="122" type="curve"/>
      <point x="85" y="64" type="line"/>
    </contour>
    <contour>
      <point x="164" y="276" type="curve" smooth="yes"/>
      <point x="164" y="232"/>
      <point x="190" y="206"/>
      <point x="226" y="206" type="curve" smooth="yes"/>
      <point x="263" y="206"/>
      <point x="288" y="232"/>
      <point x="288" y="276" type="curve" smooth="yes"/>
      <point x="288" y="320"/>
      <point x="263" y="347"/>
      <point x="226" y="347" type="curve" smooth="yes"/>
      <point x="190" y="347"/>
      <point x="164" y="320"/>
    </contour>
  </outline>
</glyph>
<glyph name="yen" format="1">
  <advance width="453"/>
  <unicode hex="00A5"/>
  <outline>
    <contour>
      <point x="155" y="531" type="line"/>
      <point x="188" y="432" type="line" smooth="yes"/>
      <point x="200" y="396"/>
      <point x="214" y="360"/>
      <point x="226" y="323" type="curve"/>
      <point x="230" y="323" type="line"/>
      <point x="269" y="432" type="line"/>
      <point x="302" y="531" type="line"/>
      <point x="446" y="531" type="line"/>
      <point x="328" y="295" type="line"/>
      <point x="423" y="295" type="line"/>
      <point x="423" y="228" type="line"/>
      <point x="298" y="228" type="line"/>
      <point x="298" y="186" type="line"/>
      <point x="423" y="186" type="line"/>
      <point x="423" y="120" type="line"/>
      <point x="298" y="120" type="line"/>
      <point x="298" y="0" type="line"/>
      <point x="155" y="0" type="line"/>
      <point x="155" y="120" type="line"/>
      <point x="28" y="120" type="line"/>
      <point x="28" y="186" type="line"/>
      <point x="155" y="186" type="line"/>
      <point x="155" y="228" type="line"/>
      <point x="28" y="228" type="line"/>
      <point x="28" y="295" type="line"/>
      <point x="123" y="295" type="line"/>
      <point x="7" y="531" type="line"/>
    </contour>
  </outline>
</glyph>
<glyph name="brokenbar" format="1">
  <advance width="232"/>
  <unicode hex="00A6"/>
  <outline>
    <contour>
      <point x="71" y="628" type="line"/>
      <point x="163" y="628" type="line"/>
      <point x="163" y="269" type="line"/>
      <point x="71" y="269" type="line"/>
    </contour>
    <contour>
      <point x="163" y="168" type="line"/>
      <point x="163" y="-210" type="line"/>
      <point x="71" y="-210" type="line"/>
      <point x="71" y="168" type="line"/>
    </contour>
  </outline>
</glyph>
<glyph name="section" format="1">
  <advance width="453"/>
  <unicode hex="00A7"/>
  <outline>
    <contour>
      <point x="149" y="278" type="curve" smooth="yes"/>
      <point x="149" y="234"/>
      <point x="220" y="216"/>
      <point x="282" y="185" type="curve"/>
      <point x="297" y="196"/>
      <point x="304" y="210"/>
      <point x="304" y="226" type="curve" smooth="yes"/>
      <point x="304" y="272"/>
      <point x="232" y="287"/>
      <point x="171" y="318" type="curve"/>
      <point x="156" y="307"/>
      <point x="149" y="294"/>
    </contour>
    <contour>
      <point x="322" y="434" type="line"/>
      <point x="296" y="456"/>
      <point x="263" y="474"/>
      <point x="236" y="474" type="curve" smooth="yes"/>
      <point x="213" y="474"/>
      <point x="199" y="468"/>
      <point x="199" y="449" type="curve" smooth="yes"/>
      <point x="199" y="402"/>
      <point x="423" y="389"/>
      <point x="423" y="238" type="curve" smooth="yes"/>
      <point x="423" y="192"/>
      <point x="401" y="155"/>
      <point x="356" y="124" type="curve"/>
      <point x="367" y="107"/>
      <point x="373" y="86"/>
      <point x="373" y="63" type="curve" smooth="yes"/>
      <point x="373" y="-17"/>
      <point x="318" y="-77"/>
      <point x="203" y="-77" type="curve" smooth="yes"/>
      <point x="139" y="-77"/>
      <point x="73" y="-55"/>
      <point x="33" y="-2" type="curve"/>
      <point x="116" y="71" type="line"/>
      <point x="142" y="41"/>
      <point x="173" y="28"/>
      <point x="203" y="28" type="curve" smooth="yes"/>
      <point x="232" y="28"/>
      <point x="245" y="38"/>
      <point x="245" y="55" type="curve" smooth="yes"/>
      <point x="245" y="109"/>
      <point x="28" y="109"/>
      <point x="28" y="269" type="curve" smooth="yes"/>
      <point x="28" y="307"/>
      <point x="53" y="348"/>
      <point x="93" y="374" type="curve"/>
      <point x="79" y="394"/>
      <point x="71" y="415"/>
      <point x="71" y="444" type="curve" smooth="yes"/>
      <point x="71" y="527"/>
      <point x="129" y="580"/>
      <point x="228" y="580" type="curve" smooth="yes"/>
      <point x="297" y="580"/>
      <point x="351" y="550"/>
      <point x="387" y="523" type="curve"/>
    </contour>
  </outline>
</glyph>
<glyph name="copyright" format="1">
  <advance width="630"/>
  <unicode hex="00A9"/>
  <outline>
    <contour>
      <point x="37" y="272" type="curve" smooth="yes"/>
      <point x="37" y="448"/>
      <point x="166" y="549"/>
      <point x="315" y="549" type="curve" smooth="yes"/>
      <point x="465" y="549"/>
      <point x="593" y="447"/>
      <point x="593" y="272" type="curve" smooth="yes"/>
      <point x="593" y="99"/>
      <point x="465" y="-7"/>
      <point x="315" y="-7" type="curve" smooth="yes"/>
      <point x="166" y="-7"/>
      <point x="37" y="99"/>
    </contour>
    <contour>
      <point x="101" y="272" type="curve" smooth="yes"/>
      <point x="101" y="139"/>
      <point x="193" y="50"/>
      <point x="315" y="50" type="curve" smooth="yes"/>
      <point x="437" y="50"/>
      <point x="530" y="139"/>
      <point x="530" y="272" type="curve" smooth="yes"/>
      <point x="530" y="407"/>
      <point x="437" y="493"/>
      <point x="315" y="493" type="curve" smooth="yes"/>
      <point x="193" y="493"/>
      <point x="101" y="407"/>
    </contour>
    <contour>
      <point x="161" y="271" type="curve" smooth="yes"/>
      <point x="161" y="370"/>
      <point x="240" y="434"/>
      <point x="325" y="434" type="curve" smooth="yes"/>
      <point x="379" y="434"/>
      <point x="413" y="411"/>
      <point x="439" y="383" type="curve"/>
      <point x="386" y="325" type="line"/>
      <point x="370" y="342"/>
      <point x="356" y="352"/>
      <point x="335" y="352" type="curve" smooth="yes"/>
      <point x="285" y="352"/>
      <point x="263" y="315"/>
      <point x="263" y="271" type="curve" smooth="yes"/>
      <point x="263" y="221"/>
      <point x="288" y="189"/>
      <point x="330" y="189" type="curve" smooth="yes"/>
      <point x="356" y="189"/>
      <point x="370" y="198"/>
      <point x="390" y="214" type="curve"/>
      <point x="436" y="149" type="line"/>
      <point x="403" y="122"/>
      <point x="367" y="107"/>
      <point x="326" y="107" type="curve" smooth="yes"/>
      <point x="230" y="107"/>
      <point x="161" y="171"/>
    </contour>
  </outline>
</glyph>
<glyph name="logicalnot" format="1">
  <advance width="453"/>
  <unicode hex="00AC"/>
  <outline>
    <contour>
      <point x="28" y="326" type="line"/>
      <point x="423" y="326" type="line"/>
      <point x="423" y="75" type="line"/>
      <point x="320" y="75" type="line"/>
      <point x="320" y="226" type="line"/>
      <point x="28" y="226" type="line"/>
    </contour>
  </outline>
</glyph>
<glyph name="registered" format="1">
  <advance width="400"/>
  <unicode hex="00AE"/>
  <outline>
    <contour>
      <point x="199" y="258" type="curve" smooth="yes"/>
      <point x="105" y="258"/>
      <point x="29" y="330"/>
      <point x="29" y="429" type="curve" smooth="yes"/>
      <point x="29" y="527"/>
      <point x="105" y="600"/>
      <point x="199" y="600" type="curve" smooth="yes"/>
      <point x="293" y="600"/>
      <point x="368" y="527"/>
      <point x="368" y="429" type="curve" smooth="yes"/>
      <point x="368" y="330"/>
      <point x="293" y="258"/>
    </contour>
    <contour>
      <point x="199" y="304" type="curve" smooth="yes"/>
      <point x="269" y="304"/>
      <point x="318" y="352"/>
      <point x="318" y="429" type="curve" smooth="yes"/>
      <point x="318" y="507"/>
      <point x="269" y="555"/>
      <point x="199" y="555" type="curve" smooth="yes"/>
      <point x="129" y="555"/>
      <point x="80" y="507"/>
      <point x="80" y="429" type="curve" smooth="yes"/>
      <point x="80" y="352"/>
      <point x="129" y="304"/>
    </contour>
    <contour>
      <point x="129" y="512" type="line"/>
      <point x="208" y="512" type="line" smooth="yes"/>
      <point x="248" y="512"/>
      <point x="276" y="493"/>
      <point x="276" y="456" type="curve" smooth="yes"/>
      <point x="276" y="437"/>
      <point x="269" y="420"/>
      <point x="248" y="411" type="curve"/>
      <point x="281" y="348" type="line"/>
      <point x="226" y="348" type="line"/>
      <point x="203" y="396" type="line"/>
      <point x="182" y="396" type="line"/>
      <point x="182" y="348" type="line"/>
      <point x="129" y="348" type="line"/>
    </contour>
    <contour>
      <point x="197" y="431" type="line" smooth="yes"/>
      <point x="214" y="431"/>
      <point x="220" y="442"/>
      <point x="220" y="453" type="curve" smooth="yes"/>
      <point x="220" y="464"/>
      <point x="212" y="472"/>
      <point x="197" y="472" type="curve" smooth="yes"/>
      <point x="182" y="472" type="line"/>
      <point x="182" y="431" type="line"/>
    </contour>
  </outline>
</glyph>
<glyph name="degree" format="1">
  <advance width="317"/>
  <unicode hex="00B0"/>
  <outline>
    <contour>
      <point x="159" y="323" type="curve" smooth="yes"/>
      <point x="87" y="323"/>
      <point x="31" y="378"/>
      <point x="31" y="449" type="curve" smooth="yes"/>
      <point x="31" y="520"/>
      <point x="87" y="574"/>
      <point x="159" y="574" type="curve" smooth="yes"/>
      <point x="231" y="574"/>
      <point x="287" y="520"/>
      <point x="287" y="449" type="curve" smooth="yes"/>
      <point x="287" y="378"/>
      <point x="231" y="323"/>
    </contour>
    <contour>
      <point x="159" y="390" type="curve" smooth="yes"/>
      <point x="192" y="390"/>
      <point x="214" y="414"/>
      <point x="214" y="449" type="curve" smooth="yes"/>
      <point x="214" y="485"/>
      <point x="192" y="508"/>
      <point x="159" y="508" type="curve" smooth="yes"/>
      <point x="126" y="508"/>
      <point x="105" y="485"/>
      <point x="105" y="449" type="curve" smooth="yes"/>
      <point x="105" y="414"/>
      <point x="126" y="390"/>
    </contour>
  </outline>
</glyph>
<glyph name="plusminus" format="1">
  <advance width="453"/>
  <unicode hex="00B1"/>
  <outline>
    <contour>
      <point x="174" y="243" type="line"/>
      <point x="28" y="243" type="line"/>
      <point x="28" y="344" type="line"/>
      <point x="174" y="344" type="line"/>
      <point x="174" y="477" type="line"/>
      <point x="278" y="477" type="line"/>
      <point x="278" y="344" type="line"/>
      <point x="423" y="344" type="line"/>
      <point x="423" y="243" type="line"/>
      <point x="278" y="243" type="line"/>
      <point x="278" y="142" type="line"/>
      <point x="174" y="142" type="line"/>
    </contour>
    <contour>
      <point x="28" y="101" type="line"/>
      <point x="423" y="101" type="line"/>
      <point x="423" y="0" type="line"/>
      <point x="28" y="0" type="line"/>
    </contour>
  </outline>
</glyph>
<glyph name="uni00B5" format="1">
  <advance width="488"/>
  <unicode hex="00B5"/>
  <outline>
    <contour>
      <point x="48" y="418" type="line"/>
      <point x="193" y="418" type="line"/>
      <point x="193" y="179" type="line" smooth="yes"/>
      <point x="193" y="125"/>
      <point x="205" y="113"/>
      <point x="234" y="113" type="curve" smooth="yes"/>
      <point x="262" y="113"/>
      <point x="275" y="122"/>
      <point x="295" y="149" type="curve"/>
      <point x="295" y="418" type="line"/>
      <point x="439" y="418" type="line"/>
      <point x="439" y="0" type="line"/>
      <point x="322" y="0" type="line"/>
      <point x="312" y="55" type="line"/>
      <point x="308" y="55" type="line"/>
      <point x="291" y="16"/>
      <point x="260" y="-2"/>
      <point x="226" y="-2" type="curve" smooth="yes"/>
      <point x="211" y="-2"/>
      <point x="196" y="0"/>
      <point x="184" y="10" type="curve"/>
      <point x="193" y="-66" type="line"/>
      <point x="193" y="-168" type="line"/>
      <point x="48" y="-168" type="line"/>
    </contour>
  </outline>
</glyph>
<glyph name="paragraph" format="1">
  <advance width="558"/>
  <unicode hex="00B6"/>
  <outline>
    <contour>
      <point x="333" y="545" type="line"/>
      <point x="477" y="545" type="line"/>
      <point x="477" y="-67" type="line"/>
      <point x="333" y="-67" type="line"/>
    </contour>
    <contour>
      <point x="250" y="156" type="line" smooth="yes"/>
      <point x="132" y="156"/>
      <point x="31" y="225"/>
      <point x="31" y="356" type="curve" smooth="yes"/>
      <point x="31" y="499"/>
      <point x="132" y="545"/>
      <point x="250" y="545" type="curve" smooth="yes"/>
      <point x="287" y="545" type="line"/>
      <point x="287" y="156" type="line"/>
    </contour>
  </outline>
</glyph>
<glyph name="questiondown" format="1">
  <advance width="400"/>
  <unicode hex="00BF"/>
  <outline>
    <contour>
      <point x="272" y="214" type="line"/>
      <point x="289" y="105"/>
      <point x="171" y="58"/>
      <point x="171" y="5" type="curve" smooth="yes"/>
      <point x="171" y="-25"/>
      <point x="192" y="-37"/>
      <point x="218" y="-37" type="curve" smooth="yes"/>
      <point x="247" y="-37"/>
      <point x="264" y="-22"/>
      <point x="287" y="-2" type="curve"/>
      <point x="365" y="-74" type="line"/>
      <point x="325" y="-122"/>
      <point x="271" y="-153"/>
      <point x="208" y="-153" type="curve" smooth="yes"/>
      <point x="111" y="-153"/>
      <point x="33" y="-110"/>
      <point x="33" y="-5" type="curve" smooth="yes"/>
      <point x="33" y="96"/>
      <point x="155" y="122"/>
      <point x="147" y="214" type="curve"/>
    </contour>
    <contour>
      <point x="295" y="342" type="curve" smooth="yes"/>
      <point x="295" y="292"/>
      <point x="261" y="255"/>
      <point x="212" y="255" type="curve" smooth="yes"/>
      <point x="162" y="255"/>
      <point x="127" y="292"/>
      <point x="127" y="342" type="curve" smooth="yes"/>
      <point x="127" y="391"/>
      <point x="162" y="429"/>
      <point x="212" y="429" type="curve" smooth="yes"/>
      <point x="261" y="429"/>
      <point x="295" y="391"/>
    </contour>
  </outline>
</glyph>
<glyph name="AE" format="1">
  <advance width="716"/>
  <unicode hex="00C6"/>
  <outline>
    <contour>
      <point x="318" y="221" type="line"/>
      <point x="318" y="437" type="line"/>
      <point x="315" y="437" type="line"/>
      <point x="295" y="384"/>
      <point x="277" y="335"/>
      <point x="258" y="291" type="curve" smooth="yes"/>
      <point x="228" y="221" type="line"/>
    </contour>
    <contour>
      <point x="670" y="121" type="line"/>
      <point x="670" y="0" type="line"/>
      <point x="318" y="0" type="line"/>
      <point x="318" y="111" type="line"/>
      <point x="179" y="111" type="line"/>
      <point x="132" y="0" type="line"/>
      <point x="-19" y="0" type="line"/>
      <point x="230" y="545" type="line"/>
      <point x="661" y="545" type="line"/>
      <point x="661" y="423" type="line"/>
      <point x="463" y="423" type="line"/>
      <point x="463" y="339" type="line"/>
      <point x="632" y="339" type="line"/>
      <point x="632" y="218" type="line"/>
      <point x="463" y="218" type="line"/>
      <point x="463" y="121" type="line"/>
    </contour>
    <contour>
      <point x="440" y="582" type="move" name="mark0"/>
    </contour>
  </outline>
</glyph>
<glyph name="Eth" format="1">
  <advance width="560"/>
  <unicode hex="00D0"/>
  <outline>
    <contour>
      <point x="234" y="116" type="line" smooth="yes"/>
      <point x="314" y="116"/>
      <point x="375" y="147"/>
      <point x="375" y="274" type="curve" smooth="yes"/>
      <point x="375" y="402"/>
      <point x="314" y="429"/>
      <point x="234" y="429" type="curve" smooth="yes"/>
      <point x="226" y="429" type="line"/>
      <point x="226" y="314" type="line"/>
      <point x="323" y="314" type="line"/>
      <point x="323" y="247" type="line"/>
      <point x="226" y="247" type="line"/>
      <point x="226" y="116" type="line"/>
    </contour>
    <contour>
      <point x="243" y="545" type="line" smooth="yes"/>
      <point x="408" y="545"/>
      <point x="523" y="466"/>
      <point x="523" y="274" type="curve" smooth="yes"/>
      <point x="523" y="83"/>
      <point x="409" y="0"/>
      <point x="251" y="0" type="curve" smooth="yes"/>
      <point x="82" y="0" type="line"/>
      <point x="82" y="247" type="line"/>
      <point x="21" y="247" type="line"/>
      <point x="21" y="308" type="line"/>
      <point x="82" y="314" type="line"/>
      <point x="82" y="545" type="line"/>
    </contour>
  </outline>
</glyph>
<glyph name="multiply" format="1">
  <advance width="453"/>
  <unicode hex="00D7"/>
  <outline>
    <contour>
      <point x="39" y="160" type="line"/>
      <point x="155" y="275" type="line"/>
      <point x="39" y="391" type="line"/>
      <point x="111" y="463" type="line"/>
      <point x="226" y="347" type="line"/>
      <point x="342" y="463" type="line"/>
      <point x="414" y="391" type="line"/>
      <point x="297" y="275" type="line"/>
      <point x="414" y="160" type="line"/>
      <point x="342" y="88" type="line"/>
      <point x="226" y="205" type="line"/>
      <point x="111" y="88" type="line"/>
    </contour>
  </outline>
</glyph>
<glyph name="Oslash" format="1">
  <advance width="580"/>
  <unicode hex="00D8"/>
  <outline>
    <contour>
      <point x="240" y="128" type="line"/>
      <point x="255" y="120"/>
      <point x="271" y="114"/>
      <point x="289" y="114" type="curve" smooth="yes"/>
      <point x="356" y="114"/>
      <point x="396" y="175"/>
      <point x="396" y="274" type="curve" smooth="yes"/>
      <point x="396" y="288"/>
      <point x="395" y="303"/>
      <point x="393" y="314" type="curve"/>
    </contour>
    <contour>
      <point x="350" y="409" type="line"/>
      <point x="332" y="422"/>
      <point x="313" y="431"/>
      <point x="289" y="431" type="curve" smooth="yes"/>
      <point x="223" y="431"/>
      <point x="184" y="374"/>
      <point x="184" y="274" type="curve" smooth="yes"/>
      <point x="184" y="251"/>
      <point x="186" y="231"/>
      <point x="190" y="214" type="curve"/>
    </contour>
    <contour>
      <point x="500" y="446" type="line"/>
      <point x="528" y="401"/>
      <point x="543" y="344"/>
      <point x="543" y="274" type="curve" smooth="yes"/>
      <point x="543" y="96"/>
      <point x="440" y="-10"/>
      <point x="289" y="-10" type="curve" smooth="yes"/>
      <point x="238" y="-10"/>
      <point x="194" y="2"/>
      <point x="156" y="25" type="curve"/>
      <point x="104" y="-38" type="line"/>
      <point x="29" y="19" type="line"/>
      <point x="87" y="88" type="line"/>
      <point x="55" y="136"/>
      <point x="37" y="197"/>
      <point x="37" y="274" type="curve" smooth="yes"/>
      <point x="37" y="455"/>
      <point x="139" y="555"/>
      <point x="289" y="555" type="curve" smooth="yes"/>
      <point x="346" y="555"/>
      <point x="395" y="541"/>
      <point x="436" y="514" type="curve"/>
      <point x="493" y="583" type="line"/>
      <point x="566" y="526" type="line"/>
    </contour>
    <contour>
      <point x="298" y="563" type="move" name="mark0"/>
    </contour>
  </outline>
</glyph>
<glyph name="Thorn" format="1">
  <advance width="528"/>
  <unicode hex="00DE"/>
  <outline>
    <contour>
      <point x="61" y="545" type="line"/>
      <point x="205" y="545" type="line"/>
      <point x="205" y="465" type="line"/>
      <point x="271" y="465" type="line" smooth="yes"/>
      <point x="389" y="465"/>
      <point x="490" y="422"/>
      <point x="490" y="285" type="curve" smooth="yes"/>
      <point x="490" y="152"/>
      <point x="385" y="94"/>
      <point x="271" y="94" type="curve" smooth="yes"/>
      <point x="205" y="94" type="line"/>
      <point x="205" y="0" type="line"/>
      <point x="61" y="0" type="line"/>
    </contour>
    <contour>
      <point x="265" y="208" type="line" smooth="yes"/>
      <point x="322" y="208"/>
      <point x="348" y="235"/>
      <point x="348" y="285" type="curve" smooth="yes"/>
      <point x="348" y="334"/>
      <point x="318" y="352"/>
      <point x="265" y="352" type="curve" smooth="yes"/>
      <point x="205" y="352" type="line"/>
      <point x="205" y="208" type="line"/>
    </contour>
  </outline>
</glyph>
<glyph name="germandbls" format="1">
  <advance width="549"/>
  <unicode hex="00DF"/>
  <outline>
    <contour>
      <point x="48" y="399" type="line" smooth="yes"/>
      <point x="48" y="509"/>
      <point x="115" y="591"/>
      <point x="262" y="591" type="curve" smooth="yes"/>
      <point x="385" y="591"/>
      <point x="446" y="519"/>
      <point x="446" y="446" type="curve" smooth="yes"/>
      <point x="446" y="367"/>
      <point x="385" y="343"/>
      <point x="385" y="307" type="curve" smooth="yes"/>
      <point x="385" y="262"/>
      <point x="526" y="258"/>
      <point x="526" y="132" type="curve" smooth="yes"/>
      <point x="526" y="54"/>
      <point x="473" y="-10"/>
      <point x="364" y="-10" type="curve" smooth="yes"/>
      <point x="314" y="-10"/>
      <point x="277" y="4"/>
      <point x="234" y="27" type="curve"/>
      <point x="283" y="123" type="line"/>
      <point x="310" y="104"/>
      <point x="335" y="96"/>
      <point x="359" y="96" type="curve" smooth="yes"/>
      <point x="381" y="96"/>
      <point x="396" y="106"/>
      <point x="396" y="125" type="curve" smooth="yes"/>
      <point x="396" y="176"/>
      <point x="255" y="180"/>
      <point x="255" y="288" type="curve" smooth="yes"/>
      <point x="255" y="348"/>
      <point x="308" y="370"/>
      <point x="308" y="429" type="curve" smooth="yes"/>
      <point x="308" y="458"/>
      <point x="291" y="479"/>
      <point x="262" y="479" type="curve" smooth="yes"/>
      <point x="214" y="479"/>
      <point x="191" y="440"/>
      <point x="191" y="383" type="curve" smooth="yes"/>
      <point x="191" y="0" type="line"/>
      <point x="48" y="0" type="line"/>
    </contour>
  </outline>
</glyph>
<glyph name="ae" format="1">
  <advance width="659"/>
  <unicode hex="00E6"/>
  <outline>
    <contour>
      <point x="172" y="130" type="curve" smooth="yes"/>
      <point x="172" y="111"/>
      <point x="185" y="101"/>
      <point x="212" y="101" type="curve" smooth="yes"/>
      <point x="235" y="101"/>
      <point x="255" y="110"/>
      <point x="271" y="125" type="curve"/>
      <point x="267" y="140"/>
      <point x="264" y="156"/>
      <point x="262" y="171" type="curve" smooth="yes"/>
      <point x="260" y="186" type="line"/>
      <point x="196" y="176"/>
      <point x="172" y="155"/>
    </contour>
    <contour>
      <point x="48" y="373" type="line"/>
      <point x="108" y="410"/>
      <point x="164" y="429"/>
      <point x="224" y="429" type="curve" smooth="yes"/>
      <point x="273" y="429"/>
      <point x="314" y="409"/>
      <point x="340" y="375" type="curve"/>
      <point x="377" y="412"/>
      <point x="413" y="429"/>
      <point x="459" y="429" type="curve" smooth="yes"/>
      <point x="573" y="429"/>
      <point x="628" y="335"/>
      <point x="628" y="222" type="curve" smooth="yes"/>
      <point x="628" y="196"/>
      <point x="624" y="176"/>
      <point x="623" y="166" type="curve"/>
      <point x="392" y="166" type="line"/>
      <point x="405" y="120"/>
      <point x="438" y="102"/>
      <point x="481" y="102" type="curve" smooth="yes"/>
      <point x="511" y="102"/>
      <point x="534" y="114"/>
      <point x="565" y="130" type="curve"/>
      <point x="613" y="38" type="line"/>
      <point x="567" y="6"/>
      <point x="508" y="-10"/>
      <point x="461" y="-10" type="curve" smooth="yes"/>
      <point x="401" y="-10"/>
      <point x="355" y="12"/>
      <point x="318" y="50" type="curve"/>
      <point x="259" y="4"/>
      <point x="216" y="-10"/>
      <point x="161" y="-10" type="curve" smooth="yes"/>
      <point x="82" y="-10"/>
      <point x="35" y="49"/>
      <point x="35" y="120" type="curve" smooth="yes"/>
      <point x="35" y="206"/>
      <point x="101" y="255"/>
      <point x="262" y="271" type="curve"/>
      <point x="258" y="302"/>
      <point x="242" y="315"/>
      <point x="205" y="315" type="curve" smooth="yes"/>
      <point x="174" y="315"/>
      <point x="142" y="304"/>
      <point x="99" y="280" type="curve"/>
    </contour>
    <contour>
      <point x="507" y="253" type="line"/>
      <point x="507" y="289"/>
      <point x="493" y="320"/>
      <point x="455" y="320" type="curve" smooth="yes"/>
      <point x="421" y="320"/>
      <point x="399" y="303"/>
      <point x="392" y="253" type="curve"/>
    </contour>
  </outline>
</glyph>
<glyph name="eth" format="1">
  <advance width="474"/>
  <unicode hex="00F0"/>
  <outline>
    <contour>
      <point x="234" y="105" type="curve" smooth="yes"/>
      <point x="271" y="105"/>
      <point x="302" y="135"/>
      <point x="302" y="218" type="curve" smooth="yes"/>
      <point x="302" y="230"/>
      <point x="302" y="240"/>
      <point x="301" y="251" type="curve"/>
      <point x="280" y="270"/>
      <point x="258" y="278"/>
      <point x="232" y="278" type="curve" smooth="yes"/>
      <point x="193" y="278"/>
      <point x="163" y="255"/>
      <point x="163" y="193" type="curve" smooth="yes"/>
      <point x="163" y="133"/>
      <point x="195" y="105"/>
    </contour>
    <contour>
      <point x="323" y="503" type="line"/>
      <point x="390" y="436"/>
      <point x="436" y="347"/>
      <point x="436" y="226" type="curve" smooth="yes"/>
      <point x="436" y="90"/>
      <point x="359" y="-10"/>
      <point x="230" y="-10" type="curve" smooth="yes"/>
      <point x="122" y="-10"/>
      <point x="31" y="69"/>
      <point x="31" y="193" type="curve" smooth="yes"/>
      <point x="31" y="316"/>
      <point x="118" y="383"/>
      <point x="201" y="383" type="curve" smooth="yes"/>
      <point x="228" y="383"/>
      <point x="257" y="377"/>
      <point x="278" y="358" type="curve"/>
      <point x="264" y="392"/>
      <point x="244" y="422"/>
      <point x="216" y="449" type="curve"/>
      <point x="97" y="389" type="line"/>
      <point x="61" y="452" type="line"/>
      <point x="154" y="498" type="line"/>
      <point x="133" y="512"/>
      <point x="111" y="523"/>
      <point x="86" y="536" type="curve"/>
      <point x="148" y="623" type="line"/>
      <point x="188" y="604"/>
      <point x="227" y="581"/>
      <point x="264" y="554" type="curve"/>
      <point x="383" y="614" type="line"/>
      <point x="420" y="551" type="line"/>
    </contour>
  </outline>
</glyph>
<glyph name="divide" format="1">
  <advance width="453"/>
  <unicode hex="00F7"/>
  <outline>
    <contour>
      <point x="226" y="356" type="curve" smooth="yes"/>
      <point x="182" y="356"/>
      <point x="149" y="384"/>
      <point x="149" y="427" type="curve" smooth="yes"/>
      <point x="149" y="470"/>
      <point x="182" y="499"/>
      <point x="226" y="499" type="curve" smooth="yes"/>
      <point x="269" y="499"/>
      <point x="304" y="470"/>
      <point x="304" y="427" type="curve" smooth="yes"/>
      <point x="304" y="384"/>
      <point x="269" y="356"/>
    </contour>
    <contour>
      <point x="149" y="125" type="curve" smooth="yes"/>
      <point x="149" y="169"/>
      <point x="182" y="197"/>
      <point x="226" y="197" type="curve" smooth="yes"/>
      <point x="269" y="197"/>
      <point x="304" y="169"/>
      <point x="304" y="125" type="curve" smooth="yes"/>
      <point x="304" y="83"/>
      <point x="269" y="54"/>
      <point x="226" y="54" type="curve" smooth="yes"/>
      <point x="182" y="54"/>
      <point x="149" y="83"/>
    </contour>
    <contour>
      <point x="28" y="326" type="line"/>
      <point x="423" y="326" type="line"/>
      <point x="423" y="226" type="line"/>
      <point x="28" y="226" type="line"/>
    </contour>
  </outline>
</glyph>
<glyph name="oslash" format="1">
  <advance width="469"/>
  <unicode hex="00F8"/>
  <outline>
    <contour>
      <point x="197" y="113" type="line"/>
      <point x="207" y="104"/>
      <point x="220" y="101"/>
      <point x="234" y="101" type="curve" smooth="yes"/>
      <point x="278" y="101"/>
      <point x="304" y="140"/>
      <point x="304" y="201" type="curve" smooth="yes"/>
      <point x="304" y="215"/>
      <point x="303" y="229"/>
      <point x="301" y="240" type="curve"/>
    </contour>
    <contour>
      <point x="270" y="307" type="line"/>
      <point x="262" y="315"/>
      <point x="249" y="318"/>
      <point x="234" y="318" type="curve" smooth="yes"/>
      <point x="191" y="318"/>
      <point x="166" y="278"/>
      <point x="166" y="218" type="curve" smooth="yes"/>
      <point x="166" y="204"/>
      <point x="167" y="192"/>
      <point x="168" y="179" type="curve"/>
    </contour>
    <contour>
      <point x="393" y="356" type="line"/>
      <point x="422" y="319"/>
      <point x="442" y="269"/>
      <point x="442" y="210" type="curve" smooth="yes"/>
      <point x="442" y="71"/>
      <point x="341" y="-10"/>
      <point x="234" y="-10" type="curve" smooth="yes"/>
      <point x="195" y="-10"/>
      <point x="158" y="0"/>
      <point x="124" y="21" type="curve"/>
      <point x="90" y="-22" type="line"/>
      <point x="38" y="19" type="line"/>
      <point x="75" y="65" type="line"/>
      <point x="46" y="101"/>
      <point x="27" y="149"/>
      <point x="27" y="210" type="curve" smooth="yes"/>
      <point x="27" y="348"/>
      <point x="126" y="429"/>
      <point x="234" y="429" type="curve" smooth="yes"/>
      <point x="273" y="429"/>
      <point x="311" y="418"/>
      <point x="344" y="399" type="curve"/>
      <point x="379" y="442" type="line"/>
      <point x="431" y="402" type="line"/>
    </contour>
    <contour>
      <point x="234" y="437" type="move" name="mark0"/>
    </contour>
  </outline>
</glyph>
<glyph name="Aogonek" format="1">
  <advance width="490"/>
  <unicode hex="0104"/>
  <outline>
    <contour>
      <point x="292" y="227" type="line"/>
      <point x="283" y="265" type="line" smooth="yes"/>
      <point x="269" y="318"/>
      <point x="256" y="382"/>
      <point x="243" y="437" type="curve"/>
      <point x="239" y="437" type="line"/>
      <point x="227" y="381"/>
      <point x="214" y="318"/>
      <point x="201" y="265" type="curve" smooth="yes"/>
      <point x="192" y="227" type="line"/>
    </contour>
    <contour>
      <point x="513" y="-159" type="line"/>
      <point x="490" y="-178"/>
      <point x="450" y="-191"/>
      <point x="417" y="-191" type="curve" smooth="yes"/>
      <point x="361" y="-191"/>
      <point x="315" y="-162"/>
      <point x="315" y="-109" type="curve" smooth="yes"/>
      <point x="315" y="-55"/>
      <point x="359" y="-13"/>
      <point x="385" y="0" type="curve"/>
      <point x="345" y="0" type="line"/>
      <point x="318" y="116" type="line"/>
      <point x="166" y="116" type="line"/>
      <point x="139" y="0" type="line"/>
      <point x="-9" y="0" type="line"/>
      <point x="158" y="545" type="line"/>
      <point x="331" y="545" type="line"/>
      <point x="498" y="0" type="line"/>
      <point x="448" y="0"/>
      <point x="418" y="-37"/>
      <point x="418" y="-71" type="curve" smooth="yes"/>
      <point x="418" y="-89"/>
      <point x="432" y="-99"/>
      <point x="449" y="-99" type="curve" smooth="yes"/>
      <point x="462" y="-99"/>
      <point x="473" y="-93"/>
      <point x="481" y="-87" type="curve"/>
    </contour>
    <contour>
      <point x="245" y="563" type="move" name="mark0"/>
    </contour>
  </outline>
</glyph>
<glyph name="aogonek" format="1">
  <advance width="455"/>
  <unicode hex="0105"/>
  <outline>
    <contour>
      <point x="172" y="130" type="curve" smooth="yes"/>
      <point x="172" y="111"/>
      <point x="185" y="101"/>
      <point x="212" y="101" type="curve" smooth="yes"/>
      <point x="234" y="101"/>
      <point x="247" y="113"/>
      <point x="264" y="129" type="curve"/>
      <point x="264" y="186" type="line"/>
      <point x="194" y="176"/>
      <point x="172" y="155"/>
    </contour>
    <contour>
      <point x="35" y="120" type="curve" smooth="yes"/>
      <point x="35" y="206"/>
      <point x="102" y="255"/>
      <point x="264" y="271" type="curve"/>
      <point x="260" y="301"/>
      <point x="240" y="315"/>
      <point x="205" y="315" type="curve" smooth="yes"/>
      <point x="174" y="315"/>
      <point x="142" y="304"/>
      <point x="99" y="280" type="curve"/>
      <point x="48" y="373" type="line"/>
      <point x="108" y="410"/>
      <point x="167" y="429"/>
      <point x="232" y="429" type="curve" smooth="yes"/>
      <point x="341" y="429"/>
      <point x="407" y="370"/>
      <point x="407" y="232" type="curve" smooth="yes"/>
      <point x="407" y="0" type="line"/>
      <point x="350" y="-13"/>
      <point x="333" y="-42"/>
      <point x="333" y="-66" type="curve" smooth="yes"/>
      <point x="333" y="-85"/>
      <point x="350" y="-94"/>
      <point x="367" y="-94" type="curve" smooth="yes"/>
      <point x="377" y="-94"/>
      <point x="389" y="-89"/>
      <point x="396" y="-84" type="curve"/>
      <point x="423" y="-147" type="line"/>
      <point x="400" y="-167"/>
      <point x="362" y="-177"/>
      <point x="331" y="-177" type="curve" smooth="yes"/>
      <point x="279" y="-177"/>
      <point x="238" y="-152"/>
      <point x="238" y="-99" type="curve" smooth="yes"/>
      <point x="238" y="-49"/>
      <point x="274" y="-14"/>
      <point x="291" y="-4" type="curve"/>
      <point x="280" y="40" type="line"/>
      <point x="276" y="40" type="line"/>
      <point x="243" y="10"/>
      <point x="207" y="-10"/>
      <point x="161" y="-10" type="curve" smooth="yes"/>
      <point x="82" y="-10"/>
      <point x="35" y="49"/>
    </contour>
    <contour>
      <point x="238" y="437" type="move" name="mark0"/>
    </contour>
  </outline>
</glyph>
<glyph name="dslash" format="1">
  <advance width="486"/>
  <unicode hex="0111"/>
  <outline>
    <contour>
      <point x="293" y="274" type="line"/>
      <point x="276" y="290"/>
      <point x="255" y="295"/>
      <point x="236" y="295" type="curve" smooth="yes"/>
      <point x="206" y="295"/>
      <point x="177" y="270"/>
      <point x="177" y="203" type="curve" smooth="yes"/>
      <point x="177" y="131"/>
      <point x="200" y="107"/>
      <point x="239" y="107" type="curve" smooth="yes"/>
      <point x="263" y="107"/>
      <point x="277" y="114"/>
      <point x="293" y="138" type="curve"/>
    </contour>
    <contour>
      <point x="493" y="465" type="line"/>
      <point x="437" y="462" type="line"/>
      <point x="437" y="0" type="line"/>
      <point x="317" y="0" type="line"/>
      <point x="308" y="33" type="line"/>
      <point x="306" y="33" type="line"/>
      <point x="277" y="7"/>
      <point x="240" y="-10"/>
      <point x="201" y="-10" type="curve" smooth="yes"/>
      <point x="97" y="-10"/>
      <point x="29" y="69"/>
      <point x="29" y="201" type="curve" smooth="yes"/>
      <point x="29" y="331"/>
      <point x="116" y="413"/>
      <point x="201" y="413" type="curve" smooth="yes"/>
      <point x="247" y="413"/>
      <point x="271" y="397"/>
      <point x="298" y="370" type="curve"/>
      <point x="293" y="431" type="line"/>
      <point x="293" y="461" type="line"/>
      <point x="172" y="461" type="line"/>
      <point x="172" y="528" type="line"/>
      <point x="293" y="528" type="line"/>
      <point x="293" y="583" type="line"/>
      <point x="437" y="583" type="line"/>
      <point x="437" y="528" type="line"/>
      <point x="493" y="528" type="line"/>
    </contour>
  </outline>
</glyph>
<glyph name="Eogonek" format="1">
  <advance width="465"/>
  <unicode hex="0118"/>
  <outline>
    <contour>
      <point x="61" y="545" type="line"/>
      <point x="413" y="545" type="line"/>
      <point x="413" y="423" type="line"/>
      <point x="205" y="423" type="line"/>
      <point x="205" y="339" type="line"/>
      <point x="381" y="339" type="line"/>
      <point x="381" y="218" type="line"/>
      <point x="205" y="218" type="line"/>
      <point x="205" y="121" type="line"/>
      <point x="420" y="121" type="line"/>
      <point x="420" y="0" type="line"/>
      <point x="416" y="0" type="line" smooth="yes"/>
      <point x="377" y="0"/>
      <point x="345" y="-37"/>
      <point x="345" y="-71" type="curve" smooth="yes"/>
      <point x="345" y="-90"/>
      <point x="363" y="-99"/>
      <point x="379" y="-99" type="curve" smooth="yes"/>
      <point x="389" y="-99"/>
      <point x="400" y="-93"/>
      <point x="407" y="-87" type="curve"/>
      <point x="439" y="-159" type="line"/>
      <point x="416" y="-178"/>
      <point x="376" y="-191"/>
      <point x="344" y="-191" type="curve" smooth="yes"/>
      <point x="287" y="-191"/>
      <point x="241" y="-162"/>
      <point x="241" y="-109" type="curve" smooth="yes"/>
      <point x="241" y="-55"/>
      <point x="281" y="-18"/>
      <point x="308" y="0" type="curve"/>
      <point x="61" y="0" type="line"/>
    </contour>
    <contour>
      <point x="243" y="563" type="move" name="mark0"/>
    </contour>
  </outline>
</glyph>
<glyph name="eogonek" format="1">
  <advance width="440"/>
  <unicode hex="0119"/>
  <outline>
    <contour>
      <point x="27" y="210" type="curve" smooth="yes"/>
      <point x="27" y="346"/>
      <point x="125" y="429"/>
      <point x="228" y="429" type="curve" smooth="yes"/>
      <point x="351" y="429"/>
      <point x="411" y="338"/>
      <point x="411" y="226" type="curve" smooth="yes"/>
      <point x="411" y="200"/>
      <point x="407" y="179"/>
      <point x="405" y="170" type="curve"/>
      <point x="166" y="170" type="line"/>
      <point x="179" y="116"/>
      <point x="216" y="99"/>
      <point x="264" y="99" type="curve" smooth="yes"/>
      <point x="292" y="99"/>
      <point x="318" y="107"/>
      <point x="348" y="123" type="curve"/>
      <point x="396" y="38" type="line"/>
      <point x="322" y="-13"/>
      <point x="307" y="-32"/>
      <point x="307" y="-66" type="curve" smooth="yes"/>
      <point x="307" y="-84"/>
      <point x="322" y="-94"/>
      <point x="341" y="-94" type="curve" smooth="yes"/>
      <point x="351" y="-94"/>
      <point x="362" y="-89"/>
      <point x="368" y="-84" type="curve"/>
      <point x="398" y="-147" type="line"/>
      <point x="373" y="-167"/>
      <point x="334" y="-177"/>
      <point x="306" y="-177" type="curve" smooth="yes"/>
      <point x="252" y="-177"/>
      <point x="214" y="-152"/>
      <point x="214" y="-99" type="curve" smooth="yes"/>
      <point x="214" y="-59"/>
      <point x="238" y="-28"/>
      <point x="258" y="-9" type="curve"/>
      <point x="249" y="-11"/>
      <point x="247" y="-10"/>
      <point x="243" y="-10" type="curve" smooth="yes"/>
      <point x="121" y="-10"/>
      <point x="27" y="71"/>
    </contour>
    <contour>
      <point x="288" y="256" type="line"/>
      <point x="288" y="292"/>
      <point x="274" y="320"/>
      <point x="231" y="320" type="curve" smooth="yes"/>
      <point x="198" y="320"/>
      <point x="173" y="304"/>
      <point x="164" y="256" type="curve"/>
    </contour>
    <contour>
      <point x="228" y="437" type="move" name="mark0"/>
    </contour>
  </outline>
</glyph>
<glyph name="Hbar" format="1">
  <advance width="605"/>
  <unicode hex="0126"/>
  <outline>
    <contour>
      <point x="383" y="406" type="line"/>
      <point x="221" y="406" type="line"/>
      <point x="221" y="342" type="line"/>
      <point x="383" y="342" type="line"/>
    </contour>
    <contour>
      <point x="586" y="406" type="line"/>
      <point x="528" y="406" type="line"/>
      <point x="528" y="0" type="line"/>
      <point x="383" y="0" type="line"/>
      <point x="383" y="216" type="line"/>
      <point x="221" y="216" type="line"/>
      <point x="221" y="0" type="line"/>
      <point x="77" y="0" type="line"/>
      <point x="77" y="406" type="line"/>
      <point x="19" y="406" type="line"/>
      <point x="19" y="467" type="line"/>
      <point x="77" y="473" type="line"/>
      <point x="77" y="545" type="line"/>
      <point x="221" y="545" type="line"/>
      <point x="221" y="473" type="line"/>
      <point x="383" y="473" type="line"/>
      <point x="383" y="545" type="line"/>
      <point x="528" y="545" type="line"/>
      <point x="528" y="473" type="line"/>
      <point x="586" y="473" type="line"/>
    </contour>
  </outline>
</glyph>
<glyph name="hbar" format="1">
  <advance width="488"/>
  <unicode hex="0127"/>
  <outline>
    <contour>
      <point x="186" y="359" type="line"/>
      <point x="215" y="384"/>
      <point x="255" y="413"/>
      <point x="312" y="413" type="curve" smooth="yes"/>
      <point x="403" y="413"/>
      <point x="442" y="345"/>
      <point x="442" y="241" type="curve" smooth="yes"/>
      <point x="442" y="0" type="line"/>
      <point x="298" y="0" type="line"/>
      <point x="298" y="222" type="line" smooth="yes"/>
      <point x="298" y="276"/>
      <point x="286" y="289"/>
      <point x="256" y="289" type="curve" smooth="yes"/>
      <point x="230" y="289"/>
      <point x="215" y="278"/>
      <point x="193" y="258" type="curve"/>
      <point x="193" y="0" type="line"/>
      <point x="48" y="0" type="line"/>
      <point x="48" y="461" type="line"/>
      <point x="-7" y="461" type="line"/>
      <point x="-7" y="523" type="line"/>
      <point x="48" y="527" type="line"/>
      <point x="48" y="583" type="line"/>
      <point x="193" y="583" type="line"/>
      <point x="193" y="528" type="line"/>
      <point x="330" y="528" type="line"/>
      <point x="330" y="461" type="line"/>
      <point x="193" y="461" type="line"/>
      <point x="193" y="431" type="line"/>
    </contour>
  </outline>
</glyph>
<glyph name="Iogonek" format="1">
  <advance width="265"/>
  <unicode hex="012E"/>
  <outline>
    <contour>
      <point x="61" y="545" type="line"/>
      <point x="205" y="545" type="line"/>
      <point x="205" y="0" type="line"/>
      <point x="155" y="-16"/>
      <point x="139" y="-44"/>
      <point x="139" y="-71" type="curve" smooth="yes"/>
      <point x="139" y="-90"/>
      <point x="156" y="-99"/>
      <point x="171" y="-99" type="curve" smooth="yes"/>
      <point x="182" y="-99"/>
      <point x="195" y="-93"/>
      <point x="201" y="-87" type="curve"/>
      <point x="232" y="-159" type="line"/>
      <point x="210" y="-178"/>
      <point x="171" y="-191"/>
      <point x="138" y="-191" type="curve" smooth="yes"/>
      <point x="80" y="-191"/>
      <point x="35" y="-162"/>
      <point x="35" y="-109" type="curve" smooth="yes"/>
      <point x="35" y="-55"/>
      <point x="76" y="-15"/>
      <point x="100" y="0" type="curve"/>
      <point x="61" y="0" type="line"/>
    </contour>
    <contour>
      <point x="132" y="563" type="move" name="mark0"/>
    </contour>
  </outline>
</glyph>
<glyph name="iogonek" format="1">
  <advance width="241"/>
  <unicode hex="012F"/>
  <outline>
    <contour>
      <point x="48" y="418" type="line"/>
      <point x="193" y="418" type="line"/>
      <point x="193" y="0" type="line"/>
      <point x="143" y="-13"/>
      <point x="130" y="-42"/>
      <point x="130" y="-66" type="curve" smooth="yes"/>
      <point x="130" y="-84"/>
      <point x="146" y="-94"/>
      <point x="165" y="-94" type="curve" smooth="yes"/>
      <point x="174" y="-94"/>
      <point x="183" y="-89"/>
      <point x="193" y="-84" type="curve"/>
      <point x="221" y="-147" type="line"/>
      <point x="197" y="-167"/>
      <point x="158" y="-177"/>
      <point x="129" y="-177" type="curve" smooth="yes"/>
      <point x="76" y="-177"/>
      <point x="35" y="-152"/>
      <point x="35" y="-99" type="curve" smooth="yes"/>
      <point x="35" y="-49"/>
      <point x="71" y="-13"/>
      <point x="90" y="0" type="curve"/>
      <point x="48" y="0" type="line"/>
    </contour>
    <contour>
      <point x="121" y="471" type="curve" smooth="yes"/>
      <point x="73" y="471"/>
      <point x="40" y="500"/>
      <point x="40" y="543" type="curve" smooth="yes"/>
      <point x="40" y="586"/>
      <point x="73" y="615"/>
      <point x="121" y="615" type="curve" smooth="yes"/>
      <point x="168" y="615"/>
      <point x="201" y="586"/>
      <point x="201" y="543" type="curve" smooth="yes"/>
      <point x="201" y="500"/>
      <point x="168" y="471"/>
    </contour>
  </outline>
</glyph>
<glyph name="dotlessi" format="1">
  <advance width="241"/>
  <unicode hex="0131"/>
  <outline>
    <contour>
      <point x="48" y="418" type="line"/>
      <point x="193" y="418" type="line"/>
      <point x="193" y="0" type="line"/>
      <point x="48" y="0" type="line"/>
    </contour>
    <contour>
      <point x="121" y="437" type="move" name="mark0"/>
    </contour>
    <contour>
      <point x="121" y="-19" type="move" name="mark0"/>
    </contour>
    <contour>
      <point x="159" y="0" type="move" name="mark0"/>
    </contour>
  </outline>
</glyph>
<glyph name="kgreenlandic" format="1">
  <advance width="475"/>
  <unicode hex="0138"/>
  <outline>
    <contour>
      <point x="48" y="418" type="line"/>
      <point x="193" y="418" type="line"/>
      <point x="193" y="269" type="line"/>
      <point x="196" y="269" type="line"/>
      <point x="308" y="418" type="line"/>
      <point x="465" y="418" type="line"/>
      <point x="318" y="245" type="line"/>
      <point x="473" y="0" type="line"/>
      <point x="317" y="0" type="line"/>
      <point x="232" y="144" type="line"/>
      <point x="193" y="96" type="line"/>
      <point x="193" y="0" type="line"/>
      <point x="48" y="0" type="line"/>
    </contour>
  </outline>
</glyph>
<glyph name="Lslash" format="1">
  <advance width="451"/>
  <unicode hex="0141"/>
  <outline>
    <contour>
      <point x="417" y="121" type="line"/>
      <point x="417" y="0" type="line"/>
      <point x="67" y="0" type="line"/>
      <point x="67" y="166" type="line"/>
      <point x="9" y="130" type="line"/>
      <point x="9" y="241" type="line"/>
      <point x="67" y="276" type="line"/>
      <point x="67" y="545" type="line"/>
      <point x="212" y="545" type="line"/>
      <point x="212" y="344" type="line"/>
      <point x="352" y="422" type="line"/>
      <point x="352" y="312" type="line"/>
      <point x="212" y="232" type="line"/>
      <point x="212" y="121" type="line"/>
    </contour>
  </outline>
</glyph>
<glyph name="lslash" format="1">
  <advance width="267"/>
  <unicode hex="0142"/>
  <outline>
    <contour>
      <point x="258" y="2" type="line"/>
      <point x="242" y="-5"/>
      <point x="220" y="-10"/>
      <point x="188" y="-10" type="curve" smooth="yes"/>
      <point x="89" y="-10"/>
      <point x="59" y="54"/>
      <point x="59" y="147" type="curve" smooth="yes"/>
      <point x="59" y="214" type="line"/>
      <point x="10" y="184" type="line"/>
      <point x="10" y="298" type="line"/>
      <point x="59" y="327" type="line"/>
      <point x="59" y="583" type="line"/>
      <point x="203" y="583" type="line"/>
      <point x="203" y="398" type="line"/>
      <point x="256" y="429" type="line"/>
      <point x="256" y="315" type="line"/>
      <point x="203" y="284" type="line"/>
      <point x="203" y="142" type="line" smooth="yes"/>
      <point x="203" y="113"/>
      <point x="216" y="105"/>
      <point x="226" y="105" type="curve" smooth="yes"/>
      <point x="232" y="105"/>
      <point x="234" y="104"/>
      <point x="241" y="107" type="curve"/>
    </contour>
  </outline>
</glyph>
<glyph name="OE" format="1">
  <advance width="737"/>
  <unicode hex="0152"/>
  <outline>
    <contour>
      <point x="37" y="274" type="curve" smooth="yes"/>
      <point x="37" y="466"/>
      <point x="163" y="545"/>
      <point x="322" y="545" type="curve" smooth="yes"/>
      <point x="683" y="545" type="line"/>
      <point x="683" y="423" type="line"/>
      <point x="486" y="423" type="line"/>
      <point x="486" y="339" type="line"/>
      <point x="654" y="339" type="line"/>
      <point x="654" y="218" type="line"/>
      <point x="486" y="218" type="line"/>
      <point x="486" y="121" type="line"/>
      <point x="692" y="121" type="line"/>
      <point x="692" y="0" type="line"/>
      <point x="314" y="0" type="line" smooth="yes"/>
      <point x="162" y="0"/>
      <point x="37" y="83"/>
    </contour>
    <contour>
      <point x="184" y="274" type="curve" smooth="yes"/>
      <point x="184" y="145"/>
      <point x="249" y="116"/>
      <point x="330" y="116" type="curve" smooth="yes"/>
      <point x="342" y="116" type="line"/>
      <point x="342" y="429" type="line"/>
      <point x="330" y="429" type="line" smooth="yes"/>
      <point x="249" y="429"/>
      <point x="184" y="405"/>
    </contour>
    <contour>
      <point x="442" y="563" type="move" name="mark0"/>
    </contour>
  </outline>
</glyph>
<glyph name="oe" format="1">
  <advance width="683"/>
  <unicode hex="0153"/>
  <outline>
    <contour>
      <point x="172" y="210" type="curve" smooth="yes"/>
      <point x="172" y="146"/>
      <point x="191" y="105"/>
      <point x="228" y="105" type="curve" smooth="yes"/>
      <point x="265" y="105"/>
      <point x="285" y="146"/>
      <point x="285" y="210" type="curve" smooth="yes"/>
      <point x="285" y="272"/>
      <point x="265" y="314"/>
      <point x="228" y="314" type="curve" smooth="yes"/>
      <point x="191" y="314"/>
      <point x="172" y="272"/>
    </contour>
    <contour>
      <point x="27" y="210" type="curve" smooth="yes"/>
      <point x="27" y="348"/>
      <point x="119" y="429"/>
      <point x="228" y="429" type="curve" smooth="yes"/>
      <point x="285" y="429"/>
      <point x="324" y="404"/>
      <point x="357" y="367" type="curve"/>
      <point x="393" y="407"/>
      <point x="437" y="429"/>
      <point x="484" y="429" type="curve" smooth="yes"/>
      <point x="599" y="429"/>
      <point x="654" y="335"/>
      <point x="654" y="222" type="curve" smooth="yes"/>
      <point x="654" y="196"/>
      <point x="650" y="176"/>
      <point x="648" y="166" type="curve"/>
      <point x="417" y="166" type="line"/>
      <point x="430" y="120"/>
      <point x="464" y="102"/>
      <point x="507" y="102" type="curve" smooth="yes"/>
      <point x="535" y="102"/>
      <point x="560" y="114"/>
      <point x="590" y="130" type="curve"/>
      <point x="639" y="38" type="line"/>
      <point x="592" y="6"/>
      <point x="532" y="-10"/>
      <point x="486" y="-10" type="curve" smooth="yes"/>
      <point x="439" y="-10"/>
      <point x="395" y="12"/>
      <point x="359" y="52" type="curve"/>
      <point x="322" y="12"/>
      <point x="284" y="-10"/>
      <point x="224" y="-10" type="curve" smooth="yes"/>
      <point x="115" y="-10"/>
      <point x="27" y="71"/>
    </contour>
    <contour>
      <point x="531" y="253" type="line"/>
      <point x="531" y="289"/>
      <point x="518" y="320"/>
      <point x="479" y="320" type="curve" smooth="yes"/>
      <point x="447" y="320"/>
      <point x="423" y="303"/>
      <point x="417" y="253" type="curve"/>
    </contour>
    <contour>
      <point x="352" y="437" type="move" name="mark0"/>
    </contour>
  </outline>
</glyph>
<glyph name="Uogonek" format="1">
  <advance width="563"/>
  <unicode hex="0172"/>
  <outline>
    <contour>
      <point x="57" y="545" type="line"/>
      <point x="201" y="545" type="line"/>
      <point x="201" y="247" type="line" smooth="yes"/>
      <point x="201" y="149"/>
      <point x="226" y="114"/>
      <point x="283" y="114" type="curve" smooth="yes"/>
      <point x="340" y="114"/>
      <point x="367" y="149"/>
      <point x="367" y="247" type="curve" smooth="yes"/>
      <point x="367" y="545" type="line"/>
      <point x="507" y="545" type="line"/>
      <point x="507" y="264" type="line" smooth="yes"/>
      <point x="507" y="106"/>
      <point x="466" y="44"/>
      <point x="361" y="-4" type="curve"/>
      <point x="319" y="-23"/>
      <point x="304" y="-47"/>
      <point x="304" y="-71" type="curve" smooth="yes"/>
      <point x="304" y="-90"/>
      <point x="320" y="-99"/>
      <point x="337" y="-99" type="curve" smooth="yes"/>
      <point x="347" y="-99"/>
      <point x="358" y="-93"/>
      <point x="365" y="-87" type="curve"/>
      <point x="398" y="-159" type="line"/>
      <point x="373" y="-178"/>
      <point x="334" y="-191"/>
      <point x="302" y="-191" type="curve" smooth="yes"/>
      <point x="245" y="-191"/>
      <point x="199" y="-162"/>
      <point x="199" y="-109" type="curve" smooth="yes"/>
      <point x="199" y="-55"/>
      <point x="241" y="-21"/>
      <point x="253" y="-9" type="curve"/>
      <point x="121" y="2"/>
      <point x="57" y="89"/>
      <point x="57" y="264" type="curve" smooth="yes"/>
    </contour>
    <contour>
      <point x="281" y="563" type="move" name="mark0"/>
    </contour>
  </outline>
</glyph>
<glyph name="uogonek" format="1">
  <advance width="484"/>
  <unicode hex="0173"/>
  <outline>
    <contour>
      <point x="46" y="418" type="line"/>
      <point x="189" y="418" type="line"/>
      <point x="189" y="179" type="line" smooth="yes"/>
      <point x="189" y="125"/>
      <point x="202" y="113"/>
      <point x="231" y="113" type="curve" smooth="yes"/>
      <point x="258" y="113"/>
      <point x="271" y="122"/>
      <point x="291" y="149" type="curve"/>
      <point x="291" y="418" type="line"/>
      <point x="436" y="418" type="line"/>
      <point x="436" y="0" type="line"/>
      <point x="379" y="-13"/>
      <point x="363" y="-42"/>
      <point x="363" y="-66" type="curve" smooth="yes"/>
      <point x="363" y="-84"/>
      <point x="379" y="-94"/>
      <point x="396" y="-94" type="curve" smooth="yes"/>
      <point x="406" y="-94"/>
      <point x="417" y="-89"/>
      <point x="423" y="-84" type="curve"/>
      <point x="453" y="-147" type="line"/>
      <point x="429" y="-167"/>
      <point x="389" y="-177"/>
      <point x="361" y="-177" type="curve" smooth="yes"/>
      <point x="307" y="-177"/>
      <point x="267" y="-152"/>
      <point x="267" y="-99" type="curve" smooth="yes"/>
      <point x="267" y="-49"/>
      <point x="304" y="-14"/>
      <point x="320" y="-4" type="curve"/>
      <point x="308" y="55" type="line"/>
      <point x="306" y="55" type="line"/>
      <point x="271" y="15"/>
      <point x="232" y="-10"/>
      <point x="176" y="-10" type="curve" smooth="yes"/>
      <point x="84" y="-10"/>
      <point x="46" y="57"/>
      <point x="46" y="161" type="curve" smooth="yes"/>
    </contour>
    <contour>
      <point x="232" y="420" type="move" name="mark0"/>
    </contour>
  </outline>
</glyph>
<glyph name="uni0180" format="1">
  <advance width="488"/>
  <unicode hex="0180"/>
  <outline>
    <contour>
      <point x="193" y="127" type="line"/>
      <point x="210" y="112"/>
      <point x="227" y="107"/>
      <point x="247" y="107" type="curve" smooth="yes"/>
      <point x="280" y="107"/>
      <point x="308" y="131"/>
      <point x="308" y="206" type="curve" smooth="yes"/>
      <point x="308" y="269"/>
      <point x="288" y="295"/>
      <point x="250" y="295" type="curve" smooth="yes"/>
      <point x="227" y="295"/>
      <point x="213" y="288"/>
      <point x="193" y="265" type="curve"/>
    </contour>
    <contour>
      <point x="189" y="370" type="line"/>
      <point x="219" y="398"/>
      <point x="255" y="413"/>
      <point x="292" y="413" type="curve" smooth="yes"/>
      <point x="390" y="413"/>
      <point x="456" y="331"/>
      <point x="456" y="209" type="curve" smooth="yes"/>
      <point x="456" y="69"/>
      <point x="371" y="-10"/>
      <point x="281" y="-10" type="curve" smooth="yes"/>
      <point x="245" y="-10"/>
      <point x="209" y="9"/>
      <point x="176" y="46" type="curve"/>
      <point x="172" y="46" type="line"/>
      <point x="161" y="0" type="line"/>
      <point x="48" y="0" type="line"/>
      <point x="48" y="461" type="line"/>
      <point x="-7" y="461" type="line"/>
      <point x="-7" y="523" type="line"/>
      <point x="48" y="527" type="line"/>
      <point x="48" y="583" type="line"/>
      <point x="193" y="583" type="line"/>
      <point x="193" y="528" type="line"/>
      <point x="330" y="528" type="line"/>
      <point x="330" y="461" type="line"/>
      <point x="193" y="461" type="line"/>
      <point x="193" y="431" type="line"/>
    </contour>
  </outline>
</glyph>
<glyph name="uni018F" format="1">
  <advance width="573"/>
  <unicode hex="018F"/>
  <outline>
    <contour>
      <point x="188" y="214" type="line"/>
      <point x="195" y="138"/>
      <point x="233" y="107"/>
      <point x="287" y="107" type="curve" smooth="yes"/>
      <point x="336" y="107"/>
      <point x="375" y="141"/>
      <point x="389" y="214" type="curve"/>
    </contour>
    <contour>
      <point x="92" y="486" type="line"/>
      <point x="138" y="526"/>
      <point x="200" y="555"/>
      <point x="289" y="555" type="curve" smooth="yes"/>
      <point x="433" y="555"/>
      <point x="536" y="452"/>
      <point x="536" y="272" type="curve" smooth="yes"/>
      <point x="536" y="94"/>
      <point x="432" y="-10"/>
      <point x="287" y="-10" type="curve" smooth="yes"/>
      <point x="141" y="-10"/>
      <point x="40" y="90"/>
      <point x="40" y="269" type="curve" smooth="yes"/>
      <point x="40" y="286"/>
      <point x="41" y="302"/>
      <point x="44" y="318" type="curve"/>
      <point x="391" y="318" type="line"/>
      <point x="381" y="398"/>
      <point x="340" y="437"/>
      <point x="271" y="437" type="curve" smooth="yes"/>
      <point x="221" y="437"/>
      <point x="187" y="414"/>
      <point x="158" y="387" type="curve"/>
    </contour>
    <contour>
      <point x="315" y="563" type="move" name="mark0"/>
    </contour>
    <contour>
      <point x="325" y="-19" type="move" name="mark0"/>
    </contour>
  </outline>
</glyph>
<glyph name="uni0192" format="1">
  <advance width="453"/>
  <unicode hex="0192"/>
  <outline>
    <contour>
      <point x="398" y="432" type="line"/>
      <point x="389" y="436"/>
      <point x="378" y="440"/>
      <point x="363" y="440" type="curve" smooth="yes"/>
      <point x="329" y="440"/>
      <point x="311" y="424"/>
      <point x="307" y="392" type="curve" smooth="yes"/>
      <point x="302" y="348" type="line"/>
      <point x="381" y="348" type="line"/>
      <point x="381" y="245" type="line"/>
      <point x="288" y="245" type="line"/>
      <point x="271" y="102" type="line"/>
      <point x="261" y="4"/>
      <point x="226" y="-80"/>
      <point x="105" y="-80" type="curve"/>
      <point x="70" y="-80"/>
      <point x="42" y="-74"/>
      <point x="28" y="-68" type="curve"/>
      <point x="46" y="38" type="line"/>
      <point x="60" y="34"/>
      <point x="70" y="32"/>
      <point x="82" y="31" type="curve"/>
      <point x="119" y="34"/>
      <point x="129" y="46"/>
      <point x="140" y="146" type="curve" smooth="yes"/>
      <point x="152" y="245" type="line"/>
      <point x="94" y="245" type="line"/>
      <point x="94" y="344" type="line"/>
      <point x="158" y="348" type="line"/>
      <point x="164" y="348" type="line"/>
      <point x="168" y="381" type="line" smooth="yes"/>
      <point x="180" y="508"/>
      <point x="232" y="555"/>
      <point x="349" y="555" type="curve" smooth="yes"/>
      <point x="368" y="555"/>
      <point x="407" y="549"/>
      <point x="423" y="540" type="curve"/>
    </contour>
  </outline>
</glyph>
<glyph name="Ohorn" format="1">
  <advance width="580"/>
  <unicode hex="01A0"/>
  <outline>
    <contour>
      <point x="289" y="114" type="curve" smooth="yes"/>
      <point x="356" y="114"/>
      <point x="396" y="175"/>
      <point x="396" y="274" type="curve" smooth="yes"/>
      <point x="396" y="374"/>
      <point x="356" y="431"/>
      <point x="289" y="431" type="curve" smooth="yes"/>
      <point x="223" y="431"/>
      <point x="184" y="374"/>
      <point x="184" y="274" type="curve" smooth="yes"/>
      <point x="184" y="175"/>
      <point x="223" y="114"/>
    </contour>
    <contour>
      <point x="536" y="661" type="line"/>
      <point x="549" y="644"/>
      <point x="563" y="618"/>
      <point x="563" y="588" type="curve" smooth="yes"/>
      <point x="563" y="530"/>
      <point x="528" y="498"/>
      <point x="472" y="482" type="curve"/>
      <point x="517" y="435"/>
      <point x="543" y="365"/>
      <point x="543" y="274" type="curve" smooth="yes"/>
      <point x="543" y="96"/>
      <point x="440" y="-10"/>
      <point x="289" y="-10" type="curve" smooth="yes"/>
      <point x="139" y="-10"/>
      <point x="37" y="96"/>
      <point x="37" y="274" type="curve" smooth="yes"/>
      <point x="37" y="455"/>
      <point x="139" y="555"/>
      <point x="289" y="555" type="curve" smooth="yes"/>
      <point x="334" y="555"/>
      <point x="373" y="547"/>
      <point x="410" y="529" type="curve"/>
      <point x="437" y="538"/>
      <point x="453" y="548"/>
      <point x="453" y="578" type="curve" smooth="yes"/>
      <point x="453" y="595"/>
      <point x="445" y="609"/>
      <point x="439" y="618" type="curve"/>
    </contour>
    <contour>
      <point x="289" y="563" type="move" name="mark0"/>
    </contour>
    <contour>
      <point x="289" y="-19" type="move" name="mark0"/>
    </contour>
  </outline>
</glyph>
<glyph name="ohorn" format="1">
  <advance width="469"/>
  <unicode hex="01A1"/>
  <outline>
    <contour>
      <point x="234" y="105" type="curve" smooth="yes"/>
      <point x="278" y="105"/>
      <point x="295" y="146"/>
      <point x="295" y="210" type="curve" smooth="yes"/>
      <point x="295" y="272"/>
      <point x="278" y="314"/>
      <point x="234" y="314" type="curve" smooth="yes"/>
      <point x="191" y="314"/>
      <point x="174" y="272"/>
      <point x="174" y="210" type="curve" smooth="yes"/>
      <point x="174" y="146"/>
      <point x="191" y="105"/>
    </contour>
    <contour>
      <point x="439" y="543" type="line"/>
      <point x="453" y="527"/>
      <point x="465" y="501"/>
      <point x="465" y="471" type="curve" smooth="yes"/>
      <point x="465" y="416"/>
      <point x="432" y="381"/>
      <point x="382" y="367" type="curve"/>
      <point x="418" y="330"/>
      <point x="442" y="276"/>
      <point x="442" y="210" type="curve" smooth="yes"/>
      <point x="442" y="71"/>
      <point x="341" y="-10"/>
      <point x="234" y="-10" type="curve" smooth="yes"/>
      <point x="126" y="-10"/>
      <point x="27" y="71"/>
      <point x="27" y="210" type="curve" smooth="yes"/>
      <point x="27" y="348"/>
      <point x="126" y="429"/>
      <point x="234" y="429" type="curve" smooth="yes"/>
      <point x="262" y="429"/>
      <point x="288" y="423"/>
      <point x="316" y="414" type="curve"/>
      <point x="339" y="418"/>
      <point x="356" y="431"/>
      <point x="356" y="461" type="curve" smooth="yes"/>
      <point x="356" y="477"/>
      <point x="347" y="492"/>
      <point x="342" y="501" type="curve"/>
    </contour>
    <contour>
      <point x="234" y="437" type="move" name="mark0"/>
    </contour>
    <contour>
      <point x="234" y="-19" type="move" name="mark0"/>
    </contour>
  </outline>
</glyph>
<glyph name="Uhorn" format="1">
  <advance width="580"/>
  <unicode hex="01AF"/>
  <outline>
    <contour>
      <point x="588" y="677" type="line"/>
      <point x="602" y="661"/>
      <point x="615" y="635"/>
      <point x="615" y="605" type="curve" smooth="yes"/>
      <point x="615" y="540"/>
      <point x="567" y="505"/>
      <point x="507" y="493" type="curve"/>
      <point x="507" y="264" type="line" smooth="yes"/>
      <point x="507" y="76"/>
      <point x="435" y="-10"/>
      <point x="283" y="-10" type="curve" smooth="yes"/>
      <point x="129" y="-10"/>
      <point x="57" y="76"/>
      <point x="57" y="264" type="curve" smooth="yes"/>
      <point x="57" y="545" type="line"/>
      <point x="201" y="545" type="line"/>
      <point x="201" y="247" type="line" smooth="yes"/>
      <point x="201" y="149"/>
      <point x="226" y="114"/>
      <point x="283" y="114" type="curve" smooth="yes"/>
      <point x="340" y="114"/>
      <point x="367" y="149"/>
      <point x="367" y="247" type="curve" smooth="yes"/>
      <point x="367" y="545" type="line"/>
      <point x="437" y="545" type="line" smooth="yes"/>
      <point x="466" y="545"/>
      <point x="505" y="550"/>
      <point x="505" y="595" type="curve" smooth="yes"/>
      <point x="505" y="612"/>
      <point x="497" y="625"/>
      <point x="491" y="635" type="curve"/>
    </contour>
    <contour>
      <point x="281" y="563" type="move" name="mark0"/>
    </contour>
    <contour>
      <point x="281" y="-19" type="move" name="mark0"/>
    </contour>
  </outline>
</glyph>
<glyph name="uhorn" format="1">
  <advance width="484"/>
  <unicode hex="01B0"/>
  <outline>
    <contour>
      <point x="490" y="551" type="line"/>
      <point x="503" y="535"/>
      <point x="515" y="510"/>
      <point x="515" y="479" type="curve" smooth="yes"/>
      <point x="515" y="425"/>
      <point x="482" y="392"/>
      <point x="436" y="376" type="curve"/>
      <point x="436" y="0" type="line"/>
      <point x="318" y="0" type="line"/>
      <point x="308" y="55" type="line"/>
      <point x="306" y="55" type="line"/>
      <point x="271" y="15"/>
      <point x="232" y="-10"/>
      <point x="176" y="-10" type="curve" smooth="yes"/>
      <point x="84" y="-10"/>
      <point x="46" y="57"/>
      <point x="46" y="161" type="curve" smooth="yes"/>
      <point x="46" y="418" type="line"/>
      <point x="189" y="418" type="line"/>
      <point x="189" y="179" type="line" smooth="yes"/>
      <point x="189" y="125"/>
      <point x="202" y="113"/>
      <point x="231" y="113" type="curve" smooth="yes"/>
      <point x="258" y="113"/>
      <point x="271" y="122"/>
      <point x="291" y="149" type="curve"/>
      <point x="291" y="418" type="line"/>
      <point x="339" y="418" type="line" smooth="yes"/>
      <point x="367" y="418"/>
      <point x="406" y="424"/>
      <point x="406" y="469" type="curve" smooth="yes"/>
      <point x="406" y="486"/>
      <point x="398" y="500"/>
      <point x="392" y="510" type="curve"/>
    </contour>
    <contour>
      <point x="239" y="437" type="move" name="mark0"/>
    </contour>
    <contour>
      <point x="255" y="-19" type="move" name="mark0"/>
    </contour>
  </outline>
</glyph>
<glyph name="uni01EA" format="1">
  <advance width="580"/>
  <unicode hex="01EA"/>
  <outline>
    <contour>
      <point x="208" y="-109" type="curve" smooth="yes"/>
      <point x="208" y="-64"/>
      <point x="238" y="-28"/>
      <point x="262" y="-9" type="curve"/>
      <point x="123" y="5"/>
      <point x="37" y="108"/>
      <point x="37" y="274" type="curve" smooth="yes"/>
      <point x="37" y="455"/>
      <point x="139" y="555"/>
      <point x="289" y="555" type="curve" smooth="yes"/>
      <point x="440" y="555"/>
      <point x="543" y="454"/>
      <point x="543" y="274" type="curve" smooth="yes"/>
      <point x="543" y="119"/>
      <point x="475" y="46"/>
      <point x="368" y="-4" type="curve" smooth="yes"/>
      <point x="328" y="-23"/>
      <point x="312" y="-47"/>
      <point x="312" y="-71" type="curve" smooth="yes"/>
      <point x="312" y="-90"/>
      <point x="328" y="-99"/>
      <point x="345" y="-99" type="curve" smooth="yes"/>
      <point x="356" y="-99"/>
      <point x="366" y="-93"/>
      <point x="373" y="-87" type="curve"/>
      <point x="406" y="-159" type="line"/>
      <point x="381" y="-178"/>
      <point x="343" y="-191"/>
      <point x="310" y="-191" type="curve" smooth="yes"/>
      <point x="253" y="-191"/>
      <point x="208" y="-162"/>
    </contour>
    <contour>
      <point x="289" y="114" type="curve" smooth="yes"/>
      <point x="356" y="114"/>
      <point x="396" y="175"/>
      <point x="396" y="274" type="curve" smooth="yes"/>
      <point x="396" y="374"/>
      <point x="356" y="431"/>
      <point x="289" y="431" type="curve" smooth="yes"/>
      <point x="223" y="431"/>
      <point x="184" y="374"/>
      <point x="184" y="274" type="curve" smooth="yes"/>
      <point x="184" y="175"/>
      <point x="223" y="114"/>
    </contour>
    <contour>
      <point x="289" y="563" type="move" name="mark0"/>
    </contour>
  </outline>
</glyph>
<glyph name="uni01EB" format="1">
  <advance width="469"/>
  <unicode hex="01EB"/>
  <outline>
    <contour>
      <point x="156" y="-99" type="curve" smooth="yes"/>
      <point x="156" y="-56"/>
      <point x="181" y="-25"/>
      <point x="202" y="-8" type="curve"/>
      <point x="108" y="6"/>
      <point x="27" y="85"/>
      <point x="27" y="210" type="curve" smooth="yes"/>
      <point x="27" y="348"/>
      <point x="126" y="429"/>
      <point x="234" y="429" type="curve" smooth="yes"/>
      <point x="341" y="429"/>
      <point x="442" y="348"/>
      <point x="442" y="210" type="curve" smooth="yes"/>
      <point x="442" y="101"/>
      <point x="387" y="39"/>
      <point x="306" y="2" type="curve" smooth="yes"/>
      <point x="264" y="-18"/>
      <point x="251" y="-43"/>
      <point x="251" y="-66" type="curve" smooth="yes"/>
      <point x="251" y="-85"/>
      <point x="269" y="-94"/>
      <point x="285" y="-94" type="curve" smooth="yes"/>
      <point x="295" y="-94"/>
      <point x="306" y="-89"/>
      <point x="314" y="-84" type="curve"/>
      <point x="342" y="-147" type="line"/>
      <point x="318" y="-167"/>
      <point x="279" y="-177"/>
      <point x="250" y="-177" type="curve" smooth="yes"/>
      <point x="196" y="-177"/>
      <point x="156" y="-152"/>
    </contour>
    <contour>
      <point x="174" y="210" type="curve" smooth="yes"/>
      <point x="174" y="146"/>
      <point x="191" y="105"/>
      <point x="234" y="105" type="curve" smooth="yes"/>
      <point x="278" y="105"/>
      <point x="295" y="146"/>
      <point x="295" y="210" type="curve" smooth="yes"/>
      <point x="295" y="272"/>
      <point x="278" y="314"/>
      <point x="234" y="314" type="curve" smooth="yes"/>
      <point x="191" y="314"/>
      <point x="174" y="272"/>
    </contour>
    <contour>
      <point x="234" y="437" type="move" name="mark0"/>
    </contour>
  </outline>
</glyph>
<glyph name="uni0237" format="1">
  <advance width="243"/>
  <unicode hex="0237"/>
  <outline>
    <contour>
      <point x="50" y="418" type="line"/>
      <point x="195" y="418" type="line"/>
      <point x="195" y="22" type="line" smooth="yes"/>
      <point x="195" y="-72"/>
      <point x="158" y="-158"/>
      <point x="31" y="-158" type="curve" smooth="yes"/>
      <point x="-8" y="-158"/>
      <point x="-28" y="-153"/>
      <point x="-47" y="-146" type="curve"/>
      <point x="-22" y="-40" type="line"/>
      <point x="-10" y="-44"/>
      <point x="-2" y="-46"/>
      <point x="9" y="-46" type="curve" smooth="yes"/>
      <point x="38" y="-46"/>
      <point x="50" y="-29"/>
      <point x="50" y="17" type="curve" smooth="yes"/>
    </contour>
    <contour>
      <point x="122" y="437" type="move" name="mark0"/>
    </contour>
  </outline>
</glyph>
<glyph name="uni0243" format="1">
  <advance width="534"/>
  <unicode hex="0243"/>
  <outline>
    <contour>
      <point x="285" y="102" type="line" smooth="yes"/>
      <point x="342" y="102"/>
      <point x="372" y="130"/>
      <point x="372" y="180" type="curve" smooth="yes"/>
      <point x="372" y="233"/>
      <point x="342" y="255"/>
      <point x="285" y="255" type="curve" smooth="yes"/>
      <point x="226" y="255" type="line"/>
      <point x="226" y="214" type="line"/>
      <point x="323" y="214" type="line"/>
      <point x="323" y="146" type="line"/>
      <point x="226" y="146" type="line"/>
      <point x="226" y="102" type="line"/>
    </contour>
    <contour>
      <point x="226" y="339" type="line"/>
      <point x="274" y="339" type="line" smooth="yes"/>
      <point x="322" y="339"/>
      <point x="347" y="363"/>
      <point x="347" y="396" type="curve" smooth="yes"/>
      <point x="347" y="429"/>
      <point x="322" y="442"/>
      <point x="274" y="442" type="curve" smooth="yes"/>
      <point x="226" y="442" type="line"/>
    </contour>
    <contour>
      <point x="394" y="306" type="line"/>
      <point x="471" y="288"/>
      <point x="510" y="247"/>
      <point x="510" y="170" type="curve" smooth="yes"/>
      <point x="510" y="51"/>
      <point x="413" y="0"/>
      <point x="295" y="0" type="curve" smooth="yes"/>
      <point x="82" y="0" type="line"/>
      <point x="82" y="146" type="line"/>
      <point x="21" y="146" type="line"/>
      <point x="21" y="208" type="line"/>
      <point x="82" y="214" type="line"/>
      <point x="82" y="545" type="line"/>
      <point x="278" y="545" type="line" smooth="yes"/>
      <point x="392" y="545"/>
      <point x="484" y="514"/>
      <point x="484" y="415" type="curve" smooth="yes"/>
      <point x="484" y="370"/>
      <point x="457" y="324"/>
      <point x="394" y="308" type="curve"/>
    </contour>
  </outline>
</glyph>
<glyph name="uni0259" format="1">
  <advance width="440"/>
  <unicode hex="0259"/>
  <outline>
    <contour>
      <point x="29" y="193" type="curve" smooth="yes"/>
      <point x="29" y="219"/>
      <point x="33" y="239"/>
      <point x="36" y="250" type="curve"/>
      <point x="274" y="250" type="line"/>
      <point x="263" y="304"/>
      <point x="232" y="320"/>
      <point x="189" y="320" type="curve" smooth="yes"/>
      <point x="162" y="320"/>
      <point x="133" y="312"/>
      <point x="104" y="295" type="curve"/>
      <point x="57" y="381" type="line"/>
      <point x="104" y="414"/>
      <point x="164" y="429"/>
      <point x="214" y="429" type="curve" smooth="yes"/>
      <point x="325" y="429"/>
      <point x="415" y="346"/>
      <point x="415" y="210" type="curve" smooth="yes"/>
      <point x="415" y="73"/>
      <point x="318" y="-10"/>
      <point x="214" y="-10" type="curve" smooth="yes"/>
      <point x="87" y="-10"/>
      <point x="29" y="81"/>
    </contour>
    <contour>
      <point x="153" y="163" type="line"/>
      <point x="153" y="126"/>
      <point x="166" y="99"/>
      <point x="210" y="99" type="curve" smooth="yes"/>
      <point x="242" y="99"/>
      <point x="268" y="113"/>
      <point x="276" y="163" type="curve"/>
    </contour>
    <contour>
      <point x="218" y="437" type="move" name="mark0"/>
    </contour>
    <contour>
      <point x="216" y="-19" type="move" name="mark0"/>
    </contour>
    <contour>
      <point x="216" y="0" type="move" name="mark0"/>
    </contour>
  </outline>
</glyph>
<glyph name="uni0261" format="1">
  <advance width="496"/>
  <unicode hex="0261"/>
  <outline>
    <contour>
      <point x="107" y="-15" type="line"/>
      <point x="146" y="-35"/>
      <point x="187" y="-44"/>
      <point x="220" y="-44" type="curve" smooth="yes"/>
      <point x="275" y="-44"/>
      <point x="292" y="-22"/>
      <point x="298" y="9" type="curve"/>
      <point x="302" y="50" type="line"/>
      <point x="275" y="27"/>
      <point x="242" y="13"/>
      <point x="206" y="13" type="curve" smooth="yes"/>
      <point x="102" y="13"/>
      <point x="35" y="101"/>
      <point x="35" y="218" type="curve" smooth="yes"/>
      <point x="35" y="345"/>
      <point x="123" y="429"/>
      <point x="210" y="429" type="curve" smooth="yes"/>
      <point x="250" y="429"/>
      <point x="283" y="416"/>
      <point x="314" y="381" type="curve"/>
      <point x="317" y="381" type="line"/>
      <point x="326" y="418" type="line"/>
      <point x="442" y="418" type="line"/>
      <point x="442" y="13" type="line" smooth="yes"/>
      <point x="442" y="-98"/>
      <point x="363" y="-156"/>
      <point x="220" y="-156" type="curve" smooth="yes"/>
      <point x="176" y="-156"/>
      <point x="110" y="-140"/>
      <point x="61" y="-109" type="curve"/>
    </contour>
    <contour>
      <point x="245" y="129" type="curve" smooth="yes"/>
      <point x="268" y="129"/>
      <point x="281" y="135"/>
      <point x="298" y="161" type="curve"/>
      <point x="298" y="291" type="line"/>
      <point x="281" y="307"/>
      <point x="261" y="312"/>
      <point x="241" y="312" type="curve" smooth="yes"/>
      <point x="209" y="312"/>
      <point x="180" y="283"/>
      <point x="180" y="220" type="curve" smooth="yes"/>
      <point x="180" y="159"/>
      <point x="205" y="129"/>
    </contour>
    <contour>
      <point x="256" y="437" type="move" name="mark0"/>
    </contour>
    <contour>
      <point x="249" y="-177" type="move" name="mark0"/>
    </contour>
  </outline>
</glyph>
<glyph name="h.sups" format="1">
  <advance width="327"/>
  <unicode hex="02B0"/>
  <outline>
    <contour>
      <point x="31" y="604" type="line"/>
      <point x="132" y="604" type="line"/>
      <point x="132" y="513" type="line"/>
      <point x="125" y="465" type="line"/>
      <point x="145" y="483"/>
      <point x="172" y="503"/>
      <point x="211" y="503" type="curve" smooth="yes"/>
      <point x="273" y="503"/>
      <point x="298" y="457"/>
      <point x="298" y="387" type="curve" smooth="yes"/>
      <point x="298" y="218" type="line"/>
      <point x="197" y="218" type="line"/>
      <point x="197" y="375" type="line" smooth="yes"/>
      <point x="197" y="406"/>
      <point x="195" y="418"/>
      <point x="171" y="418" type="curve" smooth="yes"/>
      <point x="155" y="418"/>
      <point x="146" y="411"/>
      <point x="132" y="398" type="curve"/>
      <point x="132" y="218" type="line"/>
      <point x="31" y="218" type="line"/>
    </contour>
  </outline>
</glyph>
<glyph name="j.sups" format="1">
  <advance width="166"/>
  <unicode hex="02B2"/>
  <outline>
    <contour>
      <point x="24" y="107" type="curve" smooth="yes"/>
      <point x="-4" y="107"/>
      <point x="-18" y="111"/>
      <point x="-29" y="114" type="curve"/>
      <point x="-13" y="188" type="line"/>
      <point x="-8" y="185"/>
      <point x="-1" y="184"/>
      <point x="9" y="184" type="curve" smooth="yes"/>
      <point x="27" y="184"/>
      <point x="33" y="195"/>
      <point x="33" y="224" type="curve" smooth="yes"/>
      <point x="33" y="496" type="line"/>
      <point x="134" y="496" type="line"/>
      <point x="134" y="228" type="line" smooth="yes"/>
      <point x="134" y="165"/>
      <point x="108" y="107"/>
    </contour>
    <contour>
      <point x="83" y="528" type="curve" smooth="yes"/>
      <point x="51" y="528"/>
      <point x="28" y="548"/>
      <point x="28" y="576" type="curve" smooth="yes"/>
      <point x="28" y="606"/>
      <point x="51" y="624"/>
      <point x="83" y="624" type="curve" smooth="yes"/>
      <point x="117" y="624"/>
      <point x="139" y="606"/>
      <point x="139" y="576" type="curve" smooth="yes"/>
      <point x="139" y="548"/>
      <point x="117" y="528"/>
    </contour>
  </outline>
</glyph>
<glyph name="r.sups" format="1">
  <advance width="238"/>
  <unicode hex="02B3"/>
  <outline>
    <contour>
      <point x="31" y="496" type="line"/>
      <point x="113" y="496" type="line"/>
      <point x="121" y="448" type="line"/>
      <point x="122" y="448" type="line"/>
      <point x="145" y="487"/>
      <point x="174" y="503"/>
      <point x="201" y="503" type="curve" smooth="yes"/>
      <point x="220" y="503"/>
      <point x="230" y="499"/>
      <point x="238" y="496" type="curve"/>
      <point x="221" y="411" type="line"/>
      <point x="213" y="414"/>
      <point x="202" y="416"/>
      <point x="189" y="416" type="curve" smooth="yes"/>
      <point x="170" y="416"/>
      <point x="146" y="404"/>
      <point x="132" y="370" type="curve"/>
      <point x="132" y="218" type="line"/>
      <point x="31" y="218" type="line"/>
    </contour>
  </outline>
</glyph>
<glyph name="w.sups" format="1">
  <advance width="450"/>
  <unicode hex="02B7"/>
  <outline>
    <contour>
      <point x="13" y="496" type="line"/>
      <point x="113" y="496" type="line"/>
      <point x="132" y="381" type="line"/>
      <point x="142" y="297" type="line"/>
      <point x="145" y="297" type="line"/>
      <point x="159" y="381" type="line"/>
      <point x="188" y="496" type="line"/>
      <point x="267" y="496" type="line"/>
      <point x="297" y="381" type="line"/>
      <point x="312" y="297" type="line"/>
      <point x="314" y="297" type="line"/>
      <point x="325" y="381" type="line"/>
      <point x="345" y="496" type="line"/>
      <point x="437" y="496" type="line"/>
      <point x="373" y="218" type="line"/>
      <point x="258" y="218" type="line"/>
      <point x="238" y="312" type="line"/>
      <point x="226" y="387" type="line"/>
      <point x="224" y="387" type="line"/>
      <point x="214" y="312" type="line"/>
      <point x="195" y="218" type="line"/>
      <point x="80" y="218" type="line"/>
    </contour>
  </outline>
</glyph>
<glyph name="y.sups" format="1">
  <advance width="307"/>
  <unicode hex="02B8"/>
  <outline>
    <contour>
      <point x="48" y="196" type="line"/>
      <point x="59" y="193"/>
      <point x="62" y="193"/>
      <point x="67" y="193" type="curve" smooth="yes"/>
      <point x="93" y="193"/>
      <point x="104" y="204"/>
      <point x="111" y="220" type="curve" smooth="yes"/>
      <point x="114" y="230" type="line"/>
      <point x="7" y="496" type="line"/>
      <point x="107" y="496" type="line"/>
      <point x="139" y="392" type="line" smooth="yes"/>
      <point x="148" y="363"/>
      <point x="151" y="343"/>
      <point x="158" y="314" type="curve"/>
      <point x="161" y="314" type="line"/>
      <point x="179" y="392" type="line"/>
      <point x="205" y="496" type="line"/>
      <point x="300" y="496" type="line"/>
      <point x="208" y="224" type="line"/>
      <point x="176" y="149"/>
      <point x="148" y="118"/>
      <point x="75" y="118" type="curve" smooth="yes"/>
      <point x="56" y="118"/>
      <point x="46" y="120"/>
      <point x="31" y="122" type="curve"/>
    </contour>
  </outline>
</glyph>
<glyph name="uni02BF" format="1">
  <advance width="142"/>
  <unicode hex="02BF"/>
  <outline>
    <contour>
      <point x="122" y="586" type="line"/>
      <point x="86" y="586"/>
      <point x="77" y="572"/>
      <point x="77" y="549" type="curve" smooth="yes"/>
      <point x="77" y="527"/>
      <point x="86" y="513"/>
      <point x="122" y="513" type="curve"/>
      <point x="122" y="461" type="line"/>
      <point x="43" y="457"/>
      <point x="9" y="496"/>
      <point x="9" y="549" type="curve" smooth="yes"/>
      <point x="9" y="604"/>
      <point x="43" y="642"/>
      <point x="122" y="639" type="curve"/>
    </contour>
  </outline>
</glyph>
<glyph name="circumflex" format="1">
  <advance width="469"/>
  <unicode hex="02C6"/>
  <outline>
    <component base="uni0302" xOffset="234"/>
    <contour>
      <point x="234" y="620" type="move" name="mark0"/>
    </contour>
  </outline>
</glyph>
<glyph name="uni02C8" format="1">
  <advance width="134"/>
  <unicode hex="02C8"/>
  <outline>
    <contour>
      <point x="10" y="628" type="line"/>
      <point x="123" y="628" type="line"/>
      <point x="120" y="455" type="line"/>
      <point x="15" y="455" type="line"/>
    </contour>
  </outline>
</glyph>
<glyph name="uni02CC" format="1">
  <advance width="134"/>
  <unicode hex="02CC"/>
  <outline>
    <contour>
      <point x="120" y="-52" type="line"/>
      <point x="123" y="-226" type="line"/>
      <point x="10" y="-226" type="line"/>
      <point x="15" y="-52" type="line"/>
    </contour>
  </outline>
</glyph>
<glyph name="l.sups" format="1">
  <advance width="170"/>
  <unicode hex="02E1"/>
  <outline>
    <contour>
      <point x="31" y="604" type="line"/>
      <point x="132" y="604" type="line"/>
      <point x="132" y="315" type="line" smooth="yes"/>
      <point x="132" y="296"/>
      <point x="138" y="289"/>
      <point x="147" y="289" type="curve" smooth="yes"/>
      <point x="151" y="289"/>
      <point x="152" y="288"/>
      <point x="158" y="291" type="curve"/>
      <point x="170" y="220" type="line"/>
      <point x="157" y="214"/>
      <point x="144" y="212"/>
      <point x="121" y="212" type="curve" smooth="yes"/>
      <point x="54" y="212"/>
      <point x="31" y="255"/>
      <point x="31" y="318" type="curve" smooth="yes"/>
    </contour>
  </outline>
</glyph>
<glyph name="s.sups" format="1">
  <advance width="253"/>
  <unicode hex="02E2"/>
  <outline>
    <contour>
      <point x="54" y="310" type="line"/>
      <point x="79" y="292"/>
      <point x="103" y="283"/>
      <point x="122" y="283" type="curve" smooth="yes"/>
      <point x="139" y="283"/>
      <point x="149" y="288"/>
      <point x="149" y="298" type="curve" smooth="yes"/>
      <point x="149" y="312"/>
      <point x="124" y="316"/>
      <point x="96" y="328" type="curve" smooth="yes"/>
      <point x="63" y="342"/>
      <point x="25" y="365"/>
      <point x="25" y="412" type="curve" smooth="yes"/>
      <point x="25" y="465"/>
      <point x="71" y="503"/>
      <point x="138" y="503" type="curve" smooth="yes"/>
      <point x="184" y="503"/>
      <point x="215" y="485"/>
      <point x="241" y="465" type="curve"/>
      <point x="197" y="407" type="line"/>
      <point x="177" y="420"/>
      <point x="158" y="431"/>
      <point x="140" y="431" type="curve" smooth="yes"/>
      <point x="124" y="431"/>
      <point x="118" y="425"/>
      <point x="118" y="416" type="curve" smooth="yes"/>
      <point x="118" y="402"/>
      <point x="144" y="398"/>
      <point x="171" y="387" type="curve" smooth="yes"/>
      <point x="203" y="376"/>
      <point x="241" y="354"/>
      <point x="241" y="305" type="curve" smooth="yes"/>
      <point x="241" y="251"/>
      <point x="200" y="212"/>
      <point x="121" y="212" type="curve" smooth="yes"/>
      <point x="83" y="212"/>
      <point x="41" y="225"/>
      <point x="12" y="248" type="curve"/>
    </contour>
  </outline>
</glyph>
<glyph name="x.sups" format="1">
  <advance width="306"/>
  <unicode hex="02E3"/>
  <outline>
    <contour>
      <point x="92" y="363" type="line"/>
      <point x="12" y="496" type="line"/>
      <point x="120" y="496" type="line"/>
      <point x="138" y="457" type="line"/>
      <point x="159" y="416" type="line"/>
      <point x="163" y="416" type="line"/>
      <point x="177" y="457" type="line"/>
      <point x="191" y="496" type="line"/>
      <point x="295" y="496" type="line"/>
      <point x="214" y="350" type="line"/>
      <point x="298" y="218" type="line"/>
      <point x="193" y="218" type="line"/>
      <point x="172" y="255" type="line"/>
      <point x="147" y="297" type="line"/>
      <point x="144" y="297" type="line"/>
      <point x="125" y="255" type="line"/>
      <point x="111" y="218" type="line"/>
      <point x="7" y="218" type="line"/>
    </contour>
  </outline>
</glyph>
<glyph name="uni0300" format="1">
  <advance width="0"/>
  <unicode hex="0300"/>
  <outline>
    <contour>
      <point x="-138" y="610" type="line"/>
      <point x="0" y="610" type="line"/>
      <point x="73" y="481" type="line"/>
      <point x="-29" y="481" type="line"/>
    </contour>
    <contour>
      <point x="0" y="437" type="move" name="_mark0"/>
    </contour>
  </outline>
</glyph>
<glyph name="uni0302" format="1">
  <advance width="0"/>
  <unicode hex="0302"/>
  <outline>
    <contour>
      <point x="-57" y="610" type="line"/>
      <point x="57" y="610" type="line"/>
      <point x="138" y="481" type="line"/>
      <point x="42" y="481" type="line"/>
      <point x="2" y="543" type="line"/>
      <point x="-2" y="543" type="line"/>
      <point x="-42" y="481" type="line"/>
      <point x="-138" y="481" type="line"/>
    </contour>
    <contour>
      <point x="0" y="437" type="move" name="_mark0"/>
    </contour>
  </outline>
</glyph>
<glyph name="uni0303" format="1">
  <advance width="0"/>
  <unicode hex="0303"/>
  <outline>
    <contour>
      <point x="-147" y="481" type="line"/>
      <point x="-138" y="567"/>
      <point x="-100" y="604"/>
      <point x="-54" y="604" type="curve" smooth="yes"/>
      <point x="-9" y="604"/>
      <point x="24" y="567"/>
      <point x="46" y="567" type="curve" smooth="yes"/>
      <point x="61" y="567"/>
      <point x="69" y="576"/>
      <point x="75" y="604" type="curve"/>
      <point x="147" y="604" type="line"/>
      <point x="138" y="516"/>
      <point x="100" y="481"/>
      <point x="54" y="481" type="curve" smooth="yes"/>
      <point x="9" y="481"/>
      <point x="-25" y="515"/>
      <point x="-47" y="515" type="curve" smooth="yes"/>
      <point x="-61" y="515"/>
      <point x="-69" y="508"/>
      <point x="-75" y="481" type="curve"/>
    </contour>
    <contour>
      <point x="0" y="437" type="move" name="_mark0"/>
    </contour>
  </outline>
</glyph>
<glyph name="uni0306" format="1">
  <advance width="0"/>
  <unicode hex="0306"/>
  <outline>
    <contour>
      <point x="0" y="481" type="curve" smooth="yes"/>
      <point x="-80" y="481"/>
      <point x="-119" y="536"/>
      <point x="-122" y="602" type="curve"/>
      <point x="-42" y="602" type="line"/>
      <point x="-38" y="575"/>
      <point x="-26" y="558"/>
      <point x="0" y="558" type="curve" smooth="yes"/>
      <point x="26" y="558"/>
      <point x="38" y="575"/>
      <point x="42" y="602" type="curve"/>
      <point x="121" y="602" type="line"/>
      <point x="119" y="536"/>
      <point x="80" y="481"/>
    </contour>
    <contour>
      <point x="0" y="437" type="move" name="_mark0"/>
    </contour>
  </outline>
</glyph>
<glyph name="uni0307" format="1">
  <advance width="0"/>
  <unicode hex="0307"/>
  <outline>
    <contour>
      <point x="0" y="471" type="curve" smooth="yes"/>
      <point x="-47" y="471"/>
      <point x="-77" y="500"/>
      <point x="-77" y="543" type="curve" smooth="yes"/>
      <point x="-77" y="586"/>
      <point x="-47" y="615"/>
      <point x="0" y="615" type="curve" smooth="yes"/>
      <point x="46" y="615"/>
      <point x="77" y="586"/>
      <point x="77" y="543" type="curve" smooth="yes"/>
      <point x="77" y="500"/>
      <point x="46" y="471"/>
    </contour>
    <contour>
      <point x="0" y="437" type="move" name="_mark0"/>
    </contour>
  </outline>
</glyph>
<glyph name="uni0308" format="1">
  <advance width="0"/>
  <unicode hex="0308"/>
  <outline>
    <contour>
      <point x="-87" y="473" type="curve" smooth="yes"/>
      <point x="-126" y="473"/>
      <point x="-153" y="501"/>
      <point x="-153" y="538" type="curve" smooth="yes"/>
      <point x="-153" y="574"/>
      <point x="-126" y="604"/>
      <point x="-87" y="604" type="curve" smooth="yes"/>
      <point x="-47" y="604"/>
      <point x="-22" y="574"/>
      <point x="-22" y="538" type="curve" smooth="yes"/>
      <point x="-22" y="501"/>
      <point x="-47" y="473"/>
    </contour>
    <contour>
      <point x="87" y="473" type="curve" smooth="yes"/>
      <point x="47" y="473"/>
      <point x="22" y="501"/>
      <point x="22" y="538" type="curve" smooth="yes"/>
      <point x="22" y="574"/>
      <point x="47" y="604"/>
      <point x="87" y="604" type="curve" smooth="yes"/>
      <point x="126" y="604"/>
      <point x="153" y="574"/>
      <point x="153" y="538" type="curve" smooth="yes"/>
      <point x="153" y="501"/>
      <point x="126" y="473"/>
    </contour>
    <contour>
      <point x="0" y="437" type="move" name="_mark0"/>
    </contour>
  </outline>
</glyph>
<glyph name="uni0309" format="1">
  <advance width="0"/>
  <unicode hex="0309"/>
  <outline>
    <contour>
      <point x="-42" y="523" type="line"/>
      <point x="-23" y="525"/>
      <point x="-9" y="530"/>
      <point x="-9" y="543" type="curve" smooth="yes"/>
      <point x="-9" y="557"/>
      <point x="-25" y="565"/>
      <point x="-74" y="567" type="curve"/>
      <point x="-57" y="639" type="line"/>
      <point x="60" y="634"/>
      <point x="94" y="604"/>
      <point x="94" y="558" type="curve" smooth="yes"/>
      <point x="94" y="498"/>
      <point x="37" y="470"/>
      <point x="-31" y="467" type="curve"/>
    </contour>
    <contour>
      <point x="0" y="437" type="move" name="_mark0"/>
    </contour>
  </outline>
</glyph>
<glyph name="uni030A" format="1">
  <advance width="0"/>
  <unicode hex="030A"/>
  <outline>
    <contour>
      <point x="0" y="461" type="curve" smooth="yes"/>
      <point x="-61" y="461"/>
      <point x="-101" y="496"/>
      <point x="-101" y="549" type="curve" smooth="yes"/>
      <point x="-101" y="604"/>
      <point x="-61" y="639"/>
      <point x="0" y="639" type="curve" smooth="yes"/>
      <point x="61" y="639"/>
      <point x="101" y="604"/>
      <point x="101" y="549" type="curve" smooth="yes"/>
      <point x="101" y="496"/>
      <point x="61" y="461"/>
    </contour>
    <contour>
      <point x="0" y="513" type="curve" smooth="yes"/>
      <point x="18" y="513"/>
      <point x="31" y="527"/>
      <point x="31" y="549" type="curve" smooth="yes"/>
      <point x="31" y="572"/>
      <point x="18" y="586"/>
      <point x="0" y="586" type="curve" smooth="yes"/>
      <point x="-18" y="586"/>
      <point x="-31" y="572"/>
      <point x="-31" y="549" type="curve" smooth="yes"/>
      <point x="-31" y="527"/>
      <point x="-18" y="513"/>
    </contour>
    <contour>
      <point x="0" y="437" type="move" name="_mark0"/>
    </contour>
  </outline>
</glyph>
<glyph name="uni030B" format="1">
  <advance width="0"/>
  <unicode hex="030B"/>
  <outline>
    <contour>
      <point x="-57" y="610" type="line"/>
      <point x="55" y="610" type="line"/>
      <point x="-27" y="481" type="line"/>
      <point x="-114" y="481" type="line"/>
    </contour>
    <contour>
      <point x="94" y="610" type="line"/>
      <point x="206" y="610" type="line"/>
      <point x="123" y="481" type="line"/>
      <point x="37" y="481" type="line"/>
    </contour>
    <contour>
      <point x="0" y="437" type="move" name="_mark0"/>
    </contour>
  </outline>
</glyph>
